<?xml version="1.0" standalone="no"?>
<!DOCTYPE svg PUBLIC "-//W3C//DTD SVG 1.1//EN" "http://www.w3.org/Graphics/SVG/1.1/DTD/svg11.dtd" >
<svg xmlns="http://www.w3.org/2000/svg" xmlns:xlink="http://www.w3.org/1999/xlink" version="1.1">
<metadata>
Created by FontForge 20170731 at Sun Jun  5 00:29:53 2016
 By Aleksey,,,
Armasen Typefaces 2011 - All rights reserved.
</metadata>
<defs>
<font id="Kelson-Thin" horiz-adv-x="499" >
  <font-face 
    font-family="Kelson Thin"
    font-weight="250"
    font-stretch="normal"
    units-per-em="1000"
    panose-1="2 0 5 6 0 0 0 2 0 4"
    ascent="800"
    descent="-200"
    x-height="581"
    cap-height="762"
    bbox="-180 -223 912 998"
    underline-thickness="50"
    underline-position="-200"
    unicode-range="U+0008-FB02"
  />
<missing-glyph horiz-adv-x="500" 
d="M91 0v762h318v-762h-318zM116 739v-716h268v716h-268z" />
    <glyph glyph-name="fi" unicode="fi" horiz-adv-x="462" 
d="M240 755q-76 0 -103.5 -37.5t-27.5 -130.5v-11h140v-22h-140v-554h-24v588q0 104 35 146.5t120 42.5q20 0 33 -2v-22q-16 2 -33 2zM377 581v-581h-24v581h24zM352 725v47h26v-47h-26z" />
    <glyph glyph-name="fl" unicode="fl" horiz-adv-x="513" 
d="M240 755q-76 0 -103.5 -37.5t-27.5 -130.5v-11h140v-22h-140v-554h-24v588q0 104 35 146.5t120 42.5q20 0 33 -2v-22q-16 2 -33 2zM473 18l-1 -19q-79 -8 -101.5 23.5t-22.5 125.5v624h24v-628q0 -85 17 -105.5t84 -20.5z" />
    <glyph glyph-name=".notdef" horiz-adv-x="500" 
d="M91 0v762h318v-762h-318zM116 739v-716h268v716h-268z" />
    <glyph glyph-name=".null" horiz-adv-x="0" 
 />
    <glyph glyph-name=".null" horiz-adv-x="0" 
 />
    <glyph glyph-name="nonmarkingreturn" horiz-adv-x="333" 
 />
    <glyph glyph-name="CR" unicode="&#xd;" horiz-adv-x="250" 
 />
    <glyph glyph-name="space" unicode=" " horiz-adv-x="250" 
 />
    <glyph glyph-name="exclam" unicode="!" horiz-adv-x="185" 
d="M105 762l-3 -566h-19l-3 566h25zM105 38v-38h-25v38h25z" />
    <glyph glyph-name="quotedbl" unicode="&#x22;" horiz-adv-x="247" 
d="M66 559h-20l-1 213h27zM196 559h-20l-1 213h27z" />
    <glyph glyph-name="numbersign" unicode="#" horiz-adv-x="450" 
d="M375 763h22l-43 -208h101l-5 -22h-100l-62 -303h101l-5 -22h-100l-42 -208h-22l42 208h-138l-42 -208h-22l42 208h-100l5 22h100l61 303h-100l5 22h100l42 208h22l-43 -208h139zM190 533l-62 -303h139l61 303h-138z" />
    <glyph glyph-name="dollar" unicode="$" horiz-adv-x="550" 
d="M293 -94h-25v82q-88 1 -137.5 45.5t-50.5 126.5h22q2 -73 46 -111t120 -38q99 0 137.5 41.5t38.5 137.5q0 77 -37.5 120.5t-135.5 72.5q-92 28 -132 71.5t-40 130.5q0 178 170 186v87h25v-86q70 -3 120.5 -41.5t55.5 -121.5h-22q-4 71 -50 105.5t-112 34.5
q-80 0 -121.5 -36.5t-41.5 -126.5q0 -78 34 -117t120 -64q107 -32 149.5 -80.5t42.5 -134.5q0 -110 -46 -153.5t-130 -47.5v-83z" />
    <glyph glyph-name="percent" unicode="%" horiz-adv-x="679" 
d="M88 631v-64q0 -78 22.5 -106.5t76.5 -28.5t76.5 28.5t22.5 106.5v64q0 75 -22.5 102t-76.5 27t-76.5 -27t-22.5 -102zM64 561v76q0 81 31 113t92 32t92 -32t31 -113v-76q0 -85 -31 -118t-92 -33t-92 33t-31 118zM591 131v64q0 78 -22.5 106.5t-76.5 28.5t-76.5 -28.5
t-22.5 -106.5v-64q0 -75 22.5 -102t76.5 -27t76.5 27t22.5 102zM615 201v-76q0 -81 -31.5 -113t-92.5 -32t-91.5 31.5t-30.5 113.5v76q0 85 31 118t92 33t92 -33t31 -118zM162 0h-26l381 762h26z" />
    <glyph glyph-name="ampersand" unicode="&#x26;" horiz-adv-x="650" 
d="M552 -10q-57 0 -83.5 23t-33.5 75q-16 -46 -60 -73t-111 -27q-98 0 -148.5 57t-50.5 156q0 90 42 139t109 63q-136 34 -136 181q0 95 54 142.5t141 47.5q82 0 135 -42.5t59 -127.5h-25q-6 77 -54 112t-115 35q-72 0 -121 -39.5t-49 -127.5q0 -73 41.5 -121t128.5 -48h301
v-20h-121v-249q0 -78 22.5 -105.5t76.5 -27.5q21 0 51 6l-1 -22q-26 -7 -52 -7zM265 13q166 0 166 177v205h-144q-37 0 -69.5 -9t-63 -29.5t-48 -60.5t-17.5 -96q0 -84 44 -135.5t132 -51.5z" />
    <glyph glyph-name="quotesingle" unicode="'" horiz-adv-x="117" 
d="M66 559h-20l-1 213h27z" />
    <glyph glyph-name="parenleft" unicode="(" horiz-adv-x="278" 
d="M75 32v622q0 99 25.5 136.5t102.5 37.5q18 0 30 -2v-22q-14 2 -30 2q-68 0 -86 -33t-18 -124v-612q-1 -91 17 -124t86 -33q16 0 30 2v-22q-12 -2 -30 -2q-77 0 -102.5 37.5t-24.5 136.5z" />
    <glyph glyph-name="parenright" unicode=")" horiz-adv-x="278" 
d="M203 654v-622q-1 -99 -26.5 -136.5t-102.5 -37.5q-18 0 -30 2v22q14 -2 30 -2q68 0 86 33t19 124v612q0 91 -18 124t-86 33q-16 0 -30 -2v22q12 2 30 2q77 0 102.5 -37.5t25.5 -136.5z" />
    <glyph glyph-name="asterisk" unicode="*" horiz-adv-x="212" 
d="M126 697v-7l-1 -9q15 -6 64 -52l-18 -20q-46 46 -53 65h-15q-2 -7 -9.5 -17t-14.5 -17.5t-17.5 -18l-13.5 -13.5l-19 19q45 47 66 58q0 10 1 16q-17 5 -64 52l17 19q46 -46 54 -66h14q9 27 56 66l19 -18q-45 -45 -66 -57z" />
    <glyph glyph-name="plus" unicode="+" horiz-adv-x="450" 
d="M399 399v-23h-162v-164h-24v164h-162v23h162v164h24v-164h162z" />
    <glyph glyph-name="comma" unicode="," horiz-adv-x="180" 
d="M24 -149l81 230h30l-86 -230h-25z" />
    <glyph glyph-name="hyphen" unicode="-" horiz-adv-x="369" 
d="M301 319v-22h-233v22h233z" />
    <glyph glyph-name="period" unicode="." horiz-adv-x="180" 
d="M106 43v-43h-33v43h33z" />
    <glyph glyph-name="slash" unicode="/" horiz-adv-x="341" 
d="M278 772h23l-239 -784h-23z" />
    <glyph glyph-name="zero" unicode="0" horiz-adv-x="500" 
d="M85 535v-298q0 -129 38 -178t127 -49t127 49t38 178v298q0 123 -38 170t-127 47t-127 -47t-38 -170zM61 234v304q0 134 46 185t143 51t143 -51t46 -185v-304q0 -139 -46.5 -192.5t-143.5 -53.5t-142.5 53t-45.5 193z" />
    <glyph glyph-name="one" unicode="1" horiz-adv-x="421" 
d="M45 653v26l174 83h22v-740h155v-22h-347v22h168v714z" />
    <glyph glyph-name="two" unicode="2" horiz-adv-x="474" 
d="M90 127v-105h344v-22h-369v124q0 60 18.5 103.5t48 68t65 43t71.5 36.5t65.5 40.5t48 62.5t18.5 96q0 96 -43 136.5t-121 40.5q-156 0 -156 -174h-25q0 197 184 197q186 0 186 -199q0 -60 -18.5 -103.5t-48 -68.5t-65 -43.5t-71.5 -36.5t-65.5 -40.5t-48 -61.5t-18.5 -94
z" />
    <glyph glyph-name="three" unicode="3" horiz-adv-x="495" 
d="M420 593q0 -72 -33 -124.5t-106 -70.5q154 -28 154 -200q0 -98 -50.5 -154t-147.5 -56q-89 0 -143 50t-54 142h25q0 -74 45 -120.5t129 -46.5t128 49t44 131q0 192 -209 192h-52v27h75q87 0 128.5 51.5t41.5 125.5q0 88 -47 125t-119 37q-75 0 -117 -40.5t-42 -125.5h-26
q0 94 49.5 141.5t138.5 47.5q84 0 136 -45t52 -136z" />
    <glyph glyph-name="four" unicode="4" horiz-adv-x="498" 
d="M377 233h86v-22h-86v-211h-24v211h-323v20l321 531h26v-529zM55 233h298v492z" />
    <glyph glyph-name="five" unicode="5" 
d="M419 200v40q0 84 -46.5 129.5t-133.5 45.5h-153v347h324v-22h-299v-303h128q98 0 151.5 -51t53.5 -146v-40q0 -106 -51.5 -159t-146.5 -53q-175 0 -175 192h24q0 -167 153 -167q89 0 130 45.5t41 141.5z" />
    <glyph glyph-name="six" unicode="6" horiz-adv-x="487" 
d="M256 753q-99 0 -136 -57t-37 -161v-163q18 45 63.5 70t108.5 25q192 0 192 -226v-37q0 -216 -196 -216q-93 0 -142 47.5t-49 168.5v322q0 125 44 186.5t152 61.5q179 0 179 -179h-25q0 158 -154 158zM84 270v-59q0 -109 36.5 -155t132.5 -46q85 0 127.5 47t42.5 151v33
q0 204 -169 204q-170 0 -170 -175z" />
    <glyph glyph-name="seven" unicode="7" horiz-adv-x="425" 
d="M117 0h-25l282 739h-359v23h385v-20z" />
    <glyph glyph-name="eight" unicode="8" horiz-adv-x="500" 
d="M247 -12q-99 0 -154 58t-55 155q0 89 40.5 138t106.5 64q-132 35 -132 181q0 95 54 142.5t141 47.5t141 -47.5t54 -142.5q0 -146 -132 -181q65 -15 106 -64.5t41 -137.5q0 -97 -55.5 -155t-155.5 -58zM248 10q89 0 137.5 53.5t48.5 136.5q0 54 -16 93t-43.5 60t-58.5 30
t-68 9t-68 -9t-58.5 -30t-43.5 -60t-16 -93q0 -83 48.5 -136.5t137.5 -53.5zM248 414q87 0 128.5 48.5t41.5 121.5q0 88 -49 129t-121 41t-121 -41t-49 -129q0 -73 41.5 -121.5t128.5 -48.5z" />
    <glyph glyph-name="nine" unicode="9" horiz-adv-x="487" 
d="M403 227v163q-18 -46 -63 -70.5t-108 -24.5q-192 0 -192 226v37q0 216 195 216q94 0 143 -47.5t49 -168.5v-322q0 -125 -44.5 -186.5t-152.5 -61.5q-178 0 -178 179h25q0 -158 154 -158q52 0 86.5 16t53 47.5t25.5 68t7 86.5zM403 492v59q0 109 -36.5 155t-132.5 46
q-85 0 -127.5 -47t-42.5 -151v-33q0 -204 169 -204q170 0 170 175z" />
    <glyph glyph-name="colon" unicode=":" horiz-adv-x="180" 
d="M106 43v-43h-33v43h33zM106 574v-43h-33v43h33z" />
    <glyph glyph-name="semicolon" unicode=";" horiz-adv-x="180" 
d="M24 -149l81 230h30l-86 -230h-25zM105 574v-43h-33v43h33z" />
    <glyph glyph-name="less" unicode="&#x3c;" horiz-adv-x="450" 
d="M77 308v20l295 192v-28l-270 -174l270 -173v-28z" />
    <glyph glyph-name="equal" unicode="=" horiz-adv-x="450" 
d="M372 492v-23h-294v23h294zM372 303v-23h-294v23h294z" />
    <glyph glyph-name="greater" unicode="&#x3e;" horiz-adv-x="450" 
d="M372 329v-20l-295 -192v28l270 173l-270 174v28z" />
    <glyph glyph-name="question" unicode="?" horiz-adv-x="452" 
d="M211 38v-38h-25v38h25zM212 225v-30h-25v27q0 52 11.5 89t29.5 57t39.5 34.5t43.5 28t40 31t29.5 49t11.5 77.5q0 94 -45.5 128.5t-127.5 34.5t-123 -48t-41 -126h-25q0 104 55 150.5t137 46.5q195 0 195 -185q0 -50 -11.5 -84.5t-29.5 -53.5t-39.5 -32.5t-43.5 -27
t-40 -32t-29.5 -52t-11.5 -82.5z" />
    <glyph glyph-name="at" unicode="@" horiz-adv-x="990" 
d="M320 355v31q0 203 164 203q103 0 140 -80v69h23v-269q0 -77 25 -107t77 -30q63 0 94.5 52t31.5 186q0 167 -97 251.5t-277 84.5q-213 0 -297.5 -90.5t-84.5 -299.5q0 -103 24 -174.5t74 -112.5t116.5 -58.5t159.5 -17.5q174 0 297 41v-23q-119 -39 -299 -39
q-93 0 -161 17t-123 58.5t-83.5 118.5t-28.5 189q0 223 95 317.5t311 94.5q84 0 153 -19.5t124.5 -60t86 -111t30.5 -164.5q0 -140 -34.5 -199t-113.5 -59q-57 0 -83 26t-33 73q-40 -101 -151 -101q-160 0 -160 203zM343 382v-24q0 -185 138 -185q65 0 104.5 39.5
t39.5 119.5v77q0 84 -39 121.5t-102 37.5q-68 0 -104.5 -43t-36.5 -143z" />
    <glyph glyph-name="A" unicode="A" horiz-adv-x="538" 
d="M485 0l-74 251h-287l-74 -251h-25l228 762h32l228 -762h-28zM268 736l-137 -463h273z" />
    <glyph glyph-name="B" unicode="B" horiz-adv-x="531" 
d="M460 582v-19q0 -141 -117 -166q138 -31 138 -183v-26q0 -103 -52 -145.5t-165 -42.5h-178v762h162q50 0 84.5 -7t65.5 -25t46.5 -55t15.5 -93zM249 386h-138v-363h159q102 0 143.5 40t41.5 128v16q0 100 -49.5 138.5t-156.5 40.5zM111 739v-330h155q92 0 130 37.5
t38 119.5v9q0 100 -45.5 132t-142.5 32h-135z" />
    <glyph glyph-name="C" unicode="C" horiz-adv-x="519" 
d="M465 577v-5h-23v5q0 88 -38.5 131t-123.5 43q-49 0 -83 -12.5t-52.5 -32t-29 -53t-13 -64.5t-2.5 -78v-256q0 -42 1.5 -68.5t7 -58t17.5 -50t31.5 -35.5t50 -24.5t72.5 -7.5q92 0 125.5 40.5t39.5 136.5v5h23v-5q-4 -104 -44.5 -152t-144.5 -48q-64 0 -105.5 16.5
t-62.5 53.5t-28.5 81.5t-7.5 114.5v250q0 142 41.5 206t163.5 64q98 0 141.5 -48.5t43.5 -148.5z" />
    <glyph glyph-name="D" unicode="D" horiz-adv-x="554" 
d="M86 0v762h169q131 0 177.5 -62t46.5 -210v-226q0 -142 -48 -203t-179 -61h-166zM454 266v219q0 71 -7.5 115t-29.5 78t-62.5 48t-105.5 14h-138v-718h141q122 0 162 57t40 187z" />
    <glyph glyph-name="E" unicode="E" horiz-adv-x="494" 
d="M90 762h339v-23h-314v-331h280v-23h-280v-362h324v-23h-349v762z" />
    <glyph glyph-name="F" unicode="F" horiz-adv-x="486" 
d="M441 762v-24h-326v-325h293v-23h-293v-390h-25v762h351z" />
    <glyph glyph-name="G" unicode="G" horiz-adv-x="566" 
d="M100 510v-260q0 -135 35.5 -187t151.5 -52q60 0 97.5 14t55.5 45.5t24 67t6 94.5v117h-183v23h207v-140q0 -51 -4 -85.5t-16.5 -67t-35 -51t-60.5 -29.5t-92 -11q-68 0 -110 15t-64 51t-29.5 80t-7.5 116v256q0 145 47 206.5t170 61.5q114 0 158 -48.5t46 -153.5v-5h-24
v5q0 95 -39.5 137t-140.5 42q-114 0 -153 -57t-39 -184z" />
    <glyph glyph-name="H" unicode="H" horiz-adv-x="569" 
d="M483 762v-762h-25v382h-347v-382h-25v762h25v-357h347v357h25z" />
    <glyph glyph-name="I" unicode="I" horiz-adv-x="205" 
d="M115 762v-762h-25v762h25z" />
    <glyph glyph-name="J" unicode="J" horiz-adv-x="441" 
d="M182 11q85 0 120 47t35 151v553h24v-550q0 -120 -44.5 -172t-135.5 -52q-83 0 -124.5 39.5t-42.5 110.5h23q7 -127 145 -127z" />
    <glyph glyph-name="K" unicode="K" horiz-adv-x="539" 
d="M490 762l-260 -374l284 -388h-32l-271 375h-100v-375h-25v762h25v-364h98l249 364h32z" />
    <glyph glyph-name="L" unicode="L" horiz-adv-x="448" 
d="M413 24v-24h-323v762h25v-738h298z" />
    <glyph glyph-name="M" unicode="M" horiz-adv-x="643" 
d="M86 762h31l205 -463l206 463h29v-762h-25v711l-195 -437h-31l-195 435v-709h-25v762z" />
    <glyph glyph-name="N" unicode="N" horiz-adv-x="564" 
d="M86 762h34l334 -725v725h24v-762h-31l-337 727v-727h-24v762z" />
    <glyph glyph-name="O" unicode="O" horiz-adv-x="578" 
d="M75 249v264q0 140 44.5 200.5t169.5 60.5t169.5 -60.5t44.5 -200.5v-264q0 -140 -45 -200.5t-170 -60.5t-169 60.5t-44 200.5zM478 253v256q0 64 -6.5 104t-25.5 74t-57.5 49t-99.5 15q-62 0 -100.5 -15t-57.5 -49.5t-25 -73.5t-6 -104v-256q0 -64 6.5 -104t25.5 -74
t57.5 -49t99.5 -15q62 0 100.5 15t57.5 49.5t25 73.5t6 104z" />
    <glyph glyph-name="P" unicode="P" horiz-adv-x="475" 
d="M242 739h-131v-375h144q93 0 126.5 35t33.5 129v44q0 101 -41.5 134t-131.5 33zM252 341h-141v-341h-25v762h159q95 0 145 -38t50 -145v-54q0 -106 -43.5 -145t-144.5 -39z" />
    <glyph glyph-name="Q" unicode="Q" horiz-adv-x="578" 
d="M75 249v264q0 140 44.5 200.5t169.5 60.5t169.5 -60.5t44.5 -200.5v-264q0 -112 -27 -171t-97 -79l75 -162h-28l-71 156q-33 -5 -67 -5q-125 0 -169 60.5t-44 200.5zM478 253v256q0 64 -6.5 104t-25.5 74t-57.5 49t-99.5 15q-62 0 -100.5 -15t-57.5 -49.5t-25 -73.5
t-6 -104v-256q0 -64 6.5 -104t25.5 -74t57.5 -49t99.5 -15q62 0 100.5 15t57.5 49.5t25 73.5t6 104z" />
    <glyph glyph-name="R" unicode="R" horiz-adv-x="493" 
d="M249 355h-138v-355h-25v762h156q95 0 145 -38t50 -145v-40q0 -85 -27 -126t-86 -52l129 -361h-27l-127 357q-16 -2 -50 -2zM239 739h-128v-361h141q93 0 126.5 35t33.5 129v30q0 101 -41.5 134t-131.5 33z" />
    <glyph glyph-name="S" unicode="S" horiz-adv-x="504" 
d="M250 386q-97 31 -137 75.5t-40 125.5q0 92 48 139.5t140 47.5q75 0 129.5 -38.5t59.5 -124.5h-23q-5 71 -51.5 105.5t-114.5 34.5q-164 0 -164 -163q0 -73 36.5 -112t124.5 -67q107 -33 149 -85t42 -133q0 -112 -52 -157.5t-149 -45.5q-86 0 -137 45t-52 127h23
q2 -73 46.5 -111t120.5 -38q91 0 132.5 39.5t41.5 140.5q0 77 -39 120.5t-134 74.5z" />
    <glyph glyph-name="T" unicode="T" horiz-adv-x="477" 
d="M442 762v-24h-191v-738h-25v738h-191v24h407z" />
    <glyph glyph-name="U" unicode="U" horiz-adv-x="567" 
d="M463 762h25v-502q0 -72 -7 -117t-28 -83t-62.5 -55t-107.5 -17q-54 0 -91 12t-59.5 32.5t-34.5 57t-15.5 74.5t-3.5 96v502h25v-504q0 -52 3 -85.5t13 -67.5t29.5 -52.5t52.5 -30t82 -11.5t82 11.5t52 30t29.5 52.5t13 67t2.5 86v504z" />
    <glyph glyph-name="V" unicode="V" horiz-adv-x="508" 
d="M20 762h28l206 -732l207 732h27l-218 -762h-32z" />
    <glyph glyph-name="W" unicode="W" horiz-adv-x="752" 
d="M524 0l-148 689l-148 -689h-36l-157 762h27l148 -735l151 701h32l149 -696l148 730h27l-157 -762h-36z" />
    <glyph glyph-name="X" unicode="X" horiz-adv-x="533" 
d="M278 388l220 -388h-29l-206 365l-199 -365h-27l211 385l-213 377h29l200 -355l193 355h27z" />
    <glyph glyph-name="Y" unicode="Y" horiz-adv-x="507" 
d="M10 762h29l215 -395l216 395h27l-231 -420v-342h-25v342z" />
    <glyph glyph-name="Z" unicode="Z" horiz-adv-x="476" 
d="M45 0v24l351 715h-328v23h356v-24l-352 -715h369v-23h-396z" />
    <glyph glyph-name="bracketleft" unicode="[" horiz-adv-x="291" 
d="M104 -123l1 949h131v-22h-108l-1 -905h108v-22h-131z" />
    <glyph glyph-name="backslash" unicode="\" horiz-adv-x="361" 
d="M310 -12h-23l-237 784h23z" />
    <glyph glyph-name="bracketright" unicode="]" horiz-adv-x="291" 
d="M186 826l-1 -949h-131v22h108l1 905h-108v22h131z" />
    <glyph glyph-name="asciicircum" unicode="^" horiz-adv-x="532" 
d="M255 556h20l192 -295h-28l-173 269l-172 -269h-29z" />
    <glyph glyph-name="underscore" unicode="_" horiz-adv-x="389" 
d="M358 -81v-21h-329v21h329z" />
    <glyph glyph-name="grave" unicode="`" horiz-adv-x="520" 
d="M275 650h-27l-94 133h32z" />
    <glyph glyph-name="a" unicode="a" horiz-adv-x="486" 
d="M388 303v111q0 82 -32.5 119.5t-105.5 37.5q-72 0 -108.5 -34.5t-36.5 -118.5h-23q0 88 40.5 131.5t127.5 43.5q83 0 122.5 -42.5t39.5 -138.5v-412h-22l-1 92q-19 -47 -64.5 -75.5t-104.5 -28.5q-157 0 -157 160q0 84 51.5 124t162.5 40q53 0 111 -9zM388 184v96
q-58 10 -119 10q-97 0 -138.5 -35.5t-41.5 -107.5q0 -136 133 -136q71 0 118.5 45t47.5 128z" />
    <glyph glyph-name="b" unicode="b" 
d="M85 772h24v-263q48 84 155 84q170 0 170 -218v-171q0 -216 -177 -216q-109 0 -148 86v-74h-24v772zM410 207v170q0 97 -35.5 145.5t-112.5 48.5q-68 0 -110.5 -40t-42.5 -110v-242q0 -89 41 -129t108 -40q152 0 152 197z" />
    <glyph glyph-name="c" unicode="c" horiz-adv-x="460" 
d="M382 156v5h23v-5q0 -84 -40 -126t-129 -42q-91 0 -131 48t-40 169v174q0 119 42.5 166.5t133.5 47.5q87 0 124 -40.5t37 -121.5v-4h-23v4q0 68 -30.5 104t-108.5 36q-85 0 -118 -43.5t-33 -148.5v-171q0 -105 31.5 -151.5t116.5 -46.5q81 0 113 38t32 108z" />
    <glyph glyph-name="d" unicode="d" 
d="M65 206v171q0 216 176 216q110 0 149 -86v265h24v-772h-22l-4 71q-46 -83 -154 -83q-169 0 -169 218zM89 374v-170q0 -97 35.5 -145.5t112.5 -48.5q68 0 110.5 40t42.5 110v242q0 89 -41 129t-108 40q-152 0 -152 -197z" />
    <glyph glyph-name="e" unicode="e" horiz-adv-x="468" 
d="M376 143h24q0 -155 -161 -155q-93 0 -133.5 48.5t-40.5 164.5v173q0 119 41.5 169t130.5 50t128.5 -50t39.5 -159v-90h-316v-90q0 -103 33.5 -148.5t116.5 -45.5q73 0 104.5 33t32.5 100zM89 316h292v65q0 99 -31 144.5t-113 45.5q-83 0 -115.5 -44.5t-32.5 -151.5v-59z
" />
    <glyph glyph-name="f" unicode="f" horiz-adv-x="288" 
d="M240 755q-76 0 -103.5 -37.5t-27.5 -130.5v-11h140v-22h-140v-554h-24v588q0 104 35 146.5t120 42.5q20 0 33 -2v-22q-16 2 -33 2z" />
    <glyph glyph-name="g" unicode="g" 
d="M390 26v49q-44 -87 -156 -87q-169 0 -169 218v171q0 216 176 216q55 0 93.5 -23.5t55.5 -63.5l2 75h22v-552q-1 -131 -42.5 -181.5t-137.5 -50.5q-76 0 -114 31.5t-42 101.5h23q7 -111 133 -111q89 0 122 46.5t34 160.5zM89 374v-170q0 -97 35.5 -145.5t112.5 -48.5
q68 0 110.5 40t42.5 110v242q0 89 -41 129t-108 40q-152 0 -152 -197z" />
    <glyph glyph-name="h" unicode="h" horiz-adv-x="509" 
d="M85 772h24v-267q44 88 156 88q98 0 133.5 -51t35.5 -156v-386h-24v386q0 99 -32 142t-116 43q-68 0 -110.5 -40t-42.5 -110v-421h-24v772z" />
    <glyph glyph-name="i" unicode="i" horiz-adv-x="194" 
d="M109 581v-581h-24v581h24zM84 725v47h26v-47h-26z" />
    <glyph glyph-name="j" unicode="j" horiz-adv-x="194" 
d="M84 -21l1 602h24l-1 -599q0 -99 -21.5 -140.5t-90.5 -36.5v24q55 -1 71.5 26.5t16.5 123.5zM84 725v47h26v-47h-26z" />
    <glyph glyph-name="k" unicode="k" horiz-adv-x="478" 
d="M386 581h28l-201 -264l245 -317h-30l-236 306h-83v-306h-24v772h24v-444h85z" />
    <glyph glyph-name="l" unicode="l" horiz-adv-x="245" 
d="M205 18l-1 -19q-79 -8 -101.5 23.5t-22.5 125.5v624h24v-628q0 -85 17 -105.5t84 -20.5z" />
    <glyph glyph-name="m" unicode="m" horiz-adv-x="844" 
d="M590 571q-70 0 -113 -48t-43 -145v-378h-24v376q0 106 -31 150.5t-115 44.5q-69 0 -112 -40t-43 -110v-421h-24v581h22l4 -72q46 84 157 84q136 0 158 -120q14 56 59.5 88t107.5 32q98 0 133.5 -51t35.5 -156v-386h-24v386q0 99 -32 142t-116 43z" />
    <glyph glyph-name="n" unicode="n" horiz-adv-x="509" 
d="M85 581h22l4 -72q45 84 154 84q98 0 133.5 -51t35.5 -156v-386h-24v386q0 99 -32 142t-116 43q-68 0 -110.5 -40t-42.5 -110v-421h-24v581z" />
    <glyph glyph-name="o" unicode="o" horiz-adv-x="480" 
d="M89 374v-167q0 -114 32 -155.5t119 -41.5t119 41.5t32 155.5v167q0 114 -32 155.5t-119 41.5t-119 -41.5t-32 -155.5zM65 204v173q0 124 40 170t135 46t135 -46t40 -170v-173q0 -124 -40.5 -170t-135.5 -46t-134.5 46t-39.5 170z" />
    <glyph glyph-name="p" unicode="p" 
d="M434 375v-171q0 -216 -172 -216q-58 0 -97.5 23t-55.5 62l-1 -266h-24l1 774h22l4 -71q44 83 153 83q170 0 170 -218zM410 207v170q0 97 -35.5 145.5t-112.5 48.5q-68 0 -110.5 -40t-42.5 -110v-242q0 -169 153 -169q73 0 110.5 45.5t37.5 151.5z" />
    <glyph glyph-name="q" unicode="q" horiz-adv-x="489" 
d="M413 -193h-24l1 265q-48 -84 -156 -84q-169 0 -169 218v171q0 216 176 216q54 0 92.5 -23t56.5 -63v74h24zM89 374v-170q0 -97 35.5 -145.5t112.5 -48.5q68 0 110.5 40t42.5 110v242q0 89 -41 129t-108 40q-152 0 -152 -197z" />
    <glyph glyph-name="r" unicode="r" horiz-adv-x="308" 
d="M85 581h22l4 -78q18 38 56.5 64t90.5 26q16 0 30 -2v-24q-16 2 -30 2q-66 0 -107.5 -42t-41.5 -114v-413h-24v581z" />
    <glyph glyph-name="s" unicode="s" horiz-adv-x="450" 
d="M208 297q-36 8 -57.5 15.5t-44.5 24t-33.5 44t-10.5 68.5q0 65 40 104.5t123 39.5q166 0 166 -146h-24q-2 63 -34.5 93.5t-106.5 30.5q-141 0 -141 -121q0 -65 31 -90.5t101 -40.5q36 -8 54.5 -12.5t47 -17t43 -28.5t25.5 -43.5t11 -64.5q0 -78 -43.5 -121.5
t-132.5 -43.5t-132.5 38t-43.5 122h23q-1 -66 34.5 -102t117.5 -36q153 0 153 142q0 39 -12 65t-38.5 41.5t-50 23t-65.5 15.5z" />
    <glyph glyph-name="t" unicode="t" horiz-adv-x="301" 
d="M256 17l-1 -22q-26 -7 -55 -7q-70 0 -98 36t-28 117v573h24v-139h157v-23h-157v-410q0 -77 23.5 -104t80.5 -27q24 0 54 6z" />
    <glyph glyph-name="u" unicode="u" horiz-adv-x="505" 
d="M420 0h-22l-4 71q-46 -83 -153 -83q-97 0 -131.5 50.5t-34.5 156.5v386h24v-386q0 -99 31 -142t115 -43q68 0 109.5 39.5t41.5 110.5v421h24v-581z" />
    <glyph glyph-name="v" unicode="v" horiz-adv-x="431" 
d="M20 581h27l168 -555l170 555h26l-180 -581h-32z" />
    <glyph glyph-name="w" unicode="w" horiz-adv-x="668" 
d="M320 581h29l137 -555l132 555h25l-140 -581h-33l-136 538l-136 -538h-33l-140 581h26l131 -553z" />
    <glyph glyph-name="x" unicode="x" horiz-adv-x="400" 
d="M351 0l-151 282l-154 -282h-26l166 301l-151 280h28l139 -260l143 260h26l-154 -281l162 -300h-28z" />
    <glyph glyph-name="y" unicode="y" horiz-adv-x="431" 
d="M207 -43l7 27l-194 597h26l182 -562l159 562h26l-182 -626q-26 -91 -57 -124.5t-82 -33.5q-26 0 -46 9v23q21 -9 45 -9q45 0 69.5 29t46.5 108z" />
    <glyph glyph-name="z" unicode="z" horiz-adv-x="416" 
d="M374 560l-317 -538h324v-22h-351v21l315 538h-297v22h326v-21z" />
    <glyph glyph-name="braceleft" unicode="{" horiz-adv-x="352" 
d="M173 649v-170q0 -106 -50 -128q50 -22 50 -127v-170q-1 -91 17 -124t86 -33q16 0 30 2v-22q-12 -2 -30 -2q-77 0 -102.5 37.5t-24.5 136.5v175q0 28 -2 44.5t-8.5 35t-23 27.5t-43.5 9h-27v23h27q27 0 43.5 9t23 27.5t8.5 35t2 44.5v175q0 99 25.5 136.5t102.5 37.5
q18 0 30 -2v-22q-14 2 -30 2q-68 0 -86 -33t-18 -124z" />
    <glyph glyph-name="bar" unicode="|" horiz-adv-x="213" 
d="M118 826l-1 -949h-23l1 949h23z" />
    <glyph glyph-name="braceright" unicode="}" horiz-adv-x="352" 
d="M179 54v170q0 104 49 127q-49 23 -49 128v170q0 91 -18 124t-86 33q-16 0 -30 -2v22q12 2 30 2q77 0 102.5 -37.5t25.5 -136.5v-175q0 -28 2 -44.5t8.5 -35t23 -27.5t43.5 -9h27v-23h-27q-27 0 -43.5 -9t-23 -27.5t-8.5 -35t-2 -44.5v-175q-1 -99 -26.5 -136.5
t-102.5 -37.5q-18 0 -30 2v22q14 -2 30 -2q68 0 86 33t19 124z" />
    <glyph glyph-name="asciitilde" unicode="~" horiz-adv-x="544" 
d="M382 314q-30 0 -61 15.5t-53 34t-51 34t-56 15.5q-32 0 -51.5 -27.5t-21.5 -67.5h-23q4 56 31.5 87t65.5 31q30 0 61 -15.5t52.5 -34t50.5 -34t57 -15.5q32 0 51.5 27.5t21.5 67.5h23q-4 -56 -31.5 -87t-65.5 -31z" />
    <glyph glyph-name="exclamdown" unicode="&#xa1;" horiz-adv-x="185" 
d="M79 -193l4 566h19l2 -566h-25zM80 531v38h25v-38h-25z" />
    <glyph glyph-name="cent" unicode="&#xa2;" horiz-adv-x="550" 
d="M291 -104h-25v92q-86 2 -123.5 50.5t-37.5 166.5v174q0 114 39 162t123 51v93h25v-92q81 -3 115.5 -43t34.5 -119v-4h-23v4q0 68 -30.5 104t-108.5 36q-85 0 -118 -43.5t-33 -148.5v-171q0 -105 31.5 -151.5t116.5 -46.5q81 0 113 38t32 108v5h23v-5q0 -81 -36.5 -122
t-117.5 -45v-93z" />
    <glyph glyph-name="sterling" unicode="&#xa3;" horiz-adv-x="550" 
d="M176 546v-165h235v-23h-235v-335h342v-23h-470v23h105v335h-103v23h103v165q0 126 45 177t136 51q74 0 121 -39.5t47 -126.5v-5h-23v5q0 73 -39 108t-106 35q-79 0 -118.5 -44t-39.5 -161z" />
    <glyph glyph-name="currency" unicode="&#xa4;" horiz-adv-x="450" 
d="M422 127l-17 -15l-62 64q-36 -35 -118 -35t-118 35l-62 -64l-17 15l64 67q-28 44 -28 130v10q0 86 28 130l-64 68l17 15l62 -65q36 36 118 36t118 -36l62 65l17 -15l-65 -68q29 -43 29 -130v-10q0 -87 -29 -130zM88 332v-5q0 -94 31.5 -129.5t105.5 -35.5t105.5 35.5
t31.5 129.5v5q0 94 -31.5 129.5t-105.5 35.5t-105.5 -35.5t-31.5 -129.5z" />
    <glyph glyph-name="yen" unicode="&#xa5;" horiz-adv-x="550" 
d="M473 228v-21h-185v-207h-25v207h-185v21h185v127h-185v21h174l-190 386h29l185 -381l186 381h27l-191 -386h175v-21h-185v-127h185z" />
    <glyph glyph-name="brokenbar" unicode="&#xa6;" horiz-adv-x="213" 
d="M95 252h23l-1 -375h-23zM118 451h-23v375h23v-375z" />
    <glyph glyph-name="section" unicode="&#xa7;" horiz-adv-x="492" 
d="M225 257q-37 8 -58.5 15.5t-45.5 23.5t-35 44t-11 69q0 91 91 141q-83 32 -83 134q0 65 40 104.5t123 39.5q166 0 166 -146h-24q-2 63 -34.5 93.5t-106.5 30.5q-141 0 -141 -121q0 -66 32 -91t104 -40q37 -8 55.5 -12.5t47.5 -17t43 -28.5t25.5 -43.5t11.5 -64.5
q0 -43 -21 -81t-65 -59q78 -37 78 -135q0 -78 -43.5 -121.5t-132.5 -43.5t-133 37.5t-43 122.5h23q-1 -66 34 -102t117 -36q154 0 154 142q0 39 -12 65t-39 41.5t-51 23t-66 15.5zM401 387q0 39 -12 65t-39 41.5t-51 23t-66 15.5q-30 6 -44 10q-91 -50 -91 -132
q0 -66 32 -91t104 -40q56 -12 81 -21q86 38 86 129z" />
    <glyph glyph-name="dieresis" unicode="&#xa8;" horiz-adv-x="500" 
d="M161 690v37h31v-37h-31zM308 690v37h31v-37h-31z" />
    <glyph glyph-name="copyright" unicode="&#xa9;" horiz-adv-x="760" 
d="M263 288v116q0 77 26.5 105.5t85.5 28.5q100 0 103 -97h-20q-4 39 -21 57.5t-62 18.5q-54 0 -72 -24.5t-18 -90.5v-112q0 -66 18 -90.5t72 -24.5q45 0 62 20.5t21 65.5h20q-2 -55 -26 -81t-77 -26q-59 0 -85.5 28.5t-26.5 105.5zM380 9q88 0 145 17.5t91.5 58.5t49 101
t15.5 152v9q0 186 -64 261.5t-237 75.5q-88 0 -145 -17.5t-91.5 -58.5t-49 -101t-15.5 -152v-9q0 -186 64 -261.5t237 -75.5zM379 -13q-177 0 -250.5 79.5t-73.5 279.5v9q1 195 75.5 273t249.5 78q177 0 251 -79.5t74 -279.5v-9q-1 -195 -75.5 -273t-250.5 -78z" />
    <glyph glyph-name="ordfeminine" unicode="&#xaa;" horiz-adv-x="374" 
d="M189 774q60 0 88.5 -30.5t28.5 -98.5v-293h-20v64q-14 -33 -45.5 -53t-73.5 -20q-53 0 -83 28.5t-30 86.5q0 60 37 88.5t116 28.5q32 0 78 -6v76q0 56 -22.5 82t-72.5 26q-52 0 -77.5 -25t-24.5 -80h-20q0 63 29 94.5t92 31.5zM285 483v66q-38 8 -82 8q-68 0 -97 -24.5
t-29 -74.5q0 -95 93 -95q49 0 82 31.5t33 88.5zM314 271v-19h-254v19h254z" />
    <glyph glyph-name="guillemotleft" unicode="&#xab;" horiz-adv-x="438" 
d="M55 318l137 218h28l-136 -218l136 -220h-28zM189 318l137 218h27l-136 -218l136 -220h-27z" />
    <glyph glyph-name="logicalnot" unicode="&#xac;" horiz-adv-x="450" 
d="M399 429v-156h-24v133h-324v23h348z" />
    <glyph glyph-name="uni00AD" unicode="&#xad;" horiz-adv-x="369" 
d="M301 319v-22h-233v22h233z" />
    <glyph glyph-name="registered" unicode="&#xae;" horiz-adv-x="760" 
d="M383 333h-69v-178h-22v383h87q46 0 72 -22t26 -76v-8q0 -83 -58 -96l67 -181h-25l-65 178h-13zM368 518h-54v-165h60q48 0 64.5 16t16.5 62v7q0 50 -20.5 65t-66.5 15zM380 9q88 0 145 17.5t91.5 58.5t49 101t15.5 152v9q0 186 -64 261.5t-237 75.5q-88 0 -145 -17.5
t-91.5 -58.5t-49 -101t-15.5 -152v-9q0 -186 64 -261.5t237 -75.5zM379 -13q-177 0 -250.5 79.5t-73.5 279.5v9q1 195 75.5 273t249.5 78q177 0 251 -79.5t74 -279.5v-9q-1 -195 -75.5 -273t-250.5 -78z" />
    <glyph glyph-name="macron" unicode="&#xaf;" horiz-adv-x="500" 
d="M140 714h220v-24h-220v24z" />
    <glyph glyph-name="degree" unicode="&#xb0;" horiz-adv-x="266" 
d="M133 584q40 0 63 23t23 59v6q-2 37 -24.5 59.5t-61.5 22.5q-40 0 -63 -23t-23 -59v-6q2 -37 24.5 -59.5t61.5 -22.5zM133 564q-49 0 -78.5 30.5t-29.5 71.5v6q0 43 28.5 72.5t79.5 29.5q49 0 78.5 -30.5t29.5 -71.5v-6q0 -43 -28.5 -72.5t-79.5 -29.5z" />
    <glyph glyph-name="plusminus" unicode="&#xb1;" horiz-adv-x="450" 
d="M399 399v-23h-162v-164h-24v164h-162v23h162v164h24v-164h162zM399 23v-23h-348v23h348z" />
    <glyph glyph-name="twosuperior" unicode="&#xb2;" horiz-adv-x="350" 
d="M98 442v-49h175v-21h-199v66q0 43 17.5 70t43 40t51 25t43 35t17.5 61q0 46 -20.5 65t-58.5 19q-75 0 -75 -85h-22q0 106 100 106t100 -104q0 -42 -17.5 -68.5t-43 -39.5t-51 -25t-43 -35.5t-17.5 -59.5z" />
    <glyph glyph-name="threesuperior" unicode="&#xb3;" horiz-adv-x="350" 
d="M280 678q0 -81 -69 -99q77 -17 77 -102q0 -52 -27 -81.5t-79 -29.5q-50 0 -78.5 26.5t-28.5 76.5h23q0 -36 22 -59t62 -23t61 24t21 64q0 92 -101 92h-28v22h39q42 0 62.5 25t20.5 61q0 78 -80 78q-77 0 -77 -80h-23q0 101 102 101q44 0 72.5 -24t28.5 -72z" />
    <glyph glyph-name="acute" unicode="&#xb4;" horiz-adv-x="500" 
d="M262 650h-27l89 133h32z" />
    <glyph glyph-name="mu" unicode="&#xb5;" horiz-adv-x="485" 
d="M235 -12q-111 0 -146 85l-1 -266h-24l1 774h24v-402q0 -89 41 -129t109 -40q65 0 106 40t41 110v421h24v-581h-22l-4 71q-46 -83 -149 -83z" />
    <glyph glyph-name="paragraph" unicode="&#xb6;" horiz-adv-x="627" 
d="M302 -124l1 414h-45q-110 0 -146.5 50.5t-36.5 158.5t36.5 158.5t146.5 50.5h69l-1 -832h-24zM502 708l-1 -832h-24l1 832h24z" />
    <glyph glyph-name="periodcentered" unicode="&#xb7;" horiz-adv-x="180" 
d="M106 323v-43h-33v43h33z" />
    <glyph glyph-name="cedilla" unicode="&#xb8;" horiz-adv-x="294" 
d="M70 -215l-1 22q27 -9 73 -9q73 0 73 70q0 37 -19.5 53t-72.5 17l10 62h20l-8 -43q94 -5 94 -89q0 -45 -26 -68t-72 -23q-50 0 -71 8z" />
    <glyph glyph-name="onesuperior" unicode="&#xb9;" horiz-adv-x="350" 
d="M87 387h85v350l-87 -41v24l91 42h21v-375h78v-21h-188v21z" />
    <glyph glyph-name="ordmasculine" unicode="&#xba;" horiz-adv-x="369" 
d="M79 618v-118q0 -79 22.5 -108t82.5 -29q61 0 83 29t22 108v117q0 79 -22 108t-83 29q-60 0 -82.5 -28.5t-22.5 -107.5zM58 498v122q0 88 29 121t97 33q69 0 98 -33t29 -121v-122q0 -88 -29 -121.5t-98 -33.5q-68 0 -97 33.5t-29 121.5zM309 271v-19h-249v19h249z" />
    <glyph glyph-name="guillemotright" unicode="&#xbb;" horiz-adv-x="438" 
d="M383 316l-137 -218h-28l136 218l-136 220h28zM249 316l-137 -218h-27l136 218l-136 220h27z" />
    <glyph glyph-name="onequarter" unicode="&#xbc;" horiz-adv-x="696" 
d="M599 127h44v-22h-44v-105h-25v105h-168v21l162 270h31v-269zM431 127h143v237zM87 387h85v350l-87 -41v24l91 42h21v-375h78v-21h-188v21zM603 762h27l-458 -762h-27z" />
    <glyph glyph-name="onehalf" unicode="&#xbd;" horiz-adv-x="696" 
d="M87 387h85v350l-87 -41v24l91 42h21v-375h78v-21h-188v21zM578 762h27l-458 -762h-27zM443 70v-49h175v-21h-199v66q0 43 17.5 70t43 40t51 25t43 35t17.5 61q0 46 -20.5 65t-58.5 19q-75 0 -75 -85h-22q0 106 100 106t100 -104q0 -42 -17.5 -68.5t-43 -39.5t-51 -25
t-43 -35.5t-17.5 -59.5z" />
    <glyph glyph-name="threequarters" unicode="&#xbe;" horiz-adv-x="696" 
d="M599 127h44v-22h-44v-105h-25v105h-168v21l162 270h31v-269zM431 127h143v237zM607 762h27l-458 -762h-27zM290 678q0 -81 -69 -99q77 -17 77 -102q0 -52 -27 -81.5t-79 -29.5q-50 0 -78.5 26.5t-28.5 76.5h23q0 -36 22 -59t62 -23t61 24t21 64q0 92 -101 92h-28v22h39
q42 0 62.5 25t20.5 61q0 78 -80 78q-77 0 -77 -80h-23q0 101 102 101q44 0 72.5 -24t28.5 -72z" />
    <glyph glyph-name="questiondown" unicode="&#xbf;" horiz-adv-x="452" 
d="M236 531v38h25v-38h-25zM235 344v30h25v-27q0 -52 -11.5 -89t-29.5 -57t-40 -34.5t-43.5 -28t-40 -31t-30 -49t-11.5 -77.5q0 -94 45.5 -128.5t127.5 -34.5t123 48t41 126h25q0 -104 -55 -150.5t-137 -46.5q-195 0 -195 185q0 50 11.5 84.5t30 53.5t40 32.5t43.5 27
t40 32t29.5 52t11.5 82.5z" />
    <glyph glyph-name="Agrave" unicode="&#xc0;" horiz-adv-x="538" 
d="M485 0l-74 251h-287l-74 -251h-25l228 762h32l228 -762h-28zM268 736l-137 -463h273zM280 825h-27l-94 133h32z" />
    <glyph glyph-name="Aacute" unicode="&#xc1;" horiz-adv-x="538" 
d="M485 0l-74 251h-287l-74 -251h-25l228 762h32l228 -762h-28zM268 736l-137 -463h273zM281 825h-27l89 133h32z" />
    <glyph glyph-name="Acircumflex" unicode="&#xc2;" horiz-adv-x="538" 
d="M485 0l-74 251h-287l-74 -251h-25l228 762h32l228 -762h-28zM268 736l-137 -463h273zM139 825l119 112h22l119 -112h-32l-98 91l-98 -91h-32z" />
    <glyph glyph-name="Atilde" unicode="&#xc3;" horiz-adv-x="538" 
d="M485 0l-74 251h-287l-74 -251h-25l228 762h32l228 -762h-28zM268 736l-137 -463h273zM160 830h-24q19 74 70 74q26 0 65 -25q42 -28 64 -28q31 0 46 53h24q-19 -74 -70 -74q-26 0 -65 25q-42 28 -64 28q-31 0 -46 -53z" />
    <glyph glyph-name="Adieresis" unicode="&#xc4;" horiz-adv-x="538" 
d="M485 0l-74 251h-287l-74 -251h-25l228 762h32l228 -762h-28zM268 736l-137 -463h273zM176 865v37h31v-37h-31zM323 865v37h31v-37h-31z" />
    <glyph glyph-name="Aring" unicode="&#xc5;" horiz-adv-x="538" 
d="M485 0l-74 251h-287l-74 -251h-25l228 762h32l228 -762h-28zM268 736l-137 -463h273zM269 842q37 0 52 16t15 50t-15 50t-52 16t-52 -16t-15 -50t15 -50t52 -16zM269 818q-92 0 -92 90t92 90t92 -90t-92 -90z" />
    <glyph glyph-name="AE" unicode="&#xc6;" horiz-adv-x="811" 
d="M407 762h349v-23h-314v-331h280v-23h-280v-362h324v-23h-349v251h-254l-131 -251h-27zM175 273h242v460z" />
    <glyph glyph-name="Ccedilla" unicode="&#xc7;" horiz-adv-x="519" 
d="M465 577v-5h-23v5q0 88 -38.5 131t-123.5 43q-49 0 -83 -12.5t-52.5 -32t-29 -53t-13 -64.5t-2.5 -78v-256q0 -42 1.5 -68.5t7 -58t17.5 -50t31.5 -35.5t50 -24.5t72.5 -7.5q92 0 125.5 40.5t39.5 136.5v5h23v-5q-4 -104 -44.5 -152t-144.5 -48q-64 0 -105.5 16.5
t-62.5 53.5t-28.5 81.5t-7.5 114.5v250q0 142 41.5 206t163.5 64q98 0 141.5 -48.5t43.5 -148.5zM195 -215l-1 22q27 -9 73 -9q73 0 73 70q0 37 -19.5 53t-72.5 17l10 62h20l-8 -43q94 -5 94 -89q0 -45 -26 -68t-72 -23q-50 0 -71 8z" />
    <glyph glyph-name="Egrave" unicode="&#xc8;" horiz-adv-x="494" 
d="M90 762h339v-23h-314v-331h280v-23h-280v-362h324v-23h-349v762zM266 825h-27l-94 133h32z" />
    <glyph glyph-name="Eacute" unicode="&#xc9;" horiz-adv-x="494" 
d="M90 762h339v-23h-314v-331h280v-23h-280v-362h324v-23h-349v762zM267 825h-27l89 133h32z" />
    <glyph glyph-name="Ecircumflex" unicode="&#xca;" horiz-adv-x="494" 
d="M90 762h339v-23h-314v-331h280v-23h-280v-362h324v-23h-349v762zM125 825l119 112h22l119 -112h-32l-98 91l-98 -91h-32z" />
    <glyph glyph-name="Edieresis" unicode="&#xcb;" horiz-adv-x="494" 
d="M90 762h339v-23h-314v-331h280v-23h-280v-362h324v-23h-349v762zM166 865v37h31v-37h-31zM313 865v37h31v-37h-31z" />
    <glyph glyph-name="Igrave" unicode="&#xcc;" horiz-adv-x="205" 
d="M115 762v-762h-25v762h25zM113 825h-27l-94 133h32z" />
    <glyph glyph-name="Iacute" unicode="&#xcd;" horiz-adv-x="205" 
d="M115 762v-762h-25v762h25zM114 825h-27l89 133h32z" />
    <glyph glyph-name="Icircumflex" unicode="&#xce;" horiz-adv-x="205" 
d="M115 762v-762h-25v762h25zM-28 825l119 112h22l119 -112h-32l-98 91l-98 -91h-32z" />
    <glyph glyph-name="Idieresis" unicode="&#xcf;" horiz-adv-x="205" 
d="M115 762v-762h-25v762h25zM13 865v37h31v-37h-31zM160 865v37h31v-37h-31z" />
    <glyph glyph-name="Eth" unicode="&#xd0;" horiz-adv-x="570" 
d="M102 0v370h-87v22h87v370h169q131 0 177.5 -62t46.5 -210v-226q0 -142 -48 -203t-179 -61h-166zM470 266v219q0 71 -7.5 115t-29.5 78t-62.5 48t-105.5 14h-138v-348h151v-22h-151v-348h141q122 0 162 57t40 187z" />
    <glyph glyph-name="Ntilde" unicode="&#xd1;" horiz-adv-x="564" 
d="M86 762h34l334 -725v725h24v-762h-31l-337 727v-727h-24v762zM173 830h-24q19 74 70 74q26 0 65 -25q42 -28 64 -28q31 0 46 53h24q-19 -74 -70 -74q-26 0 -65 25q-42 28 -64 28q-31 0 -46 -53z" />
    <glyph glyph-name="Ograve" unicode="&#xd2;" horiz-adv-x="578" 
d="M75 249v264q0 140 44.5 200.5t169.5 60.5t169.5 -60.5t44.5 -200.5v-264q0 -140 -45 -200.5t-170 -60.5t-169 60.5t-44 200.5zM478 253v256q0 64 -6.5 104t-25.5 74t-57.5 49t-99.5 15q-62 0 -100.5 -15t-57.5 -49.5t-25 -73.5t-6 -104v-256q0 -64 6.5 -104t25.5 -74
t57.5 -49t99.5 -15q62 0 100.5 15t57.5 49.5t25 73.5t6 104zM300 825h-27l-94 133h32z" />
    <glyph glyph-name="Oacute" unicode="&#xd3;" horiz-adv-x="578" 
d="M75 249v264q0 140 44.5 200.5t169.5 60.5t169.5 -60.5t44.5 -200.5v-264q0 -140 -45 -200.5t-170 -60.5t-169 60.5t-44 200.5zM478 253v256q0 64 -6.5 104t-25.5 74t-57.5 49t-99.5 15q-62 0 -100.5 -15t-57.5 -49.5t-25 -73.5t-6 -104v-256q0 -64 6.5 -104t25.5 -74
t57.5 -49t99.5 -15q62 0 100.5 15t57.5 49.5t25 73.5t6 104zM301 825h-27l89 133h32z" />
    <glyph glyph-name="Ocircumflex" unicode="&#xd4;" horiz-adv-x="578" 
d="M75 249v264q0 140 44.5 200.5t169.5 60.5t169.5 -60.5t44.5 -200.5v-264q0 -140 -45 -200.5t-170 -60.5t-169 60.5t-44 200.5zM478 253v256q0 64 -6.5 104t-25.5 74t-57.5 49t-99.5 15q-62 0 -100.5 -15t-57.5 -49.5t-25 -73.5t-6 -104v-256q0 -64 6.5 -104t25.5 -74
t57.5 -49t99.5 -15q62 0 100.5 15t57.5 49.5t25 73.5t6 104zM159 825l119 112h22l119 -112h-32l-98 91l-98 -91h-32z" />
    <glyph glyph-name="Otilde" unicode="&#xd5;" horiz-adv-x="578" 
d="M75 249v264q0 140 44.5 200.5t169.5 60.5t169.5 -60.5t44.5 -200.5v-264q0 -140 -45 -200.5t-170 -60.5t-169 60.5t-44 200.5zM478 253v256q0 64 -6.5 104t-25.5 74t-57.5 49t-99.5 15q-62 0 -100.5 -15t-57.5 -49.5t-25 -73.5t-6 -104v-256q0 -64 6.5 -104t25.5 -74
t57.5 -49t99.5 -15q62 0 100.5 15t57.5 49.5t25 73.5t6 104zM180 830h-24q19 74 70 74q26 0 65 -25q42 -28 64 -28q31 0 46 53h24q-19 -74 -70 -74q-26 0 -65 25q-42 28 -64 28q-31 0 -46 -53z" />
    <glyph glyph-name="Odieresis" unicode="&#xd6;" horiz-adv-x="578" 
d="M75 249v264q0 140 44.5 200.5t169.5 60.5t169.5 -60.5t44.5 -200.5v-264q0 -140 -45 -200.5t-170 -60.5t-169 60.5t-44 200.5zM478 253v256q0 64 -6.5 104t-25.5 74t-57.5 49t-99.5 15q-62 0 -100.5 -15t-57.5 -49.5t-25 -73.5t-6 -104v-256q0 -64 6.5 -104t25.5 -74
t57.5 -49t99.5 -15q62 0 100.5 15t57.5 49.5t25 73.5t6 104zM200 865v37h31v-37h-31zM347 865v37h31v-37h-31z" />
    <glyph glyph-name="multiply" unicode="&#xd7;" horiz-adv-x="450" 
d="M241 384l114 -114l-16 -17l-116 115l-117 -118l-14 19l116 115l-115 116l15 16l116 -116l116 117l18 -17z" />
    <glyph glyph-name="Oslash" unicode="&#xd8;" horiz-adv-x="547" 
d="M59 249v264q0 140 44.5 200.5t169.5 60.5q101 0 151 -42l46 99h24l-54 -115q47 -56 47 -203v-264q0 -140 -45 -200.5t-170 -60.5q-103 0 -150 41l-47 -98h-24l54 115q-46 57 -46 203zM84 509v-256q0 -131 33 -181l296 636q-43 43 -140 43q-62 0 -100.5 -15t-57.5 -49.5
t-25 -73.5t-6 -104zM462 253v256q0 130 -34 181l-295 -637q44 -42 140 -42q62 0 100.5 15t57.5 49.5t25 73.5t6 104z" />
    <glyph glyph-name="Ugrave" unicode="&#xd9;" horiz-adv-x="567" 
d="M463 762h25v-502q0 -72 -7 -117t-28 -83t-62.5 -55t-107.5 -17q-54 0 -91 12t-59.5 32.5t-34.5 57t-15.5 74.5t-3.5 96v502h25v-504q0 -52 3 -85.5t13 -67.5t29.5 -52.5t52.5 -30t82 -11.5t82 11.5t52 30t29.5 52.5t13 67t2.5 86v504zM294 825h-27l-94 133h32z" />
    <glyph glyph-name="Uacute" unicode="&#xda;" horiz-adv-x="567" 
d="M463 762h25v-502q0 -72 -7 -117t-28 -83t-62.5 -55t-107.5 -17q-54 0 -91 12t-59.5 32.5t-34.5 57t-15.5 74.5t-3.5 96v502h25v-504q0 -52 3 -85.5t13 -67.5t29.5 -52.5t52.5 -30t82 -11.5t82 11.5t52 30t29.5 52.5t13 67t2.5 86v504zM295 825h-27l89 133h32z" />
    <glyph glyph-name="Ucircumflex" unicode="&#xdb;" horiz-adv-x="567" 
d="M463 762h25v-502q0 -72 -7 -117t-28 -83t-62.5 -55t-107.5 -17q-54 0 -91 12t-59.5 32.5t-34.5 57t-15.5 74.5t-3.5 96v502h25v-504q0 -52 3 -85.5t13 -67.5t29.5 -52.5t52.5 -30t82 -11.5t82 11.5t52 30t29.5 52.5t13 67t2.5 86v504zM153 825l119 112h22l119 -112h-32
l-98 91l-98 -91h-32z" />
    <glyph glyph-name="Udieresis" unicode="&#xdc;" horiz-adv-x="567" 
d="M463 762h25v-502q0 -72 -7 -117t-28 -83t-62.5 -55t-107.5 -17q-54 0 -91 12t-59.5 32.5t-34.5 57t-15.5 74.5t-3.5 96v502h25v-504q0 -52 3 -85.5t13 -67.5t29.5 -52.5t52.5 -30t82 -11.5t82 11.5t52 30t29.5 52.5t13 67t2.5 86v504zM194 865v37h31v-37h-31zM341 865v37
h31v-37h-31z" />
    <glyph glyph-name="Yacute" unicode="&#xdd;" horiz-adv-x="507" 
d="M10 762h29l215 -395l216 395h27l-231 -420v-342h-25v342zM265 825h-27l89 133h32z" />
    <glyph glyph-name="Thorn" unicode="&#xde;" horiz-adv-x="475" 
d="M111 762v-161h134q95 0 145 -38t50 -145v-54q0 -106 -43.5 -145t-144.5 -39h-141v-180h-25v762h25zM242 578h-131v-375h144q93 0 126.5 35t33.5 129v44q0 101 -41.5 134t-131.5 33z" />
    <glyph glyph-name="germandbls" unicode="&#xdf;" horiz-adv-x="482" 
d="M250 0h-62v22h65q82 0 123.5 45.5t41.5 125.5q0 106 -52 149t-147 43h-30v27h29q86 0 125.5 51t39.5 126q0 89 -37 127.5t-107 38.5q-73 0 -106.5 -46t-33.5 -138v-571h-24v572q0 205 165 205q168 0 168 -184q0 -157 -126 -192q160 -20 160 -203q0 -95 -48 -146t-144 -52
z" />
    <glyph glyph-name="agrave" unicode="&#xe0;" horiz-adv-x="486" 
d="M388 303v111q0 82 -32.5 119.5t-105.5 37.5q-72 0 -108.5 -34.5t-36.5 -118.5h-23q0 88 40.5 131.5t127.5 43.5q83 0 122.5 -42.5t39.5 -138.5v-412h-22l-1 92q-19 -47 -64.5 -75.5t-104.5 -28.5q-157 0 -157 160q0 84 51.5 124t162.5 40q53 0 111 -9zM388 184v96
q-58 10 -119 10q-97 0 -138.5 -35.5t-41.5 -107.5q0 -136 133 -136q71 0 118.5 45t47.5 128zM260 670h-27l-94 133h32z" />
    <glyph glyph-name="aacute" unicode="&#xe1;" horiz-adv-x="486" 
d="M388 303v111q0 82 -32.5 119.5t-105.5 37.5q-72 0 -108.5 -34.5t-36.5 -118.5h-23q0 88 40.5 131.5t127.5 43.5q83 0 122.5 -42.5t39.5 -138.5v-412h-22l-1 92q-19 -47 -64.5 -75.5t-104.5 -28.5q-157 0 -157 160q0 84 51.5 124t162.5 40q53 0 111 -9zM388 184v96
q-58 10 -119 10q-97 0 -138.5 -35.5t-41.5 -107.5q0 -136 133 -136q71 0 118.5 45t47.5 128zM261 670h-27l89 133h32z" />
    <glyph glyph-name="acircumflex" unicode="&#xe2;" horiz-adv-x="486" 
d="M388 303v111q0 82 -32.5 119.5t-105.5 37.5q-72 0 -108.5 -34.5t-36.5 -118.5h-23q0 88 40.5 131.5t127.5 43.5q83 0 122.5 -42.5t39.5 -138.5v-412h-22l-1 92q-19 -47 -64.5 -75.5t-104.5 -28.5q-157 0 -157 160q0 84 51.5 124t162.5 40q53 0 111 -9zM388 184v96
q-58 10 -119 10q-97 0 -138.5 -35.5t-41.5 -107.5q0 -136 133 -136q71 0 118.5 45t47.5 128zM119 670l119 112h22l119 -112h-32l-98 91l-98 -91h-32z" />
    <glyph glyph-name="atilde" unicode="&#xe3;" horiz-adv-x="486" 
d="M388 303v111q0 82 -32.5 119.5t-105.5 37.5q-72 0 -108.5 -34.5t-36.5 -118.5h-23q0 88 40.5 131.5t127.5 43.5q83 0 122.5 -42.5t39.5 -138.5v-412h-22l-1 92q-19 -47 -64.5 -75.5t-104.5 -28.5q-157 0 -157 160q0 84 51.5 124t162.5 40q53 0 111 -9zM388 184v96
q-58 10 -119 10q-97 0 -138.5 -35.5t-41.5 -107.5q0 -136 133 -136q71 0 118.5 45t47.5 128zM140 675h-24q19 74 70 74q26 0 65 -25q42 -28 64 -28q31 0 46 53h24q-19 -74 -70 -74q-26 0 -65 25q-42 28 -64 28q-31 0 -46 -53z" />
    <glyph glyph-name="adieresis" unicode="&#xe4;" horiz-adv-x="486" 
d="M388 303v111q0 82 -32.5 119.5t-105.5 37.5q-72 0 -108.5 -34.5t-36.5 -118.5h-23q0 88 40.5 131.5t127.5 43.5q83 0 122.5 -42.5t39.5 -138.5v-412h-22l-1 92q-19 -47 -64.5 -75.5t-104.5 -28.5q-157 0 -157 160q0 84 51.5 124t162.5 40q53 0 111 -9zM388 184v96
q-58 10 -119 10q-97 0 -138.5 -35.5t-41.5 -107.5q0 -136 133 -136q71 0 118.5 45t47.5 128zM160 710v37h31v-37h-31zM307 710v37h31v-37h-31z" />
    <glyph glyph-name="aring" unicode="&#xe5;" horiz-adv-x="486" 
d="M388 303v111q0 82 -32.5 119.5t-105.5 37.5q-72 0 -108.5 -34.5t-36.5 -118.5h-23q0 88 40.5 131.5t127.5 43.5q83 0 122.5 -42.5t39.5 -138.5v-412h-22l-1 92q-19 -47 -64.5 -75.5t-104.5 -28.5q-157 0 -157 160q0 84 51.5 124t162.5 40q53 0 111 -9zM388 184v96
q-58 10 -119 10q-97 0 -138.5 -35.5t-41.5 -107.5q0 -136 133 -136q71 0 118.5 45t47.5 128zM249 687q37 0 52 16t15 50t-15 50t-52 16t-52 -16t-15 -50t15 -50t52 -16zM249 663q-92 0 -92 90t92 90t92 -90t-92 -90z" />
    <glyph glyph-name="ae" unicode="&#xe6;" horiz-adv-x="771" 
d="M552 -12q-73 0 -113 28t-54 93q-18 -56 -63 -88.5t-112 -32.5q-157 0 -157 160q0 84 51.5 124t162.5 40q53 0 111 -9v111q0 82 -32.5 119.5t-105.5 37.5q-72 0 -108.5 -34.5t-36.5 -118.5h-23q0 88 40.5 131.5t127.5 43.5q63 0 100.5 -24.5t51.5 -83.5q28 108 158 108
q89 0 128.5 -50t39.5 -159v-90h-316v-90q0 -103 33.5 -148.5t116.5 -45.5q73 0 104.5 33t32.5 100h24q0 -155 -161 -155zM378 184v96q-58 10 -119 10q-97 0 -138.5 -35.5t-41.5 -107.5q0 -136 133 -136q71 0 118.5 45t47.5 128zM402 316h292v65q0 99 -31 144.5t-113 45.5
q-83 0 -115.5 -44.5t-32.5 -151.5v-59z" />
    <glyph glyph-name="ccedilla" unicode="&#xe7;" horiz-adv-x="460" 
d="M382 156v5h23v-5q0 -84 -40 -126t-129 -42q-91 0 -131 48t-40 169v174q0 119 42.5 166.5t133.5 47.5q87 0 124 -40.5t37 -121.5v-4h-23v4q0 68 -30.5 104t-108.5 36q-85 0 -118 -43.5t-33 -148.5v-171q0 -105 31.5 -151.5t116.5 -46.5q81 0 113 38t32 108zM159 -215
l-1 22q27 -9 73 -9q73 0 73 70q0 37 -19.5 53t-72.5 17l10 62h20l-8 -43q94 -5 94 -89q0 -45 -26 -68t-72 -23q-50 0 -71 8z" />
    <glyph glyph-name="egrave" unicode="&#xe8;" horiz-adv-x="468" 
d="M376 143h24q0 -155 -161 -155q-93 0 -133.5 48.5t-40.5 164.5v173q0 119 41.5 169t130.5 50t128.5 -50t39.5 -159v-90h-316v-90q0 -103 33.5 -148.5t116.5 -45.5q73 0 104.5 33t32.5 100zM89 316h292v65q0 99 -31 144.5t-113 45.5q-83 0 -115.5 -44.5t-32.5 -151.5v-59z
M246 670h-27l-94 133h32z" />
    <glyph glyph-name="eacute" unicode="&#xe9;" horiz-adv-x="468" 
d="M376 143h24q0 -155 -161 -155q-93 0 -133.5 48.5t-40.5 164.5v173q0 119 41.5 169t130.5 50t128.5 -50t39.5 -159v-90h-316v-90q0 -103 33.5 -148.5t116.5 -45.5q73 0 104.5 33t32.5 100zM89 316h292v65q0 99 -31 144.5t-113 45.5q-83 0 -115.5 -44.5t-32.5 -151.5v-59z
M247 670h-27l89 133h32z" />
    <glyph glyph-name="ecircumflex" unicode="&#xea;" horiz-adv-x="468" 
d="M376 143h24q0 -155 -161 -155q-93 0 -133.5 48.5t-40.5 164.5v173q0 119 41.5 169t130.5 50t128.5 -50t39.5 -159v-90h-316v-90q0 -103 33.5 -148.5t116.5 -45.5q73 0 104.5 33t32.5 100zM89 316h292v65q0 99 -31 144.5t-113 45.5q-83 0 -115.5 -44.5t-32.5 -151.5v-59z
M105 670l119 112h22l119 -112h-32l-98 91l-98 -91h-32z" />
    <glyph glyph-name="edieresis" unicode="&#xeb;" horiz-adv-x="468" 
d="M376 143h24q0 -155 -161 -155q-93 0 -133.5 48.5t-40.5 164.5v173q0 119 41.5 169t130.5 50t128.5 -50t39.5 -159v-90h-316v-90q0 -103 33.5 -148.5t116.5 -45.5q73 0 104.5 33t32.5 100zM89 316h292v65q0 99 -31 144.5t-113 45.5q-83 0 -115.5 -44.5t-32.5 -151.5v-59z
M146 710v37h31v-37h-31zM293 710v37h31v-37h-31z" />
    <glyph glyph-name="igrave" unicode="&#xec;" horiz-adv-x="194" 
d="M109 581v-581h-24v581h24zM108 670h-27l-94 133h32z" />
    <glyph glyph-name="iacute" unicode="&#xed;" horiz-adv-x="194" 
d="M109 581v-581h-24v581h24zM109 670h-27l89 133h32z" />
    <glyph glyph-name="icircumflex" unicode="&#xee;" horiz-adv-x="194" 
d="M109 581v-581h-24v581h24zM-33 670l119 112h22l119 -112h-32l-98 91l-98 -91h-32z" />
    <glyph glyph-name="idieresis" unicode="&#xef;" horiz-adv-x="194" 
d="M109 581v-581h-24v581h24zM8 710v37h31v-37h-31zM155 710v37h31v-37h-31z" />
    <glyph glyph-name="eth" unicode="&#xf0;" horiz-adv-x="454" 
d="M382 758l11 -18l-104 -57q115 -120 115 -324v-149q0 -120 -42 -171t-133 -51q-87 0 -130.5 47.5t-43.5 168.5v112q0 216 171 216q51 0 90 -21.5t58 -57.5q-17 127 -107 219l-116 -63l-10 18l111 60q-45 40 -102 69l11 19q65 -32 112 -76zM230 10q85 0 117.5 48.5
t32.5 149.5v133q0 169 -153 169q-73 0 -110.5 -45.5t-37.5 -151.5v-106q0 -111 35 -154t116 -43z" />
    <glyph glyph-name="ntilde" unicode="&#xf1;" horiz-adv-x="509" 
d="M85 581h22l4 -72q45 84 154 84q98 0 133.5 -51t35.5 -156v-386h-24v386q0 99 -32 142t-116 43q-68 0 -110.5 -40t-42.5 -110v-421h-24v581zM150 675h-24q19 74 70 74q26 0 65 -25q42 -28 64 -28q31 0 46 53h24q-19 -74 -70 -74q-26 0 -65 25q-42 28 -64 28q-31 0 -46 -53
z" />
    <glyph glyph-name="ograve" unicode="&#xf2;" horiz-adv-x="480" 
d="M89 374v-167q0 -114 32 -155.5t119 -41.5t119 41.5t32 155.5v167q0 114 -32 155.5t-119 41.5t-119 -41.5t-32 -155.5zM65 204v173q0 124 40 170t135 46t135 -46t40 -170v-173q0 -124 -40.5 -170t-135.5 -46t-134.5 46t-39.5 170zM251 670h-27l-94 133h32z" />
    <glyph glyph-name="oacute" unicode="&#xf3;" horiz-adv-x="480" 
d="M89 374v-167q0 -114 32 -155.5t119 -41.5t119 41.5t32 155.5v167q0 114 -32 155.5t-119 41.5t-119 -41.5t-32 -155.5zM65 204v173q0 124 40 170t135 46t135 -46t40 -170v-173q0 -124 -40.5 -170t-135.5 -46t-134.5 46t-39.5 170zM252 670h-27l89 133h32z" />
    <glyph glyph-name="ocircumflex" unicode="&#xf4;" horiz-adv-x="480" 
d="M89 374v-167q0 -114 32 -155.5t119 -41.5t119 41.5t32 155.5v167q0 114 -32 155.5t-119 41.5t-119 -41.5t-32 -155.5zM65 204v173q0 124 40 170t135 46t135 -46t40 -170v-173q0 -124 -40.5 -170t-135.5 -46t-134.5 46t-39.5 170zM110 670l119 112h22l119 -112h-32l-98 91
l-98 -91h-32z" />
    <glyph glyph-name="otilde" unicode="&#xf5;" horiz-adv-x="480" 
d="M89 374v-167q0 -114 32 -155.5t119 -41.5t119 41.5t32 155.5v167q0 114 -32 155.5t-119 41.5t-119 -41.5t-32 -155.5zM65 204v173q0 124 40 170t135 46t135 -46t40 -170v-173q0 -124 -40.5 -170t-135.5 -46t-134.5 46t-39.5 170zM131 675h-24q19 74 70 74q26 0 65 -25
q42 -28 64 -28q31 0 46 53h24q-19 -74 -70 -74q-26 0 -65 25q-42 28 -64 28q-31 0 -46 -53z" />
    <glyph glyph-name="odieresis" unicode="&#xf6;" horiz-adv-x="480" 
d="M89 374v-167q0 -114 32 -155.5t119 -41.5t119 41.5t32 155.5v167q0 114 -32 155.5t-119 41.5t-119 -41.5t-32 -155.5zM65 204v173q0 124 40 170t135 46t135 -46t40 -170v-173q0 -124 -40.5 -170t-135.5 -46t-134.5 46t-39.5 170zM151 710v37h31v-37h-31zM298 710v37h31
v-37h-31z" />
    <glyph glyph-name="divide" unicode="&#xf7;" horiz-adv-x="450" 
d="M211 254h28v-32h-28v32zM239 521h-28v32h28v-32zM51 399h348v-23h-348v23z" />
    <glyph glyph-name="oslash" unicode="&#xf8;" horiz-adv-x="480" 
d="M65 204v173q0 124 40 170t135 46q69 0 108 -23l34 76h24l-40 -90q49 -46 49 -179v-173q0 -124 -40.5 -170t-135.5 -46q-73 0 -112 26l-37 -83h-24l44 97q-45 46 -45 176zM391 207v167q0 117 -35 159l-219 -498q32 -25 103 -25q87 0 119 41.5t32 155.5zM89 374v-167
q0 -113 31 -155l219 496q-33 23 -99 23q-87 0 -119 -41.5t-32 -155.5z" />
    <glyph glyph-name="ugrave" unicode="&#xf9;" horiz-adv-x="505" 
d="M420 0h-22l-4 71q-46 -83 -153 -83q-97 0 -131.5 50.5t-34.5 156.5v386h24v-386q0 -99 31 -142t115 -43q68 0 109.5 39.5t41.5 110.5v421h24v-581zM258 670h-27l-94 133h32z" />
    <glyph glyph-name="uacute" unicode="&#xfa;" horiz-adv-x="505" 
d="M420 0h-22l-4 71q-46 -83 -153 -83q-97 0 -131.5 50.5t-34.5 156.5v386h24v-386q0 -99 31 -142t115 -43q68 0 109.5 39.5t41.5 110.5v421h24v-581zM259 670h-27l89 133h32z" />
    <glyph glyph-name="ucircumflex" unicode="&#xfb;" horiz-adv-x="505" 
d="M420 0h-22l-4 71q-46 -83 -153 -83q-97 0 -131.5 50.5t-34.5 156.5v386h24v-386q0 -99 31 -142t115 -43q68 0 109.5 39.5t41.5 110.5v421h24v-581zM117 670l119 112h22l119 -112h-32l-98 91l-98 -91h-32z" />
    <glyph glyph-name="udieresis" unicode="&#xfc;" horiz-adv-x="505" 
d="M420 0h-22l-4 71q-46 -83 -153 -83q-97 0 -131.5 50.5t-34.5 156.5v386h24v-386q0 -99 31 -142t115 -43q68 0 109.5 39.5t41.5 110.5v421h24v-581zM158 710v37h31v-37h-31zM305 710v37h31v-37h-31z" />
    <glyph glyph-name="yacute" unicode="&#xfd;" horiz-adv-x="431" 
d="M207 -43l7 27l-194 597h26l182 -562l159 562h26l-182 -626q-26 -91 -57 -124.5t-82 -33.5q-26 0 -46 9v23q21 -9 45 -9q45 0 69.5 29t46.5 108zM222 670h-27l89 133h32z" />
    <glyph glyph-name="thorn" unicode="&#xfe;" 
d="M434 375v-171q0 -216 -172 -216q-58 0 -97.5 23t-55.5 62l-1 -266h-24l1 965h24v-266q44 87 155 87q170 0 170 -218zM410 207v170q0 97 -35.5 145.5t-112.5 48.5q-68 0 -110.5 -40t-42.5 -110v-242q0 -169 153 -169q73 0 110.5 45.5t37.5 151.5z" />
    <glyph glyph-name="ydieresis" unicode="&#xff;" horiz-adv-x="431" 
d="M207 -43l7 27l-194 597h26l182 -562l159 562h26l-182 -626q-26 -91 -57 -124.5t-82 -33.5q-26 0 -46 9v23q21 -9 45 -9q45 0 69.5 29t46.5 108zM121 710v37h31v-37h-31zM268 710v37h31v-37h-31z" />
    <glyph glyph-name="Amacron" unicode="&#x100;" horiz-adv-x="538" 
d="M485 0l-74 251h-287l-74 -251h-25l228 762h32l228 -762h-28zM268 736l-137 -463h273zM159 889h220v-24h-220v24z" />
    <glyph glyph-name="amacron" unicode="&#x101;" horiz-adv-x="486" 
d="M388 303v111q0 82 -32.5 119.5t-105.5 37.5q-72 0 -108.5 -34.5t-36.5 -118.5h-23q0 88 40.5 131.5t127.5 43.5q83 0 122.5 -42.5t39.5 -138.5v-412h-22l-1 92q-19 -47 -64.5 -75.5t-104.5 -28.5q-157 0 -157 160q0 84 51.5 124t162.5 40q53 0 111 -9zM388 184v96
q-58 10 -119 10q-97 0 -138.5 -35.5t-41.5 -107.5q0 -136 133 -136q71 0 118.5 45t47.5 128zM139 734h220v-24h-220v24z" />
    <glyph glyph-name="Abreve" unicode="&#x102;" horiz-adv-x="538" 
d="M485 0l-74 251h-287l-74 -251h-25l228 762h32l228 -762h-28zM268 736l-137 -463h273zM269 821q-102 0 -107 102h22q6 -80 85 -80t85 80h22q-5 -102 -107 -102z" />
    <glyph glyph-name="abreve" unicode="&#x103;" horiz-adv-x="486" 
d="M388 303v111q0 82 -32.5 119.5t-105.5 37.5q-72 0 -108.5 -34.5t-36.5 -118.5h-23q0 88 40.5 131.5t127.5 43.5q83 0 122.5 -42.5t39.5 -138.5v-412h-22l-1 92q-19 -47 -64.5 -75.5t-104.5 -28.5q-157 0 -157 160q0 84 51.5 124t162.5 40q53 0 111 -9zM388 184v96
q-58 10 -119 10q-97 0 -138.5 -35.5t-41.5 -107.5q0 -136 133 -136q71 0 118.5 45t47.5 128zM249 666q-102 0 -107 102h22q6 -80 85 -80t85 80h22q-5 -102 -107 -102z" />
    <glyph glyph-name="Aogonek" unicode="&#x104;" horiz-adv-x="538" 
d="M485 0l-74 251h-287l-74 -251h-25l228 762h32l228 -762h-28zM268 736l-137 -463h273zM505 -180v-24q-28 -8 -55 -8q-97 0 -97 67q0 23 13.5 46t39 44t44.5 34t46 29l17 -8q-6 -4 -25 -16t-27 -18t-24 -17.5t-24 -20.5t-17 -21t-13 -25t-4 -26q0 -45 71 -45q26 0 55 9z
" />
    <glyph glyph-name="aogonek" unicode="&#x105;" horiz-adv-x="486" 
d="M388 303v111q0 82 -32.5 119.5t-105.5 37.5q-72 0 -108.5 -34.5t-36.5 -118.5h-23q0 88 40.5 131.5t127.5 43.5q83 0 122.5 -42.5t39.5 -138.5v-412h-22l-1 92q-19 -47 -64.5 -75.5t-104.5 -28.5q-157 0 -157 160q0 84 51.5 124t162.5 40q53 0 111 -9zM388 184v96
q-58 10 -119 10q-97 0 -138.5 -35.5t-41.5 -107.5q0 -136 133 -136q71 0 118.5 45t47.5 128zM404 -180v-24q-28 -8 -55 -8q-97 0 -97 67q0 23 13.5 46t39 44t44.5 34t46 29l17 -8q-6 -4 -25 -16t-27 -18t-24 -17.5t-24 -20.5t-17 -21t-13 -25t-4 -26q0 -45 71 -45q27 0 55 9
z" />
    <glyph glyph-name="Cacute" unicode="&#x106;" horiz-adv-x="519" 
d="M465 577v-5h-23v5q0 88 -38.5 131t-123.5 43q-49 0 -83 -12.5t-52.5 -32t-29 -53t-13 -64.5t-2.5 -78v-256q0 -42 1.5 -68.5t7 -58t17.5 -50t31.5 -35.5t50 -24.5t72.5 -7.5q92 0 125.5 40.5t39.5 136.5v5h23v-5q-4 -104 -44.5 -152t-144.5 -48q-64 0 -105.5 16.5
t-62.5 53.5t-28.5 81.5t-7.5 114.5v250q0 142 41.5 206t163.5 64q98 0 141.5 -48.5t43.5 -148.5zM283 825h-27l89 133h32z" />
    <glyph glyph-name="cacute" unicode="&#x107;" horiz-adv-x="460" 
d="M382 156v5h23v-5q0 -84 -40 -126t-129 -42q-91 0 -131 48t-40 169v174q0 119 42.5 166.5t133.5 47.5q87 0 124 -40.5t37 -121.5v-4h-23v4q0 68 -30.5 104t-108.5 36q-85 0 -118 -43.5t-33 -148.5v-171q0 -105 31.5 -151.5t116.5 -46.5q81 0 113 38t32 108zM247 670h-27
l89 133h32z" />
    <glyph glyph-name="Ccircumflex" unicode="&#x108;" horiz-adv-x="519" 
d="M465 577v-5h-23v5q0 88 -38.5 131t-123.5 43q-49 0 -83 -12.5t-52.5 -32t-29 -53t-13 -64.5t-2.5 -78v-256q0 -42 1.5 -68.5t7 -58t17.5 -50t31.5 -35.5t50 -24.5t72.5 -7.5q92 0 125.5 40.5t39.5 136.5v5h23v-5q-4 -104 -44.5 -152t-144.5 -48q-64 0 -105.5 16.5
t-62.5 53.5t-28.5 81.5t-7.5 114.5v250q0 142 41.5 206t163.5 64q98 0 141.5 -48.5t43.5 -148.5zM141 825l119 112h22l119 -112h-32l-98 91l-98 -91h-32z" />
    <glyph glyph-name="ccircumflex" unicode="&#x109;" horiz-adv-x="460" 
d="M382 156v5h23v-5q0 -84 -40 -126t-129 -42q-91 0 -131 48t-40 169v174q0 119 42.5 166.5t133.5 47.5q87 0 124 -40.5t37 -121.5v-4h-23v4q0 68 -30.5 104t-108.5 36q-85 0 -118 -43.5t-33 -148.5v-171q0 -105 31.5 -151.5t116.5 -46.5q81 0 113 38t32 108zM105 670
l119 112h22l119 -112h-32l-98 91l-98 -91h-32z" />
    <glyph glyph-name="Cdotaccent" unicode="&#x10a;" horiz-adv-x="519" 
d="M465 577v-5h-23v5q0 88 -38.5 131t-123.5 43q-49 0 -83 -12.5t-52.5 -32t-29 -53t-13 -64.5t-2.5 -78v-256q0 -42 1.5 -68.5t7 -58t17.5 -50t31.5 -35.5t50 -24.5t72.5 -7.5q92 0 125.5 40.5t39.5 136.5v5h23v-5q-4 -104 -44.5 -152t-144.5 -48q-64 0 -105.5 16.5
t-62.5 53.5t-28.5 81.5t-7.5 114.5v250q0 142 41.5 206t163.5 64q98 0 141.5 -48.5t43.5 -148.5zM258 900v47h26v-47h-26z" />
    <glyph glyph-name="cdotaccent" unicode="&#x10b;" horiz-adv-x="460" 
d="M382 156v5h23v-5q0 -84 -40 -126t-129 -42q-91 0 -131 48t-40 169v174q0 119 42.5 166.5t133.5 47.5q87 0 124 -40.5t37 -121.5v-4h-23v4q0 68 -30.5 104t-108.5 36q-85 0 -118 -43.5t-33 -148.5v-171q0 -105 31.5 -151.5t116.5 -46.5q81 0 113 38t32 108zM222 745v47h26
v-47h-26z" />
    <glyph glyph-name="Ccaron" unicode="&#x10c;" horiz-adv-x="519" 
d="M465 577v-5h-23v5q0 88 -38.5 131t-123.5 43q-49 0 -83 -12.5t-52.5 -32t-29 -53t-13 -64.5t-2.5 -78v-256q0 -42 1.5 -68.5t7 -58t17.5 -50t31.5 -35.5t50 -24.5t72.5 -7.5q92 0 125.5 40.5t39.5 136.5v5h23v-5q-4 -104 -44.5 -152t-144.5 -48q-64 0 -105.5 16.5
t-62.5 53.5t-28.5 81.5t-7.5 114.5v250q0 142 41.5 206t163.5 64q98 0 141.5 -48.5t43.5 -148.5zM401 937l-119 -112h-22l-119 112h32l98 -91l98 91h32z" />
    <glyph glyph-name="ccaron" unicode="&#x10d;" horiz-adv-x="460" 
d="M382 156v5h23v-5q0 -84 -40 -126t-129 -42q-91 0 -131 48t-40 169v174q0 119 42.5 166.5t133.5 47.5q87 0 124 -40.5t37 -121.5v-4h-23v4q0 68 -30.5 104t-108.5 36q-85 0 -118 -43.5t-33 -148.5v-171q0 -105 31.5 -151.5t116.5 -46.5q81 0 113 38t32 108zM365 782
l-119 -112h-22l-119 112h32l98 -91l98 91h32z" />
    <glyph glyph-name="Dcaron" unicode="&#x10e;" horiz-adv-x="554" 
d="M86 0v762h169q131 0 177.5 -62t46.5 -210v-226q0 -142 -48 -203t-179 -61h-166zM454 266v219q0 71 -7.5 115t-29.5 78t-62.5 48t-105.5 14h-138v-718h141q122 0 162 57t40 187zM382 937l-119 -112h-22l-119 112h32l98 -91l98 91h32z" />
    <glyph glyph-name="dcaron" unicode="&#x10f;" horiz-adv-x="509" 
d="M486 772h24l-17 -160h-19zM65 206v171q0 216 176 216q110 0 149 -86v265h24v-772h-22l-4 71q-46 -83 -154 -83q-169 0 -169 218zM89 374v-170q0 -97 35.5 -145.5t112.5 -48.5q68 0 110.5 40t42.5 110v242q0 89 -41 129t-108 40q-152 0 -152 -197z" />
    <glyph glyph-name="Dcroat" unicode="&#x110;" horiz-adv-x="570" 
d="M102 0v370h-87v22h87v370h169q131 0 177.5 -62t46.5 -210v-226q0 -142 -48 -203t-179 -61h-166zM470 266v219q0 71 -7.5 115t-29.5 78t-62.5 48t-105.5 14h-138v-348h151v-22h-151v-348h141q122 0 162 57t40 187z" />
    <glyph glyph-name="dcroat" unicode="&#x111;" horiz-adv-x="519" 
d="M65 206v171q0 216 176 216q110 0 149 -86v162h-134v22h134v81h24v-81h75v-22h-75v-669h-22l-4 71q-46 -83 -154 -83q-169 0 -169 218zM89 374v-170q0 -97 35.5 -145.5t112.5 -48.5q68 0 110.5 40t42.5 110v242q0 89 -41 129t-108 40q-152 0 -152 -197z" />
    <glyph glyph-name="Emacron" unicode="&#x112;" horiz-adv-x="494" 
d="M90 762h339v-23h-314v-331h280v-23h-280v-362h324v-23h-349v762zM145 889h220v-24h-220v24z" />
    <glyph glyph-name="emacron" unicode="&#x113;" horiz-adv-x="468" 
d="M376 143h24q0 -155 -161 -155q-93 0 -133.5 48.5t-40.5 164.5v173q0 119 41.5 169t130.5 50t128.5 -50t39.5 -159v-90h-316v-90q0 -103 33.5 -148.5t116.5 -45.5q73 0 104.5 33t32.5 100zM89 316h292v65q0 99 -31 144.5t-113 45.5q-83 0 -115.5 -44.5t-32.5 -151.5v-59z
M125 734h220v-24h-220v24z" />
    <glyph glyph-name="Ebreve" unicode="&#x114;" horiz-adv-x="494" 
d="M90 762h339v-23h-314v-331h280v-23h-280v-362h324v-23h-349v762zM255 821q-102 0 -107 102h22q6 -80 85 -80t85 80h22q-5 -102 -107 -102z" />
    <glyph glyph-name="ebreve" unicode="&#x115;" horiz-adv-x="468" 
d="M376 143h24q0 -155 -161 -155q-93 0 -133.5 48.5t-40.5 164.5v173q0 119 41.5 169t130.5 50t128.5 -50t39.5 -159v-90h-316v-90q0 -103 33.5 -148.5t116.5 -45.5q73 0 104.5 33t32.5 100zM89 316h292v65q0 99 -31 144.5t-113 45.5q-83 0 -115.5 -44.5t-32.5 -151.5v-59z
M235 666q-102 0 -107 102h22q6 -80 85 -80t85 80h22q-5 -102 -107 -102z" />
    <glyph glyph-name="Edotaccent" unicode="&#x116;" horiz-adv-x="494" 
d="M90 762h339v-23h-314v-331h280v-23h-280v-362h324v-23h-349v762zM242 900v47h26v-47h-26z" />
    <glyph glyph-name="edotaccent" unicode="&#x117;" horiz-adv-x="468" 
d="M376 143h24q0 -155 -161 -155q-93 0 -133.5 48.5t-40.5 164.5v173q0 119 41.5 169t130.5 50t128.5 -50t39.5 -159v-90h-316v-90q0 -103 33.5 -148.5t116.5 -45.5q73 0 104.5 33t32.5 100zM89 316h292v65q0 99 -31 144.5t-113 45.5q-83 0 -115.5 -44.5t-32.5 -151.5v-59z
M222 745v47h26v-47h-26z" />
    <glyph glyph-name="Eogonek" unicode="&#x118;" horiz-adv-x="494" 
d="M90 762h339v-23h-314v-331h280v-23h-280v-362h324v-23h-349v762zM431 -180v-24q-28 -8 -55 -8q-97 0 -97 67q0 23 13.5 46t39 44t44.5 34t46 29l17 -8q-6 -4 -25 -16t-27 -18t-24 -17.5t-24 -20.5t-17 -21t-13 -25t-4 -26q0 -45 71 -45q27 0 55 9z" />
    <glyph glyph-name="eogonek" unicode="&#x119;" horiz-adv-x="468" 
d="M376 143h24q0 -155 -161 -155q-93 0 -133.5 48.5t-40.5 164.5v173q0 119 41.5 169t130.5 50t128.5 -50t39.5 -159v-90h-316v-90q0 -103 33.5 -148.5t116.5 -45.5q73 0 104.5 33t32.5 100zM89 316h292v65q0 99 -31 144.5t-113 45.5q-83 0 -115.5 -44.5t-32.5 -151.5v-59z
M309 -180v-24q-28 -8 -55 -8q-97 0 -97 67q0 23 13.5 46t39 44t44.5 34t46 29l17 -8q-6 -4 -25 -16t-27 -18t-24 -17.5t-24 -20.5t-17 -21t-13 -25t-4 -26q0 -45 71 -45q26 0 55 9z" />
    <glyph glyph-name="Ecaron" unicode="&#x11a;" horiz-adv-x="494" 
d="M90 762h339v-23h-314v-331h280v-23h-280v-362h324v-23h-349v762zM385 937l-119 -112h-22l-119 112h32l98 -91l98 91h32z" />
    <glyph glyph-name="ecaron" unicode="&#x11b;" horiz-adv-x="468" 
d="M376 143h24q0 -155 -161 -155q-93 0 -133.5 48.5t-40.5 164.5v173q0 119 41.5 169t130.5 50t128.5 -50t39.5 -159v-90h-316v-90q0 -103 33.5 -148.5t116.5 -45.5q73 0 104.5 33t32.5 100zM89 316h292v65q0 99 -31 144.5t-113 45.5q-83 0 -115.5 -44.5t-32.5 -151.5v-59z
M365 782l-119 -112h-22l-119 112h32l98 -91l98 91h32z" />
    <glyph glyph-name="Gcircumflex" unicode="&#x11c;" horiz-adv-x="566" 
d="M100 510v-260q0 -135 35.5 -187t151.5 -52q60 0 97.5 14t55.5 45.5t24 67t6 94.5v117h-183v23h207v-140q0 -51 -4 -85.5t-16.5 -67t-35 -51t-60.5 -29.5t-92 -11q-68 0 -110 15t-64 51t-29.5 80t-7.5 116v256q0 145 47 206.5t170 61.5q114 0 158 -48.5t46 -153.5v-5h-24
v5q0 95 -39.5 137t-140.5 42q-114 0 -153 -57t-39 -184zM155 825l119 112h22l119 -112h-32l-98 91l-98 -91h-32z" />
    <glyph glyph-name="gcircumflex" unicode="&#x11d;" 
d="M390 26v49q-44 -87 -156 -87q-169 0 -169 218v171q0 216 176 216q55 0 93.5 -23.5t55.5 -63.5l2 75h22v-552q-1 -131 -42.5 -181.5t-137.5 -50.5q-76 0 -114 31.5t-42 101.5h23q7 -111 133 -111q89 0 122 46.5t34 160.5zM89 374v-170q0 -97 35.5 -145.5t112.5 -48.5
q68 0 110.5 40t42.5 110v242q0 89 -41 129t-108 40q-152 0 -152 -197zM109 670l119 112h22l119 -112h-32l-98 91l-98 -91h-32z" />
    <glyph glyph-name="Gbreve" unicode="&#x11e;" horiz-adv-x="566" 
d="M100 510v-260q0 -135 35.5 -187t151.5 -52q60 0 97.5 14t55.5 45.5t24 67t6 94.5v117h-183v23h207v-140q0 -51 -4 -85.5t-16.5 -67t-35 -51t-60.5 -29.5t-92 -11q-68 0 -110 15t-64 51t-29.5 80t-7.5 116v256q0 145 47 206.5t170 61.5q114 0 158 -48.5t46 -153.5v-5h-24
v5q0 95 -39.5 137t-140.5 42q-114 0 -153 -57t-39 -184zM285 821q-102 0 -107 102h22q6 -80 85 -80t85 80h22q-5 -102 -107 -102z" />
    <glyph glyph-name="gbreve" unicode="&#x11f;" 
d="M390 26v49q-44 -87 -156 -87q-169 0 -169 218v171q0 216 176 216q55 0 93.5 -23.5t55.5 -63.5l2 75h22v-552q-1 -131 -42.5 -181.5t-137.5 -50.5q-76 0 -114 31.5t-42 101.5h23q7 -111 133 -111q89 0 122 46.5t34 160.5zM89 374v-170q0 -97 35.5 -145.5t112.5 -48.5
q68 0 110.5 40t42.5 110v242q0 89 -41 129t-108 40q-152 0 -152 -197zM239 666q-102 0 -107 102h22q6 -80 85 -80t85 80h22q-5 -102 -107 -102z" />
    <glyph glyph-name="Gdotaccent" unicode="&#x120;" horiz-adv-x="566" 
d="M100 510v-260q0 -135 35.5 -187t151.5 -52q60 0 97.5 14t55.5 45.5t24 67t6 94.5v117h-183v23h207v-140q0 -51 -4 -85.5t-16.5 -67t-35 -51t-60.5 -29.5t-92 -11q-68 0 -110 15t-64 51t-29.5 80t-7.5 116v256q0 145 47 206.5t170 61.5q114 0 158 -48.5t46 -153.5v-5h-24
v5q0 95 -39.5 137t-140.5 42q-114 0 -153 -57t-39 -184zM272 900v47h26v-47h-26z" />
    <glyph glyph-name="gdotaccent" unicode="&#x121;" 
d="M390 26v49q-44 -87 -156 -87q-169 0 -169 218v171q0 216 176 216q55 0 93.5 -23.5t55.5 -63.5l2 75h22v-552q-1 -131 -42.5 -181.5t-137.5 -50.5q-76 0 -114 31.5t-42 101.5h23q7 -111 133 -111q89 0 122 46.5t34 160.5zM89 374v-170q0 -97 35.5 -145.5t112.5 -48.5
q68 0 110.5 40t42.5 110v242q0 89 -41 129t-108 40q-152 0 -152 -197zM226 745v47h26v-47h-26z" />
    <glyph glyph-name="Gcommaaccent" unicode="&#x122;" horiz-adv-x="566" 
d="M100 510v-260q0 -135 35.5 -187t151.5 -52q60 0 97.5 14t55.5 45.5t24 67t6 94.5v117h-183v23h207v-140q0 -51 -4 -85.5t-16.5 -67t-35 -51t-60.5 -29.5t-92 -11q-68 0 -110 15t-64 51t-29.5 80t-7.5 116v256q0 145 47 206.5t170 61.5q114 0 158 -48.5t46 -153.5v-5h-24
v5q0 95 -39.5 137t-140.5 42q-114 0 -153 -57t-39 -184zM231 -213l49 146h30l-54 -146h-25z" />
    <glyph glyph-name="gcommaaccent" unicode="&#x123;" 
d="M390 26v49q-44 -87 -156 -87q-169 0 -169 218v171q0 216 176 216q55 0 93.5 -23.5t55.5 -63.5l2 75h22v-552q-1 -131 -42.5 -181.5t-137.5 -50.5q-76 0 -114 31.5t-42 101.5h23q7 -111 133 -111q89 0 122 46.5t34 160.5zM89 374v-170q0 -97 35.5 -145.5t112.5 -48.5
q68 0 110.5 40t42.5 110v242q0 89 -41 129t-108 40q-152 0 -152 -197zM293 798l-49 -146h-30l54 146h25z" />
    <glyph glyph-name="Hcircumflex" unicode="&#x124;" horiz-adv-x="569" 
d="M483 762v-762h-25v382h-347v-382h-25v762h25v-357h347v357h25zM154 825l119 112h22l119 -112h-32l-98 91l-98 -91h-32z" />
    <glyph glyph-name="hcircumflex" unicode="&#x125;" horiz-adv-x="509" 
d="M85 772h24v-267q44 88 156 88q98 0 133.5 -51t35.5 -156v-386h-24v386q0 99 -32 142t-116 43q-68 0 -110.5 -40t-42.5 -110v-421h-24v772zM-33 825l119 112h22l119 -112h-32l-98 91l-98 -91h-32z" />
    <glyph glyph-name="Hbar" unicode="&#x126;" horiz-adv-x="599" 
d="M498 762v-154h76v-22h-76v-586h-25v382h-347v-382h-25v586h-76v22h76v154h25v-154h347v154h25zM126 405h347v181h-347v-181z" />
    <glyph glyph-name="hbar" unicode="&#x127;" horiz-adv-x="509" 
d="M243 691v-22h-134v-164q44 88 156 88q98 0 133.5 -51t35.5 -156v-386h-24v386q0 99 -32 142t-116 43q-68 0 -110.5 -40t-42.5 -110v-421h-24v669h-75v22h75v81h24v-81h134z" />
    <glyph glyph-name="Itilde" unicode="&#x128;" horiz-adv-x="205" 
d="M115 762v-762h-25v762h25zM-7 830h-24q19 74 70 74q26 0 65 -25q42 -28 64 -28q31 0 46 53h24q-19 -74 -70 -74q-26 0 -65 25q-42 28 -64 28q-31 0 -46 -53z" />
    <glyph glyph-name="itilde" unicode="&#x129;" horiz-adv-x="194" 
d="M109 581v-581h-24v581h24zM-12 675h-24q19 74 70 74q26 0 65 -25q42 -28 64 -28q31 0 46 53h24q-19 -74 -70 -74q-26 0 -65 25q-42 28 -64 28q-31 0 -46 -53z" />
    <glyph glyph-name="Imacron" unicode="&#x12a;" horiz-adv-x="205" 
d="M115 762v-762h-25v762h25zM-8 889h220v-24h-220v24z" />
    <glyph glyph-name="imacron" unicode="&#x12b;" horiz-adv-x="194" 
d="M109 581v-581h-24v581h24zM-13 734h220v-24h-220v24z" />
    <glyph glyph-name="Ibreve" unicode="&#x12c;" horiz-adv-x="205" 
d="M115 762v-762h-25v762h25zM102 821q-102 0 -107 102h22q6 -80 85 -80t85 80h22q-5 -102 -107 -102z" />
    <glyph glyph-name="ibreve" unicode="&#x12d;" horiz-adv-x="194" 
d="M109 581v-581h-24v581h24zM97 666q-102 0 -107 102h22q6 -80 85 -80t85 80h22q-5 -102 -107 -102z" />
    <glyph glyph-name="Iogonek" unicode="&#x12e;" horiz-adv-x="205" 
d="M115 762v-762h-25v762h25zM107 -180v-24q-28 -8 -55 -8q-97 0 -97 67q0 23 13.5 46t39 44t44.5 34t46 29l17 -8q-6 -4 -25 -16t-27 -18t-24 -17.5t-24 -20.5t-17 -21t-13 -25t-4 -26q0 -45 71 -45q27 0 55 9z" />
    <glyph glyph-name="iogonek" unicode="&#x12f;" horiz-adv-x="194" 
d="M109 581v-581h-24v581h24zM84 725v47h26v-47h-26zM101 -180v-24q-28 -8 -55 -8q-97 0 -97 67q0 23 13.5 46t39 44t44.5 34t46 29l17 -8q-6 -4 -25 -16t-27 -18t-24 -17.5t-24 -20.5t-17 -21t-13 -25t-4 -26q0 -45 71 -45q26 0 55 9z" />
    <glyph glyph-name="Idotaccent" unicode="&#x130;" horiz-adv-x="205" 
d="M115 762v-762h-25v762h25zM89 900v47h26v-47h-26z" />
    <glyph glyph-name="dotlessi" unicode="&#x131;" horiz-adv-x="194" 
d="M109 581v-581h-24v581h24z" />
    <glyph glyph-name="IJ" unicode="&#x132;" horiz-adv-x="626" 
d="M115 762v-762h-25v762h25zM367 11q85 0 120 47t35 151v553h24v-550q0 -120 -44.5 -172t-135.5 -52q-83 0 -124.5 39.5t-42.5 110.5h23q7 -127 145 -127z" />
    <glyph glyph-name="ij" unicode="&#x133;" horiz-adv-x="368" 
d="M109 581v-581h-24v581h24zM84 725v47h26v-47h-26zM258 -21l1 602h24l-1 -599q0 -99 -21.5 -140.5t-90.5 -36.5v24q55 -1 71.5 26.5t16.5 123.5zM258 725v47h26v-47h-26z" />
    <glyph glyph-name="Jcircumflex" unicode="&#x134;" horiz-adv-x="441" 
d="M182 11q85 0 120 47t35 151v553h24v-550q0 -120 -44.5 -172t-135.5 -52q-83 0 -124.5 39.5t-42.5 110.5h23q7 -127 145 -127zM218 825l119 112h22l119 -112h-32l-98 91l-98 -91h-32z" />
    <glyph glyph-name="jcircumflex" unicode="&#x135;" horiz-adv-x="194" 
d="M84 -21l1 602h24l-1 -599q0 -99 -21.5 -140.5t-90.5 -36.5v24q55 -1 71.5 26.5t16.5 123.5zM-33 670l119 112h22l119 -112h-32l-98 91l-98 -91h-32z" />
    <glyph glyph-name="Kcommaaccent" unicode="&#x136;" horiz-adv-x="539" 
d="M490 762l-260 -374l284 -388h-32l-271 375h-100v-375h-25v762h25v-364h98l249 364h32zM219 -213l49 146h30l-54 -146h-25z" />
    <glyph glyph-name="kcommaaccent" unicode="&#x137;" horiz-adv-x="478" 
d="M386 581h28l-201 -264l245 -317h-30l-236 306h-83v-306h-24v772h24v-444h85zM190 -213l49 146h30l-54 -146h-25z" />
    <glyph glyph-name="kgreenlandic" unicode="&#x138;" horiz-adv-x="458" 
d="M376 581h28l-201 -264l245 -317h-30l-236 306h-83v-306h-24v581h24v-253h85z" />
    <glyph glyph-name="Lacute" unicode="&#x139;" horiz-adv-x="448" 
d="M413 24v-24h-323v762h25v-738h298zM115 825h-27l89 133h32z" />
    <glyph glyph-name="lacute" unicode="&#x13a;" horiz-adv-x="245" 
d="M205 18l-1 -19q-79 -8 -101.5 23.5t-22.5 125.5v624h24v-628q0 -85 17 -105.5t84 -20.5zM104 825h-27l89 133h32z" />
    <glyph glyph-name="Lcommaaccent" unicode="&#x13b;" horiz-adv-x="448" 
d="M413 24v-24h-323v762h25v-738h298zM196 -213l49 146h30l-54 -146h-25z" />
    <glyph glyph-name="lcommaaccent" unicode="&#x13c;" horiz-adv-x="245" 
d="M205 18l-1 -19q-79 -8 -101.5 23.5t-22.5 125.5v624h24v-628q0 -85 17 -105.5t84 -20.5zM87 -213l49 146h30l-54 -146h-25z" />
    <glyph glyph-name="Lcaron" unicode="&#x13d;" horiz-adv-x="448" 
d="M206 772h24l-17 -160h-19zM413 24v-24h-323v762h25v-738h298z" />
    <glyph glyph-name="lcaron" unicode="&#x13e;" horiz-adv-x="245" 
d="M176 772h24l-17 -160h-19zM205 18l-1 -19q-79 -8 -101.5 23.5t-22.5 125.5v624h24v-628q0 -85 17 -105.5t84 -20.5z" />
    <glyph glyph-name="Ldot" unicode="&#x13f;" horiz-adv-x="448" 
d="M413 24v-24h-323v762h25v-738h298zM283 366v-43h-33v43h33z" />
    <glyph glyph-name="ldot" unicode="&#x140;" horiz-adv-x="245" 
d="M205 18l-1 -19q-79 -8 -101.5 23.5t-22.5 125.5v624h24v-628q0 -85 17 -105.5t84 -20.5zM214 323v-43h-33v43h33z" />
    <glyph glyph-name="Lslash" unicode="&#x141;" horiz-adv-x="448" 
d="M-30 295v23l120 57v387h25v-375l181 86v-24l-181 -86v-339h298v-24h-323v351z" />
    <glyph glyph-name="lslash" unicode="&#x142;" horiz-adv-x="269" 
d="M25 310v23l79 31v408h24v-399l94 37v-24l-94 -36v-206q0 -85 17 -105.5t84 -20.5l-1 -19q-79 -8 -101.5 23.5t-22.5 125.5v192z" />
    <glyph glyph-name="Nacute" unicode="&#x143;" horiz-adv-x="564" 
d="M86 762h34l334 -725v725h24v-762h-31l-337 727v-727h-24v762zM294 825h-27l89 133h32z" />
    <glyph glyph-name="nacute" unicode="&#x144;" horiz-adv-x="509" 
d="M85 581h22l4 -72q45 84 154 84q98 0 133.5 -51t35.5 -156v-386h-24v386q0 99 -32 142t-116 43q-68 0 -110.5 -40t-42.5 -110v-421h-24v581zM271 670h-27l89 133h32z" />
    <glyph glyph-name="Ncommaaccent" unicode="&#x145;" horiz-adv-x="564" 
d="M86 762h34l334 -725v725h24v-762h-31l-337 727v-727h-24v762zM227 -213l49 146h30l-54 -146h-25z" />
    <glyph glyph-name="ncommaaccent" unicode="&#x146;" horiz-adv-x="509" 
d="M85 581h22l4 -72q45 84 154 84q98 0 133.5 -51t35.5 -156v-386h-24v386q0 99 -32 142t-116 43q-68 0 -110.5 -40t-42.5 -110v-421h-24v581zM204 -213l49 146h30l-54 -146h-25z" />
    <glyph glyph-name="Ncaron" unicode="&#x147;" horiz-adv-x="564" 
d="M86 762h34l334 -725v725h24v-762h-31l-337 727v-727h-24v762zM412 937l-119 -112h-22l-119 112h32l98 -91l98 91h32z" />
    <glyph glyph-name="ncaron" unicode="&#x148;" horiz-adv-x="509" 
d="M85 581h22l4 -72q45 84 154 84q98 0 133.5 -51t35.5 -156v-386h-24v386q0 99 -32 142t-116 43q-68 0 -110.5 -40t-42.5 -110v-421h-24v581zM389 782l-119 -112h-22l-119 112h32l98 -91l98 91h32z" />
    <glyph glyph-name="napostrophe" unicode="&#x149;" horiz-adv-x="549" 
d="M125 581h22l4 -72q45 84 154 84q98 0 133.5 -51t35.5 -156v-386h-24v386q0 99 -32 142t-116 43q-68 0 -110.5 -40t-42.5 -110v-421h-24v581zM78 772h24l-58 -160h-19z" />
    <glyph glyph-name="Eng" unicode="&#x14a;" horiz-adv-x="564" 
d="M453 -6l1 14l-344 712v-720h-24v762h30l338 -704v704h24l-1 -765q0 -99 -21.5 -140.5t-90.5 -36.5v24q55 -1 71.5 26.5t16.5 123.5z" />
    <glyph glyph-name="eng" unicode="&#x14b;" horiz-adv-x="509" 
d="M409 -21l1 407q0 99 -32 142t-116 43q-68 0 -110.5 -40t-42.5 -110v-421h-24v581h22l4 -72q45 84 154 84q98 0 133.5 -51t35.5 -156l-1 -404q0 -99 -21.5 -140.5t-90.5 -36.5v24q55 -1 71.5 26.5t16.5 123.5z" />
    <glyph glyph-name="Omacron" unicode="&#x14c;" horiz-adv-x="578" 
d="M75 249v264q0 140 44.5 200.5t169.5 60.5t169.5 -60.5t44.5 -200.5v-264q0 -140 -45 -200.5t-170 -60.5t-169 60.5t-44 200.5zM478 253v256q0 64 -6.5 104t-25.5 74t-57.5 49t-99.5 15q-62 0 -100.5 -15t-57.5 -49.5t-25 -73.5t-6 -104v-256q0 -64 6.5 -104t25.5 -74
t57.5 -49t99.5 -15q62 0 100.5 15t57.5 49.5t25 73.5t6 104zM179 889h220v-24h-220v24z" />
    <glyph glyph-name="omacron" unicode="&#x14d;" horiz-adv-x="480" 
d="M89 374v-167q0 -114 32 -155.5t119 -41.5t119 41.5t32 155.5v167q0 114 -32 155.5t-119 41.5t-119 -41.5t-32 -155.5zM65 204v173q0 124 40 170t135 46t135 -46t40 -170v-173q0 -124 -40.5 -170t-135.5 -46t-134.5 46t-39.5 170zM130 734h220v-24h-220v24z" />
    <glyph glyph-name="Obreve" unicode="&#x14e;" horiz-adv-x="578" 
d="M75 249v264q0 140 44.5 200.5t169.5 60.5t169.5 -60.5t44.5 -200.5v-264q0 -140 -45 -200.5t-170 -60.5t-169 60.5t-44 200.5zM478 253v256q0 64 -6.5 104t-25.5 74t-57.5 49t-99.5 15q-62 0 -100.5 -15t-57.5 -49.5t-25 -73.5t-6 -104v-256q0 -64 6.5 -104t25.5 -74
t57.5 -49t99.5 -15q62 0 100.5 15t57.5 49.5t25 73.5t6 104zM289 821q-102 0 -107 102h22q6 -80 85 -80t85 80h22q-5 -102 -107 -102z" />
    <glyph glyph-name="obreve" unicode="&#x14f;" horiz-adv-x="480" 
d="M89 374v-167q0 -114 32 -155.5t119 -41.5t119 41.5t32 155.5v167q0 114 -32 155.5t-119 41.5t-119 -41.5t-32 -155.5zM65 204v173q0 124 40 170t135 46t135 -46t40 -170v-173q0 -124 -40.5 -170t-135.5 -46t-134.5 46t-39.5 170zM240 666q-102 0 -107 102h22
q6 -80 85 -80t85 80h22q-5 -102 -107 -102z" />
    <glyph glyph-name="Ohungarumlaut" unicode="&#x150;" horiz-adv-x="578" 
d="M75 249v264q0 140 44.5 200.5t169.5 60.5t169.5 -60.5t44.5 -200.5v-264q0 -140 -45 -200.5t-170 -60.5t-169 60.5t-44 200.5zM478 253v256q0 64 -6.5 104t-25.5 74t-57.5 49t-99.5 15q-62 0 -100.5 -15t-57.5 -49.5t-25 -73.5t-6 -104v-256q0 -64 6.5 -104t25.5 -74
t57.5 -49t99.5 -15q62 0 100.5 15t57.5 49.5t25 73.5t6 104zM237 825h-24l67 133h30zM353 824h-23l72 134h30z" />
    <glyph glyph-name="ohungarumlaut" unicode="&#x151;" horiz-adv-x="480" 
d="M89 374v-167q0 -114 32 -155.5t119 -41.5t119 41.5t32 155.5v167q0 114 -32 155.5t-119 41.5t-119 -41.5t-32 -155.5zM65 204v173q0 124 40 170t135 46t135 -46t40 -170v-173q0 -124 -40.5 -170t-135.5 -46t-134.5 46t-39.5 170zM188 670h-24l67 133h30zM304 669h-23
l72 134h30z" />
    <glyph glyph-name="OE" unicode="&#x152;" horiz-adv-x="783" 
d="M274 762h454v-23h-314v-331h280v-23h-280v-362h324v-23h-464q-125 0 -169.5 60.5t-44.5 200.5v240q0 140 44.5 200.5t169.5 60.5zM85 497v-232q0 -64 6.5 -104t25.5 -74t57.5 -49t99.5 -15h115v716h-115q-62 0 -100.5 -15t-57.5 -49.5t-25 -73.5t-6 -104z" />
    <glyph glyph-name="oe" unicode="&#x153;" horiz-adv-x="771" 
d="M225 593q142 0 165 -116q12 57 55 86.5t105 29.5q89 0 128.5 -50t39.5 -159v-90h-316v-90q0 -103 33.5 -148.5t116.5 -45.5q73 0 104.5 33t32.5 100h24q0 -155 -161 -155q-137 0 -164 118q-21 -118 -164 -118q-95 0 -134.5 46t-39.5 170v173q0 124 40 170t135 46zM74 374
v-167q0 -114 32 -155.5t119 -41.5t119 41.5t32 155.5v167q0 114 -32 155.5t-119 41.5t-119 -41.5t-32 -155.5zM402 316h292v65q0 99 -31 144.5t-113 45.5q-83 0 -115.5 -44.5t-32.5 -151.5v-59z" />
    <glyph glyph-name="Racute" unicode="&#x154;" horiz-adv-x="493" 
d="M249 355h-138v-355h-25v762h156q95 0 145 -38t50 -145v-40q0 -85 -27 -126t-86 -52l129 -361h-27l-127 357q-16 -2 -50 -2zM239 739h-128v-361h141q93 0 126.5 35t33.5 129v30q0 101 -41.5 134t-131.5 33zM257 825h-27l89 133h32z" />
    <glyph glyph-name="racute" unicode="&#x155;" horiz-adv-x="308" 
d="M85 581h22l4 -78q18 38 56.5 64t90.5 26q16 0 30 -2v-24q-16 2 -30 2q-66 0 -107.5 -42t-41.5 -114v-413h-24v581zM198 670h-27l89 133h32z" />
    <glyph glyph-name="Rcommaaccent" unicode="&#x156;" horiz-adv-x="493" 
d="M249 355h-138v-355h-25v762h156q95 0 145 -38t50 -145v-40q0 -85 -27 -126t-86 -52l129 -361h-27l-127 357q-16 -2 -50 -2zM239 739h-128v-361h141q93 0 126.5 35t33.5 129v30q0 101 -41.5 134t-131.5 33zM202 -213l49 146h30l-54 -146h-25z" />
    <glyph glyph-name="rcommaaccent" unicode="&#x157;" horiz-adv-x="308" 
d="M85 581h22l4 -78q18 38 56.5 64t90.5 26q16 0 30 -2v-24q-16 2 -30 2q-66 0 -107.5 -42t-41.5 -114v-413h-24v581zM39 -213l49 146h30l-54 -146h-25z" />
    <glyph glyph-name="Rcaron" unicode="&#x158;" horiz-adv-x="493" 
d="M249 355h-138v-355h-25v762h156q95 0 145 -38t50 -145v-40q0 -85 -27 -126t-86 -52l129 -361h-27l-127 357q-16 -2 -50 -2zM239 739h-128v-361h141q93 0 126.5 35t33.5 129v30q0 101 -41.5 134t-131.5 33zM375 937l-119 -112h-22l-119 112h32l98 -91l98 91h32z" />
    <glyph glyph-name="rcaron" unicode="&#x159;" horiz-adv-x="308" 
d="M85 581h22l4 -78q18 38 56.5 64t90.5 26q16 0 30 -2v-24q-16 2 -30 2q-66 0 -107.5 -42t-41.5 -114v-413h-24v581zM316 782l-119 -112h-22l-119 112h32l98 -91l98 91h32z" />
    <glyph glyph-name="Sacute" unicode="&#x15a;" horiz-adv-x="504" 
d="M250 386q-97 31 -137 75.5t-40 125.5q0 92 48 139.5t140 47.5q75 0 129.5 -38.5t59.5 -124.5h-23q-5 71 -51.5 105.5t-114.5 34.5q-164 0 -164 -163q0 -73 36.5 -112t124.5 -67q107 -33 149 -85t42 -133q0 -112 -52 -157.5t-149 -45.5q-86 0 -137 45t-52 127h23
q2 -73 46.5 -111t120.5 -38q91 0 132.5 39.5t41.5 140.5q0 77 -39 120.5t-134 74.5zM267 825h-27l89 133h32z" />
    <glyph glyph-name="sacute" unicode="&#x15b;" horiz-adv-x="450" 
d="M208 297q-36 8 -57.5 15.5t-44.5 24t-33.5 44t-10.5 68.5q0 65 40 104.5t123 39.5q166 0 166 -146h-24q-2 63 -34.5 93.5t-106.5 30.5q-141 0 -141 -121q0 -65 31 -90.5t101 -40.5q36 -8 54.5 -12.5t47 -17t43 -28.5t25.5 -43.5t11 -64.5q0 -78 -43.5 -121.5
t-132.5 -43.5t-132.5 38t-43.5 122h23q-1 -66 34.5 -102t117.5 -36q153 0 153 142q0 39 -12 65t-38.5 41.5t-50 23t-65.5 15.5zM236 670h-27l89 133h32z" />
    <glyph glyph-name="Scircumflex" unicode="&#x15c;" horiz-adv-x="504" 
d="M250 386q-97 31 -137 75.5t-40 125.5q0 92 48 139.5t140 47.5q75 0 129.5 -38.5t59.5 -124.5h-23q-5 71 -51.5 105.5t-114.5 34.5q-164 0 -164 -163q0 -73 36.5 -112t124.5 -67q107 -33 149 -85t42 -133q0 -112 -52 -157.5t-149 -45.5q-86 0 -137 45t-52 127h23
q2 -73 46.5 -111t120.5 -38q91 0 132.5 39.5t41.5 140.5q0 77 -39 120.5t-134 74.5zM125 825l119 112h22l119 -112h-32l-98 91l-98 -91h-32z" />
    <glyph glyph-name="scircumflex" unicode="&#x15d;" horiz-adv-x="450" 
d="M208 297q-36 8 -57.5 15.5t-44.5 24t-33.5 44t-10.5 68.5q0 65 40 104.5t123 39.5q166 0 166 -146h-24q-2 63 -34.5 93.5t-106.5 30.5q-141 0 -141 -121q0 -65 31 -90.5t101 -40.5q36 -8 54.5 -12.5t47 -17t43 -28.5t25.5 -43.5t11 -64.5q0 -78 -43.5 -121.5
t-132.5 -43.5t-132.5 38t-43.5 122h23q-1 -66 34.5 -102t117.5 -36q153 0 153 142q0 39 -12 65t-38.5 41.5t-50 23t-65.5 15.5zM94 670l119 112h22l119 -112h-32l-98 91l-98 -91h-32z" />
    <glyph glyph-name="Scedilla" unicode="&#x15e;" horiz-adv-x="504" 
d="M250 386q-97 31 -137 75.5t-40 125.5q0 92 48 139.5t140 47.5q75 0 129.5 -38.5t59.5 -124.5h-23q-5 71 -51.5 105.5t-114.5 34.5q-164 0 -164 -163q0 -73 36.5 -112t124.5 -67q107 -33 149 -85t42 -133q0 -112 -52 -157.5t-149 -45.5q-86 0 -137 45t-52 127h23
q2 -73 46.5 -111t120.5 -38q91 0 132.5 39.5t41.5 140.5q0 77 -39 120.5t-134 74.5zM173 -215l-1 22q27 -9 73 -9q73 0 73 70q0 37 -19.5 53t-72.5 17l10 62h20l-8 -43q94 -5 94 -89q0 -45 -26 -68t-72 -23q-50 0 -71 8z" />
    <glyph glyph-name="scedilla" unicode="&#x15f;" horiz-adv-x="450" 
d="M208 297q-36 8 -57.5 15.5t-44.5 24t-33.5 44t-10.5 68.5q0 65 40 104.5t123 39.5q166 0 166 -146h-24q-2 63 -34.5 93.5t-106.5 30.5q-141 0 -141 -121q0 -65 31 -90.5t101 -40.5q36 -8 54.5 -12.5t47 -17t43 -28.5t25.5 -43.5t11 -64.5q0 -78 -43.5 -121.5
t-132.5 -43.5t-132.5 38t-43.5 122h23q-1 -66 34.5 -102t117.5 -36q153 0 153 142q0 39 -12 65t-38.5 41.5t-50 23t-65.5 15.5zM148 -215l-1 22q27 -9 73 -9q73 0 73 70q0 37 -19.5 53t-72.5 17l10 62h20l-8 -43q94 -5 94 -89q0 -45 -26 -68t-72 -23q-50 0 -71 8z" />
    <glyph glyph-name="Scaron" unicode="&#x160;" horiz-adv-x="504" 
d="M250 386q-97 31 -137 75.5t-40 125.5q0 92 48 139.5t140 47.5q75 0 129.5 -38.5t59.5 -124.5h-23q-5 71 -51.5 105.5t-114.5 34.5q-164 0 -164 -163q0 -73 36.5 -112t124.5 -67q107 -33 149 -85t42 -133q0 -112 -52 -157.5t-149 -45.5q-86 0 -137 45t-52 127h23
q2 -73 46.5 -111t120.5 -38q91 0 132.5 39.5t41.5 140.5q0 77 -39 120.5t-134 74.5zM385 937l-119 -112h-22l-119 112h32l98 -91l98 91h32z" />
    <glyph glyph-name="scaron" unicode="&#x161;" horiz-adv-x="450" 
d="M208 297q-36 8 -57.5 15.5t-44.5 24t-33.5 44t-10.5 68.5q0 65 40 104.5t123 39.5q166 0 166 -146h-24q-2 63 -34.5 93.5t-106.5 30.5q-141 0 -141 -121q0 -65 31 -90.5t101 -40.5q36 -8 54.5 -12.5t47 -17t43 -28.5t25.5 -43.5t11 -64.5q0 -78 -43.5 -121.5
t-132.5 -43.5t-132.5 38t-43.5 122h23q-1 -66 34.5 -102t117.5 -36q153 0 153 142q0 39 -12 65t-38.5 41.5t-50 23t-65.5 15.5zM354 782l-119 -112h-22l-119 112h32l98 -91l98 91h32z" />
    <glyph glyph-name="uni0162" unicode="&#x162;" horiz-adv-x="477" 
d="M442 762v-24h-191v-738h-25v738h-191v24h407zM183 -213l49 146h30l-54 -146h-25z" />
    <glyph glyph-name="uni0163" unicode="&#x163;" horiz-adv-x="301" 
d="M256 17l-1 -22q-26 -7 -55 -7q-70 0 -98 36t-28 117v573h24v-139h157v-23h-157v-410q0 -77 23.5 -104t80.5 -27q24 0 54 6zM110 -213l49 146h30l-54 -146h-25z" />
    <glyph glyph-name="Tcaron" unicode="&#x164;" horiz-adv-x="477" 
d="M442 762v-24h-191v-738h-25v738h-191v24h407zM368 937l-119 -112h-22l-119 112h32l98 -91l98 91h32z" />
    <glyph glyph-name="tcaron" unicode="&#x165;" horiz-adv-x="301" 
d="M211 772h24l-17 -160h-19zM256 17l-1 -22q-26 -7 -55 -7q-70 0 -98 36t-28 117v573h24v-139h157v-23h-157v-410q0 -77 23.5 -104t80.5 -27q24 0 54 6z" />
    <glyph glyph-name="Tbar" unicode="&#x166;" horiz-adv-x="477" 
d="M442 762v-24h-191v-269h138v-23h-138v-446h-25v446h-138v23h138v269h-191v24h407z" />
    <glyph glyph-name="tbar" unicode="&#x167;" horiz-adv-x="321" 
d="M276 17l-1 -22q-26 -7 -55 -7q-70 0 -98 36t-28 117v182h-79v23h79v368h24v-139h157v-23h-157v-206h157v-23h-157v-181q0 -77 23.5 -104t80.5 -27q24 0 54 6z" />
    <glyph glyph-name="Utilde" unicode="&#x168;" horiz-adv-x="567" 
d="M463 762h25v-502q0 -72 -7 -117t-28 -83t-62.5 -55t-107.5 -17q-54 0 -91 12t-59.5 32.5t-34.5 57t-15.5 74.5t-3.5 96v502h25v-504q0 -52 3 -85.5t13 -67.5t29.5 -52.5t52.5 -30t82 -11.5t82 11.5t52 30t29.5 52.5t13 67t2.5 86v504zM174 830h-24q19 74 70 74
q26 0 65 -25q42 -28 64 -28q31 0 46 53h24q-19 -74 -70 -74q-26 0 -65 25q-42 28 -64 28q-31 0 -46 -53z" />
    <glyph glyph-name="utilde" unicode="&#x169;" horiz-adv-x="505" 
d="M420 0h-22l-4 71q-46 -83 -153 -83q-97 0 -131.5 50.5t-34.5 156.5v386h24v-386q0 -99 31 -142t115 -43q68 0 109.5 39.5t41.5 110.5v421h24v-581zM138 675h-24q19 74 70 74q26 0 65 -25q42 -28 64 -28q31 0 46 53h24q-19 -74 -70 -74q-26 0 -65 25q-42 28 -64 28
q-31 0 -46 -53z" />
    <glyph glyph-name="Umacron" unicode="&#x16a;" horiz-adv-x="567" 
d="M463 762h25v-502q0 -72 -7 -117t-28 -83t-62.5 -55t-107.5 -17q-54 0 -91 12t-59.5 32.5t-34.5 57t-15.5 74.5t-3.5 96v502h25v-504q0 -52 3 -85.5t13 -67.5t29.5 -52.5t52.5 -30t82 -11.5t82 11.5t52 30t29.5 52.5t13 67t2.5 86v504zM173 889h220v-24h-220v24z" />
    <glyph glyph-name="umacron" unicode="&#x16b;" horiz-adv-x="505" 
d="M420 0h-22l-4 71q-46 -83 -153 -83q-97 0 -131.5 50.5t-34.5 156.5v386h24v-386q0 -99 31 -142t115 -43q68 0 109.5 39.5t41.5 110.5v421h24v-581zM137 734h220v-24h-220v24z" />
    <glyph glyph-name="Ubreve" unicode="&#x16c;" horiz-adv-x="567" 
d="M463 762h25v-502q0 -72 -7 -117t-28 -83t-62.5 -55t-107.5 -17q-54 0 -91 12t-59.5 32.5t-34.5 57t-15.5 74.5t-3.5 96v502h25v-504q0 -52 3 -85.5t13 -67.5t29.5 -52.5t52.5 -30t82 -11.5t82 11.5t52 30t29.5 52.5t13 67t2.5 86v504zM283 821q-102 0 -107 102h22
q6 -80 85 -80t85 80h22q-5 -102 -107 -102z" />
    <glyph glyph-name="ubreve" unicode="&#x16d;" horiz-adv-x="505" 
d="M420 0h-22l-4 71q-46 -83 -153 -83q-97 0 -131.5 50.5t-34.5 156.5v386h24v-386q0 -99 31 -142t115 -43q68 0 109.5 39.5t41.5 110.5v421h24v-581zM247 666q-102 0 -107 102h22q6 -80 85 -80t85 80h22q-5 -102 -107 -102z" />
    <glyph glyph-name="Uring" unicode="&#x16e;" horiz-adv-x="567" 
d="M463 762h25v-502q0 -72 -7 -117t-28 -83t-62.5 -55t-107.5 -17q-54 0 -91 12t-59.5 32.5t-34.5 57t-15.5 74.5t-3.5 96v502h25v-504q0 -52 3 -85.5t13 -67.5t29.5 -52.5t52.5 -30t82 -11.5t82 11.5t52 30t29.5 52.5t13 67t2.5 86v504zM283 842q37 0 52 16t15 50t-15 50
t-52 16t-52 -16t-15 -50t15 -50t52 -16zM283 818q-92 0 -92 90t92 90t92 -90t-92 -90z" />
    <glyph glyph-name="uring" unicode="&#x16f;" horiz-adv-x="505" 
d="M420 0h-22l-4 71q-46 -83 -153 -83q-97 0 -131.5 50.5t-34.5 156.5v386h24v-386q0 -99 31 -142t115 -43q68 0 109.5 39.5t41.5 110.5v421h24v-581zM247 687q37 0 52 16t15 50t-15 50t-52 16t-52 -16t-15 -50t15 -50t52 -16zM247 663q-92 0 -92 90t92 90t92 -90t-92 -90z
" />
    <glyph glyph-name="Uhungarumlaut" unicode="&#x170;" horiz-adv-x="567" 
d="M463 762h25v-502q0 -72 -7 -117t-28 -83t-62.5 -55t-107.5 -17q-54 0 -91 12t-59.5 32.5t-34.5 57t-15.5 74.5t-3.5 96v502h25v-504q0 -52 3 -85.5t13 -67.5t29.5 -52.5t52.5 -30t82 -11.5t82 11.5t52 30t29.5 52.5t13 67t2.5 86v504zM231 825h-24l67 133h30zM347 824
h-23l72 134h30z" />
    <glyph glyph-name="uhungarumlaut" unicode="&#x171;" horiz-adv-x="505" 
d="M420 0h-22l-4 71q-46 -83 -153 -83q-97 0 -131.5 50.5t-34.5 156.5v386h24v-386q0 -99 31 -142t115 -43q68 0 109.5 39.5t41.5 110.5v421h24v-581zM195 670h-24l67 133h30zM311 669h-23l72 134h30z" />
    <glyph glyph-name="Uogonek" unicode="&#x172;" horiz-adv-x="567" 
d="M463 762h25v-502q0 -72 -7 -117t-28 -83t-62.5 -55t-107.5 -17q-54 0 -91 12t-59.5 32.5t-34.5 57t-15.5 74.5t-3.5 96v502h25v-504q0 -52 3 -85.5t13 -67.5t29.5 -52.5t52.5 -30t82 -11.5t82 11.5t52 30t29.5 52.5t13 67t2.5 86v504zM364 -180v-24q-28 -8 -55 -8
q-97 0 -97 67q0 23 13.5 46t39 44t44.5 34t46 29l17 -8q-6 -4 -25 -16t-27 -18t-24 -17.5t-24 -20.5t-17 -21t-13 -25t-4 -26q0 -45 71 -45q27 0 55 9z" />
    <glyph glyph-name="uogonek" unicode="&#x173;" horiz-adv-x="505" 
d="M420 0h-22l-4 71q-46 -83 -153 -83q-97 0 -131.5 50.5t-34.5 156.5v386h24v-386q0 -99 31 -142t115 -43q68 0 109.5 39.5t41.5 110.5v421h24v-581zM412 -180v-24q-28 -8 -55 -8q-97 0 -97 67q0 23 13.5 46t39 44t44.5 34t46 29l17 -8q-6 -4 -25 -16t-27 -18t-24 -17.5
t-24 -20.5t-17 -21t-13 -25t-4 -26q0 -45 71 -45q27 0 55 9z" />
    <glyph glyph-name="Wcircumflex" unicode="&#x174;" horiz-adv-x="752" 
d="M524 0l-148 689l-148 -689h-36l-157 762h27l148 -735l151 701h32l149 -696l148 730h27l-157 -762h-36zM245 825l119 112h22l119 -112h-32l-98 91l-98 -91h-32z" />
    <glyph glyph-name="wcircumflex" unicode="&#x175;" horiz-adv-x="668" 
d="M320 581h29l137 -555l132 555h25l-140 -581h-33l-136 538l-136 -538h-33l-140 581h26l131 -553zM204 670l119 112h22l119 -112h-32l-98 91l-98 -91h-32z" />
    <glyph glyph-name="Ycircumflex" unicode="&#x176;" horiz-adv-x="507" 
d="M10 762h29l215 -395l216 395h27l-231 -420v-342h-25v342zM123 825l119 112h22l119 -112h-32l-98 91l-98 -91h-32z" />
    <glyph glyph-name="ycircumflex" unicode="&#x177;" horiz-adv-x="431" 
d="M207 -43l7 27l-194 597h26l182 -562l159 562h26l-182 -626q-26 -91 -57 -124.5t-82 -33.5q-26 0 -46 9v23q21 -9 45 -9q45 0 69.5 29t46.5 108zM80 670l119 112h22l119 -112h-32l-98 91l-98 -91h-32z" />
    <glyph glyph-name="Ydieresis" unicode="&#x178;" horiz-adv-x="507" 
d="M10 762h29l215 -395l216 395h27l-231 -420v-342h-25v342zM164 865v37h31v-37h-31zM311 865v37h31v-37h-31z" />
    <glyph glyph-name="Zacute" unicode="&#x179;" horiz-adv-x="476" 
d="M45 0v24l351 715h-328v23h356v-24l-352 -715h369v-23h-396zM255 825h-27l89 133h32z" />
    <glyph glyph-name="zacute" unicode="&#x17a;" horiz-adv-x="416" 
d="M374 560l-317 -538h324v-22h-351v21l315 538h-297v22h326v-21zM217 670h-27l89 133h32z" />
    <glyph glyph-name="Zdotaccent" unicode="&#x17b;" horiz-adv-x="476" 
d="M45 0v24l351 715h-328v23h356v-24l-352 -715h369v-23h-396zM230 900v47h26v-47h-26z" />
    <glyph glyph-name="zdotaccent" unicode="&#x17c;" horiz-adv-x="416" 
d="M374 560l-317 -538h324v-22h-351v21l315 538h-297v22h326v-21zM192 745v47h26v-47h-26z" />
    <glyph glyph-name="Zcaron" unicode="&#x17d;" horiz-adv-x="476" 
d="M45 0v24l351 715h-328v23h356v-24l-352 -715h369v-23h-396zM373 937l-119 -112h-22l-119 112h32l98 -91l98 91h32z" />
    <glyph glyph-name="zcaron" unicode="&#x17e;" horiz-adv-x="416" 
d="M374 560l-317 -538h324v-22h-351v21l315 538h-297v22h326v-21zM335 782l-119 -112h-22l-119 112h32l98 -91l98 91h32z" />
    <glyph glyph-name="longs" unicode="&#x17f;" horiz-adv-x="268" 
d="M230 755q-76 0 -103.5 -37.5t-27.5 -130.5v-587h-24v588q0 104 35 146.5t120 42.5q20 0 33 -2v-22q-16 2 -33 2z" />
    <glyph glyph-name="florin" unicode="&#x192;" horiz-adv-x="268" 
d="M230 755q-76 0 -103.5 -37.5t-27.5 -130.5v-11h140v-22h-140l-1 -557q0 -99 -21.5 -140.5t-90.5 -36.5v24q55 -1 71.5 26.5t16.5 123.5l1 594q0 104 35 146.5t120 42.5q20 0 33 -2v-22q-16 2 -33 2z" />
    <glyph glyph-name="aringacute" unicode="&#x1fb;" horiz-adv-x="486" 
d="M388 303v111q0 82 -32.5 119.5t-105.5 37.5q-72 0 -108.5 -34.5t-36.5 -118.5h-23q0 88 40.5 131.5t127.5 43.5q83 0 122.5 -42.5t39.5 -138.5v-412h-22l-1 92q-19 -47 -64.5 -75.5t-104.5 -28.5q-157 0 -157 160q0 84 51.5 124t162.5 40q53 0 111 -9zM388 184v96
q-58 10 -119 10q-97 0 -138.5 -35.5t-41.5 -107.5q0 -136 133 -136q71 0 118.5 45t47.5 128zM239 637q37 0 52 16t15 50t-15 50t-52 16t-52 -16t-15 -50t15 -50t52 -16zM239 613q-92 0 -92 90t92 90t92 -90t-92 -90zM211 810h-27l89 133h32z" />
    <glyph glyph-name="oslashacute" unicode="&#x1ff;" horiz-adv-x="480" 
d="M252 670h-27l89 133h32zM65 204v173q0 124 40 170t135 46q69 0 108 -23l34 76h24l-40 -90q49 -46 49 -179v-173q0 -124 -40.5 -170t-135.5 -46q-73 0 -112 26l-37 -83h-24l44 97q-45 46 -45 176zM391 207v167q0 117 -35 159l-219 -498q32 -25 103 -25q87 0 119 41.5
t32 155.5zM89 374v-167q0 -113 31 -155l219 496q-33 23 -99 23q-87 0 -119 -41.5t-32 -155.5z" />
    <glyph glyph-name="Scommaaccent" unicode="&#x218;" horiz-adv-x="504" 
d="M250 386q-97 31 -137 75.5t-40 125.5q0 92 48 139.5t140 47.5q75 0 129.5 -38.5t59.5 -124.5h-23q-5 71 -51.5 105.5t-114.5 34.5q-164 0 -164 -163q0 -73 36.5 -112t124.5 -67q107 -33 149 -85t42 -133q0 -112 -52 -157.5t-149 -45.5q-86 0 -137 45t-52 127h23
q2 -73 46.5 -111t120.5 -38q91 0 132.5 39.5t41.5 140.5q0 77 -39 120.5t-134 74.5zM195 -213l49 146h30l-54 -146h-25z" />
    <glyph glyph-name="scommaaccent" unicode="&#x219;" horiz-adv-x="450" 
d="M208 297q-36 8 -57.5 15.5t-44.5 24t-33.5 44t-10.5 68.5q0 65 40 104.5t123 39.5q166 0 166 -146h-24q-2 63 -34.5 93.5t-106.5 30.5q-141 0 -141 -121q0 -65 31 -90.5t101 -40.5q36 -8 54.5 -12.5t47 -17t43 -28.5t25.5 -43.5t11 -64.5q0 -78 -43.5 -121.5
t-132.5 -43.5t-132.5 38t-43.5 122h23q-1 -66 34.5 -102t117.5 -36q153 0 153 142q0 39 -12 65t-38.5 41.5t-50 23t-65.5 15.5zM159 -213l49 146h30l-54 -146h-25z" />
    <glyph glyph-name="uni021A" unicode="&#x21a;" horiz-adv-x="477" 
d="M442 762v-24h-191v-738h-25v738h-191v24h407zM189 -213l49 146h30l-54 -146h-25z" />
    <glyph glyph-name="uni021B" unicode="&#x21b;" horiz-adv-x="301" 
d="M256 17l-1 -22q-26 -7 -55 -7q-70 0 -98 36t-28 117v573h24v-139h157v-23h-157v-410q0 -77 23.5 -104t80.5 -27q24 0 54 6zM100 -213l49 146h30l-54 -146h-25z" />
    <glyph glyph-name="dotlessj" unicode="&#x237;" horiz-adv-x="194" 
d="M84 -21l1 602h24l-1 -599q0 -99 -21.5 -140.5t-90.5 -36.5v24q55 -1 71.5 26.5t16.5 123.5z" />
    <glyph glyph-name="circumflex" unicode="&#x2c6;" horiz-adv-x="500" 
d="M120 650l119 112h22l119 -112h-32l-98 91l-98 -91h-32z" />
    <glyph glyph-name="caron" unicode="&#x2c7;" horiz-adv-x="500" 
d="M380 762l-119 -112h-22l-119 112h32l98 -91l98 91h32z" />
    <glyph glyph-name="breve" unicode="&#x2d8;" horiz-adv-x="500" 
d="M250 646q-102 0 -107 102h22q6 -80 85 -80t85 80h22q-5 -102 -107 -102z" />
    <glyph glyph-name="dotaccent" unicode="&#x2d9;" horiz-adv-x="500" 
d="M237 725v47h26v-47h-26z" />
    <glyph glyph-name="ring" unicode="&#x2da;" horiz-adv-x="500" 
d="M250 667q37 0 52 16t15 50t-15 50t-52 16t-52 -16t-15 -50t15 -50t52 -16zM250 643q-92 0 -92 90t92 90t92 -90t-92 -90z" />
    <glyph glyph-name="ogonek" unicode="&#x2db;" horiz-adv-x="294" 
d="M217 -180v-24q-28 -8 -55 -8q-97 0 -97 67q0 23 13.5 46t39 44t44.5 34t46 29l17 -8q-6 -4 -25 -16t-27 -18t-24 -17.5t-24 -20.5t-17 -21t-13 -25t-4 -26q0 -45 71 -45q26 0 55 9z" />
    <glyph glyph-name="tilde" unicode="&#x2dc;" horiz-adv-x="500" 
d="M141 655h-24q19 74 70 74q26 0 65 -25q42 -28 64 -28q31 0 46 53h24q-19 -74 -70 -74q-26 0 -65 25q-42 28 -64 28q-31 0 -46 -53z" />
    <glyph glyph-name="hungarumlaut" unicode="&#x2dd;" horiz-adv-x="500" 
d="M198 650h-24l67 133h30zM314 649h-23l72 134h30z" />
    <glyph glyph-name="Wgrave" unicode="&#x1e80;" horiz-adv-x="752" 
d="M524 0l-148 689l-148 -689h-36l-157 762h27l148 -735l151 701h32l149 -696l148 730h27l-157 -762h-36zM387 825h-27l-94 133h32z" />
    <glyph glyph-name="wgrave" unicode="&#x1e81;" horiz-adv-x="668" 
d="M320 581h29l137 -555l132 555h25l-140 -581h-33l-136 538l-136 -538h-33l-140 581h26l131 -553zM345 670h-27l-94 133h32z" />
    <glyph glyph-name="Wacute" unicode="&#x1e82;" horiz-adv-x="752" 
d="M524 0l-148 689l-148 -689h-36l-157 762h27l148 -735l151 701h32l149 -696l148 730h27l-157 -762h-36zM388 825h-27l89 133h32z" />
    <glyph glyph-name="wacute" unicode="&#x1e83;" horiz-adv-x="668" 
d="M320 581h29l137 -555l132 555h25l-140 -581h-33l-136 538l-136 -538h-33l-140 581h26l131 -553zM346 670h-27l89 133h32z" />
    <glyph glyph-name="Wdieresis" unicode="&#x1e84;" horiz-adv-x="752" 
d="M524 0l-148 689l-148 -689h-36l-157 762h27l148 -735l151 701h32l149 -696l148 730h27l-157 -762h-36zM286 865v37h31v-37h-31zM433 865v37h31v-37h-31z" />
    <glyph glyph-name="wdieresis" unicode="&#x1e85;" horiz-adv-x="668" 
d="M320 581h29l137 -555l132 555h25l-140 -581h-33l-136 538l-136 -538h-33l-140 581h26l131 -553zM245 710v37h31v-37h-31zM392 710v37h31v-37h-31z" />
    <glyph glyph-name="Ygrave" unicode="&#x1ef2;" horiz-adv-x="507" 
d="M10 762h29l215 -395l216 395h27l-231 -420v-342h-25v342zM264 825h-27l-94 133h32z" />
    <glyph glyph-name="ygrave" unicode="&#x1ef3;" horiz-adv-x="431" 
d="M207 -43l7 27l-194 597h26l182 -562l159 562h26l-182 -626q-26 -91 -57 -124.5t-82 -33.5q-26 0 -46 9v23q21 -9 45 -9q45 0 69.5 29t46.5 108zM221 670h-27l-94 133h32z" />
    <glyph glyph-name="endash" unicode="&#x2013;" horiz-adv-x="352" 
d="M327 305v-22h-302v22h302z" />
    <glyph glyph-name="emdash" unicode="&#x2014;" horiz-adv-x="654" 
d="M25 305h604v-22h-604v22z" />
    <glyph glyph-name="quoteleft" unicode="&#x2018;" horiz-adv-x="137" 
d="M59 612h-24l57 160h20z" />
    <glyph glyph-name="quoteright" unicode="&#x2019;" horiz-adv-x="137" 
d="M88 772h24l-58 -160h-19z" />
    <glyph glyph-name="quotesinglbase" unicode="&#x201a;" horiz-adv-x="137" 
d="M88 34h24l-59 -160h-19z" />
    <glyph glyph-name="quotedblleft" unicode="&#x201c;" horiz-adv-x="257" 
d="M59 612h-24l57 160h20zM179 612h-24l57 160h20z" />
    <glyph glyph-name="quotedblright" unicode="&#x201d;" horiz-adv-x="257" 
d="M88 772h24l-58 -160h-19zM208 772h24l-58 -160h-19z" />
    <glyph glyph-name="quotedblbase" unicode="&#x201e;" horiz-adv-x="257" 
d="M88 34h24l-59 -160h-19zM208 34h24l-59 -160h-19z" />
    <glyph glyph-name="dagger" unicode="&#x2020;" horiz-adv-x="393" 
d="M358 553v-22h-150l-1 -654h-23l1 654h-150v22h150v273h23v-273h150z" />
    <glyph glyph-name="daggerdbl" unicode="&#x2021;" horiz-adv-x="393" 
d="M358 184v-22h-150l-1 -285h-23l1 285h-150v22h150v335h-150v22h150v285h23v-285h150v-22h-150v-335h150z" />
    <glyph glyph-name="bullet" unicode="&#x2022;" horiz-adv-x="246" 
d="M171 377v-125h-96v125h96z" />
    <glyph glyph-name="ellipsis" unicode="&#x2026;" horiz-adv-x="1000" 
d="M517 43v-43h-33v43h33zM183 43v-43h-33v43h33zM850 43v-43h-33v43h33z" />
    <glyph glyph-name="perthousand" unicode="&#x2030;" horiz-adv-x="976" 
d="M88 631v-64q0 -78 22.5 -106.5t76.5 -28.5t76.5 28.5t22.5 106.5v64q0 75 -22.5 102t-76.5 27t-76.5 -27t-22.5 -102zM64 561v76q0 81 31 113t92 32t92 -32t31 -113v-76q0 -85 -31 -118t-92 -33t-92 33t-31 118zM591 131v64q0 78 -22.5 106.5t-76.5 28.5t-76.5 -28.5
t-22.5 -106.5v-64q0 -75 22.5 -102t76.5 -27t76.5 27t22.5 102zM615 201v-76q0 -81 -31.5 -113t-92.5 -32t-91.5 31.5t-30.5 113.5v76q0 85 31 118t92 33t92 -33t31 -118zM162 0h-26l381 762h26zM888 131v64q0 78 -22.5 106.5t-76.5 28.5t-76.5 -28.5t-22.5 -106.5v-64
q0 -75 22.5 -102t76.5 -27t76.5 27t22.5 102zM912 201v-76q0 -81 -31.5 -113t-92.5 -32t-91.5 31.5t-30.5 113.5v76q0 85 31 118t92 33t92 -33t31 -118z" />
    <glyph glyph-name="guilsinglleft" unicode="&#x2039;" horiz-adv-x="305" 
d="M55 318l138 218h27l-136 -218l136 -220h-27z" />
    <glyph glyph-name="guilsinglright" unicode="&#x203a;" horiz-adv-x="305" 
d="M250 318l-137 -220h-28l136 220l-136 218h28z" />
    <glyph glyph-name="fraction" unicode="&#x2044;" horiz-adv-x="125" 
d="M278 762h27l-458 -762h-27z" />
    <glyph glyph-name="Euro" unicode="&#x20ac;" horiz-adv-x="560" 
d="M409 327v-21h-252v-51q0 -50 2 -81t11 -65.5t26 -53.5t48 -31.5t76 -12.5q74 0 105 41.5t37 135.5h23q-4 -101 -43 -150.5t-124 -49.5q-111 0 -148.5 63t-37.5 203v52h-108v21h108v108h-108v21h108v48q0 141 37.5 205.5t141.5 64.5q171 0 171 -197h-23q0 174 -148 174
q-41 0 -70 -12.5t-45.5 -32t-25 -53t-11 -64.5t-2.5 -78v-55h252v-21h-252v-108h252z" />
    <glyph glyph-name="trademark" unicode="&#x2122;" horiz-adv-x="617" 
d="M287 762h26l112 -253l113 253h24v-428h-21v388l-106 -238h-20l-107 235v-385h-21v428zM260 763v-21h-107v-408h-22v408h-106v21h235z" />
    <glyph glyph-name="minus" unicode="&#x2212;" horiz-adv-x="450" 
d="M399 399v-23h-348v23h348z" />
    <glyph glyph-name="approxequal" unicode="&#x2248;" horiz-adv-x="548" 
d="M382 384q-30 0 -61 15.5t-53 34t-51 34t-56 15.5q-32 0 -51.5 -27.5t-21.5 -67.5h-23q4 56 31.5 87t65.5 31q30 0 61 -15.5t52.5 -34t50.5 -34t57 -15.5q32 0 51.5 27.5t21.5 67.5h23q-4 -56 -31.5 -87t-65.5 -31zM386 184q-30 0 -61 15.5t-53 34t-51 34t-56 15.5
q-32 0 -51.5 -27.5t-21.5 -67.5h-23q4 56 31.5 87t65.5 31q30 0 61 -15.5t52.5 -34t50.5 -34t57 -15.5q32 0 51.5 27.5t21.5 67.5h23q-4 -56 -31.5 -87t-65.5 -31z" />
    <glyph glyph-name="notequal" unicode="&#x2260;" horiz-adv-x="450" 
d="M372 303v-23h-202l-68 -110h-24l68 110h-68v23h83l104 166h-187v23h201l69 110h24l-69 -110h69v-23h-84l-103 -166h187z" />
    <glyph glyph-name="lessequal" unicode="&#x2264;" horiz-adv-x="450" 
d="M77 308v20l295 192v-28l-270 -174l270 -173v-28zM399 23v-23h-348v23h348z" />
    <glyph glyph-name="greaterequal" unicode="&#x2265;" horiz-adv-x="450" 
d="M372 329v-20l-295 -192v28l270 173l-270 174v28zM399 23v-23h-348v23h348z" />
    <glyph glyph-name="commaaccent" unicode="&#xf6c3;" horiz-adv-x="500" 
d="M195 -213l49 146h30l-54 -146h-25z" />
    <glyph glyph-name="a.alt" 
d="M65 206v171q0 216 176 216q54 0 92.5 -23t56.5 -63v74h24v-581h-22l-4 71q-46 -83 -154 -83q-169 0 -169 218zM89 374v-170q0 -97 35.5 -145.5t112.5 -48.5q68 0 110.5 40t42.5 110v242q0 89 -41 129t-108 40q-152 0 -152 -197z" />
    <glyph glyph-name="g.alt" horiz-adv-x="440" 
d="M363 581h22l1 -294q0 -89 -50 -137q56 -53 56 -148l-1 -23q0 -189 -170 -189q-83 0 -125.5 38t-42.5 122h23q-1 -66 33.5 -102t111.5 -36q145 0 145 166l1 23q0 90 -49 134q-45 -31 -112 -31q-170 0 -170 218v55q0 216 176 216q55 0 93.5 -23.5t55.5 -63.5zM60 374v-54
q0 -97 35.5 -145.5t112.5 -48.5q68 0 110.5 40t42.5 110v126q0 89 -41 129t-108 40q-152 0 -152 -197z" />
    <glyph glyph-name="gbreve.alt" horiz-adv-x="440" 
d="M363 581h22l1 -294q0 -89 -50 -137q56 -53 56 -148l-1 -23q0 -189 -170 -189q-83 0 -125.5 38t-42.5 122h23q-1 -66 33.5 -102t111.5 -36q145 0 145 166l1 23q0 90 -49 134q-45 -31 -112 -31q-170 0 -170 218v55q0 216 176 216q55 0 93.5 -23.5t55.5 -63.5zM60 374v-54
q0 -97 35.5 -145.5t112.5 -48.5q68 0 110.5 40t42.5 110v126q0 89 -41 129t-108 40q-152 0 -152 -197zM225 666q-102 0 -107 102h22q6 -80 85 -80t85 80h22q-5 -102 -107 -102z" />
    <glyph glyph-name="gcircumflex.alt" horiz-adv-x="440" 
d="M363 581h22l1 -294q0 -89 -50 -137q56 -53 56 -148l-1 -23q0 -189 -170 -189q-83 0 -125.5 38t-42.5 122h23q-1 -66 33.5 -102t111.5 -36q145 0 145 166l1 23q0 90 -49 134q-45 -31 -112 -31q-170 0 -170 218v55q0 216 176 216q55 0 93.5 -23.5t55.5 -63.5zM60 374v-54
q0 -97 35.5 -145.5t112.5 -48.5q68 0 110.5 40t42.5 110v126q0 89 -41 129t-108 40q-152 0 -152 -197zM95 670l119 112h22l119 -112h-32l-98 91l-98 -91h-32z" />
    <glyph glyph-name="gcommaaccent.alt" horiz-adv-x="440" 
d="M363 581h22l1 -294q0 -89 -50 -137q56 -53 56 -148l-1 -23q0 -189 -170 -189q-83 0 -125.5 38t-42.5 122h23q-1 -66 33.5 -102t111.5 -36q145 0 145 166l1 23q0 90 -49 134q-45 -31 -112 -31q-170 0 -170 218v55q0 216 176 216q55 0 93.5 -23.5t55.5 -63.5zM60 374v-54
q0 -97 35.5 -145.5t112.5 -48.5q68 0 110.5 40t42.5 110v126q0 89 -41 129t-108 40q-152 0 -152 -197zM279 798l-49 -146h-30l54 146h25z" />
    <glyph glyph-name="gdotaccent.alt" horiz-adv-x="440" 
d="M363 581h22l1 -294q0 -89 -50 -137q56 -53 56 -148l-1 -23q0 -189 -170 -189q-83 0 -125.5 38t-42.5 122h23q-1 -66 33.5 -102t111.5 -36q145 0 145 166l1 23q0 90 -49 134q-45 -31 -112 -31q-170 0 -170 218v55q0 216 176 216q55 0 93.5 -23.5t55.5 -63.5zM60 374v-54
q0 -97 35.5 -145.5t112.5 -48.5q68 0 110.5 40t42.5 110v126q0 89 -41 129t-108 40q-152 0 -152 -197zM212 745v47h26v-47h-26z" />
    <glyph glyph-name="y.alt" horiz-adv-x="509" 
d="M400 581h24v-552q-1 -131 -42.5 -181.5t-137.5 -50.5q-76 0 -114 31.5t-42 101.5h23q7 -111 133 -111q89 0 122 46.5t34 160.5v49q-44 -87 -156 -87q-169 0 -169 218v375h24v-377q0 -97 35.5 -145.5t112.5 -48.5q68 0 110.5 40t42.5 110v421z" />
    <glyph glyph-name="yacute.alt" horiz-adv-x="509" 
d="M400 581h24v-552q-1 -131 -42.5 -181.5t-137.5 -50.5q-76 0 -114 31.5t-42 101.5h23q7 -111 133 -111q89 0 122 46.5t34 160.5v49q-44 -87 -156 -87q-169 0 -169 218v375h24v-377q0 -97 35.5 -145.5t112.5 -48.5q68 0 110.5 40t42.5 110v421zM262 670h-27l89 133h32z" />
    <glyph glyph-name="ycircumflex.alt" horiz-adv-x="509" 
d="M400 581h24v-552q-1 -131 -42.5 -181.5t-137.5 -50.5q-76 0 -114 31.5t-42 101.5h23q7 -111 133 -111q89 0 122 46.5t34 160.5v49q-44 -87 -156 -87q-169 0 -169 218v375h24v-377q0 -97 35.5 -145.5t112.5 -48.5q68 0 110.5 40t42.5 110v421zM120 670l119 112h22
l119 -112h-32l-98 91l-98 -91h-32z" />
    <glyph glyph-name="ydieresis.alt" horiz-adv-x="509" 
d="M400 581h24v-552q-1 -131 -42.5 -181.5t-137.5 -50.5q-76 0 -114 31.5t-42 101.5h23q7 -111 133 -111q89 0 122 46.5t34 160.5v49q-44 -87 -156 -87q-169 0 -169 218v375h24v-377q0 -97 35.5 -145.5t112.5 -48.5q68 0 110.5 40t42.5 110v421zM161 710v37h31v-37h-31z
M308 710v37h31v-37h-31z" />
    <glyph glyph-name="ygrave.alt" horiz-adv-x="509" 
d="M400 581h24v-552q-1 -131 -42.5 -181.5t-137.5 -50.5q-76 0 -114 31.5t-42 101.5h23q7 -111 133 -111q89 0 122 46.5t34 160.5v49q-44 -87 -156 -87q-169 0 -169 218v375h24v-377q0 -97 35.5 -145.5t112.5 -48.5q68 0 110.5 40t42.5 110v421zM261 670h-27l-94 133h32z
" />
    <glyph glyph-name="agrave.alt" 
d="M65 206v171q0 216 176 216q54 0 92.5 -23t56.5 -63v74h24v-581h-22l-4 71q-46 -83 -154 -83q-169 0 -169 218zM89 374v-170q0 -97 35.5 -145.5t112.5 -48.5q68 0 110.5 40t42.5 110v242q0 89 -41 129t-108 40q-152 0 -152 -197zM251 670h-27l-94 133h32z" />
    <glyph glyph-name="aacute.alt" 
d="M65 206v171q0 216 176 216q54 0 92.5 -23t56.5 -63v74h24v-581h-22l-4 71q-46 -83 -154 -83q-169 0 -169 218zM89 374v-170q0 -97 35.5 -145.5t112.5 -48.5q68 0 110.5 40t42.5 110v242q0 89 -41 129t-108 40q-152 0 -152 -197zM252 670h-27l89 133h32z" />
    <glyph glyph-name="acircumflex.alt" 
d="M65 206v171q0 216 176 216q54 0 92.5 -23t56.5 -63v74h24v-581h-22l-4 71q-46 -83 -154 -83q-169 0 -169 218zM89 374v-170q0 -97 35.5 -145.5t112.5 -48.5q68 0 110.5 40t42.5 110v242q0 89 -41 129t-108 40q-152 0 -152 -197zM110 670l119 112h22l119 -112h-32l-98 91
l-98 -91h-32z" />
    <glyph glyph-name="atilde.alt" 
d="M65 206v171q0 216 176 216q54 0 92.5 -23t56.5 -63v74h24v-581h-22l-4 71q-46 -83 -154 -83q-169 0 -169 218zM89 374v-170q0 -97 35.5 -145.5t112.5 -48.5q68 0 110.5 40t42.5 110v242q0 89 -41 129t-108 40q-152 0 -152 -197zM131 675h-24q19 74 70 74q26 0 65 -25
q42 -28 64 -28q31 0 46 53h24q-19 -74 -70 -74q-26 0 -65 25q-42 28 -64 28q-31 0 -46 -53z" />
    <glyph glyph-name="adieresis.alt" 
d="M65 206v171q0 216 176 216q54 0 92.5 -23t56.5 -63v74h24v-581h-22l-4 71q-46 -83 -154 -83q-169 0 -169 218zM89 374v-170q0 -97 35.5 -145.5t112.5 -48.5q68 0 110.5 40t42.5 110v242q0 89 -41 129t-108 40q-152 0 -152 -197zM151 710v37h31v-37h-31zM298 710v37h31
v-37h-31z" />
    <glyph glyph-name="aring.alt" 
d="M65 206v171q0 216 176 216q54 0 92.5 -23t56.5 -63v74h24v-581h-22l-4 71q-46 -83 -154 -83q-169 0 -169 218zM89 374v-170q0 -97 35.5 -145.5t112.5 -48.5q68 0 110.5 40t42.5 110v242q0 89 -41 129t-108 40q-152 0 -152 -197zM240 687q37 0 52 16t15 50t-15 50t-52 16
t-52 -16t-15 -50t15 -50t52 -16zM240 663q-92 0 -92 90t92 90t92 -90t-92 -90z" />
    <glyph glyph-name="amacron.alt" 
d="M65 206v171q0 216 176 216q54 0 92.5 -23t56.5 -63v74h24v-581h-22l-4 71q-46 -83 -154 -83q-169 0 -169 218zM89 374v-170q0 -97 35.5 -145.5t112.5 -48.5q68 0 110.5 40t42.5 110v242q0 89 -41 129t-108 40q-152 0 -152 -197zM130 734h220v-24h-220v24z" />
    <glyph glyph-name="abreve.alt" 
d="M65 206v171q0 216 176 216q54 0 92.5 -23t56.5 -63v74h24v-581h-22l-4 71q-46 -83 -154 -83q-169 0 -169 218zM89 374v-170q0 -97 35.5 -145.5t112.5 -48.5q68 0 110.5 40t42.5 110v242q0 89 -41 129t-108 40q-152 0 -152 -197zM240 666q-102 0 -107 102h22q6 -80 85 -80
t85 80h22q-5 -102 -107 -102z" />
    <glyph glyph-name="aogonek.alt" 
d="M65 206v171q0 216 176 216q54 0 92.5 -23t56.5 -63v74h24v-581h-22l-4 71q-46 -83 -154 -83q-169 0 -169 218zM89 374v-170q0 -97 35.5 -145.5t112.5 -48.5q68 0 110.5 40t42.5 110v242q0 89 -41 129t-108 40q-152 0 -152 -197zM406 -180v-24q-28 -8 -55 -8q-97 0 -97 67
q0 23 13.5 46t39 44t44.5 34t46 29l17 -8q-6 -4 -25 -16t-27 -18t-24 -17.5t-24 -20.5t-17 -21t-13 -25t-4 -26q0 -45 71 -45q27 0 55 9z" />
    <glyph glyph-name="aringacute.alt" 
d="M65 206v171q0 216 176 216q54 0 92.5 -23t56.5 -63v74h24v-581h-22l-4 71q-46 -83 -154 -83q-169 0 -169 218zM89 374v-170q0 -97 35.5 -145.5t112.5 -48.5q68 0 110.5 40t42.5 110v242q0 89 -41 129t-108 40q-152 0 -152 -197zM245 637q37 0 52 16t15 50t-15 50t-52 16
t-52 -16t-15 -50t15 -50t52 -16zM245 613q-92 0 -92 90t92 90t92 -90t-92 -90zM217 810h-27l89 133h32z" />
    </font>
</defs>
</svg>
