<?xml version="1.0" standalone="no"?>
<!DOCTYPE svg PUBLIC "-//W3C//DTD SVG 1.1//EN" "http://www.w3.org/Graphics/SVG/1.1/DTD/svg11.dtd" >
<svg xmlns="http://www.w3.org/2000/svg" xmlns:xlink="http://www.w3.org/1999/xlink" version="1.1">
<metadata>
Created by FontForge 20170731 at Sun Jun  5 00:29:50 2016
 By Aleksey,,,
Armasen Typefaces 2011 - All rights reserved.
</metadata>
<defs>
<font id="Kelson-ExtraBold" horiz-adv-x="603" >
  <font-face 
    font-family="Kelson ExtraBold"
    font-weight="800"
    font-stretch="normal"
    units-per-em="1000"
    panose-1="2 0 5 6 3 0 0 2 0 4"
    ascent="800"
    descent="-200"
    x-height="611"
    cap-height="762"
    bbox="-220 -269 1180 1100"
    underline-thickness="50"
    underline-position="-200"
    unicode-range="U+0008-FB02"
  />
<missing-glyph horiz-adv-x="500" 
d="M42 0v762h416v-762h-416zM122 677v-592h256v592h-256z" />
    <glyph glyph-name="fi" unicode="fi" horiz-adv-x="707" 
d="M244 576v-5h142v-169h-142v-402h-194v545q0 130 61 188t190 58q56 0 92 -9v-150q-30 7 -61 7q-88 0 -88 -63zM657 611v-611h-194v611h194zM657 842v-172h-194v172h194z" />
    <glyph glyph-name="fl" unicode="fl" horiz-adv-x="742" 
d="M244 576v-5h142v-169h-142v-402h-194v545q0 130 61 188t190 58q56 0 92 -9v-150q-30 7 -61 7q-88 0 -88 -63zM729 165v-174q-31 -3 -57 -3q-117 0 -163 62t-46 200v522h194v-529q0 -43 14 -61t44 -18q11 0 14 1z" />
    <glyph glyph-name=".notdef" horiz-adv-x="500" 
d="M42 0v762h416v-762h-416zM122 677v-592h256v592h-256z" />
    <glyph glyph-name=".null" horiz-adv-x="0" 
 />
    <glyph glyph-name=".null" horiz-adv-x="0" 
 />
    <glyph glyph-name=".null" horiz-adv-x="0" 
 />
    <glyph glyph-name="nonmarkingreturn" horiz-adv-x="333" 
 />
    <glyph glyph-name="CR" unicode="&#xd;" horiz-adv-x="250" 
 />
    <glyph glyph-name="space" unicode=" " horiz-adv-x="250" 
 />
    <glyph glyph-name="exclam" unicode="!" horiz-adv-x="299" 
d="M59 762h181l-2 -500h-176zM244 193v-193h-189v193h189z" />
    <glyph glyph-name="quotedbl" unicode="&#x22;" horiz-adv-x="474" 
d="M198 508h-129l-19 264h168zM404 508h-129l-19 264h168z" />
    <glyph glyph-name="numbersign" unicode="#" horiz-adv-x="660" 
d="M454 763h130l-36 -169h103l-27 -127h-102l-36 -171h103l-27 -127h-103l-35 -169h-130l35 169h-88l-35 -169h-130l35 169h-102l27 127h102l36 171h-103l27 127h102l36 169h130l-36 -169h88zM304 467l-36 -171h88l36 171h-88z" />
    <glyph glyph-name="dollar" unicode="$" horiz-adv-x="610" 
d="M388 -120h-168v115q-103 19 -148.5 83.5t-45.5 153.5h193q2 -39 21 -59t71 -20q44 0 62.5 18t18.5 55q0 34 -27 50t-106 35q-38 9 -62.5 16.5t-57 25.5t-51.5 41t-33 62t-14 90q0 90 45.5 146t133.5 73v116h168v-116q83 -16 127.5 -72t53.5 -162h-193q-5 42 -23.5 59.5
t-55.5 17.5q-67 0 -67 -55q0 -33 21.5 -49.5t75.5 -28.5q26 -6 37.5 -8.5t37.5 -10t39.5 -13.5t36 -17.5t35 -23.5t28.5 -30t24 -38t14 -47t6 -58q0 -203 -197 -234v-115z" />
    <glyph glyph-name="percent" unicode="%" horiz-adv-x="865" 
d="M230 554v71q0 26 -5 34.5t-21 8.5q-15 0 -20 -8.5t-5 -34.5v-71q0 -26 5 -35t20 -9q16 0 21 9t5 35zM45 553v79q0 43 13.5 73.5t37.5 46.5t50.5 23t57.5 7q32 0 58.5 -7t50.5 -23t37.5 -46.5t13.5 -73.5v-79q0 -85 -45.5 -120.5t-114.5 -35.5q-68 0 -113.5 35.5
t-45.5 120.5zM635 208v-71q0 -26 5 -34.5t21 -8.5q15 0 20 8.5t5 34.5v71q0 26 -5 35t-20 9q-16 0 -21 -9t-5 -35zM820 209v-79q0 -43 -13.5 -73.5t-37.5 -46.5t-50.5 -23t-57.5 -7q-32 0 -58.5 7t-50.5 23t-37.5 46.5t-13.5 73.5v79q0 85 45.5 120.5t114.5 35.5
q68 0 113.5 -35.5t45.5 -120.5zM550 762h146l-381 -762h-146z" />
    <glyph glyph-name="ampersand" unicode="&#x26;" horiz-adv-x="674" 
d="M632 317h-79v-74q0 -45 13 -62t47 -17q14 0 21 1v-174q-28 -3 -53 -3q-108 0 -148 63q-57 -63 -171 -63q-110 0 -173.5 55.5t-63.5 162.5q0 67 32.5 117t93.5 74q-100 48 -100 169q0 93 65 150.5t187 57.5q115 0 180.5 -60.5t75.5 -175.5h-194q-3 42 -18.5 63.5
t-50.5 21.5q-64 0 -64 -64q0 -39 29 -62.5t81 -23.5h290v-156zM374 265v52h-52q-106 0 -106 -93q0 -81 74 -81q45 0 64.5 28.5t19.5 93.5z" />
    <glyph glyph-name="quotesingle" unicode="'" horiz-adv-x="268" 
d="M198 508h-129l-19 264h168z" />
    <glyph glyph-name="parenleft" unicode="(" horiz-adv-x="351" 
d="M254 573v-459q0 -43 15 -61t45 -18q2 0 6 0.5t6 0.5v-174q-32 -3 -58 -3q-118 0 -165.5 62.5t-47.5 199.5v445q0 137 47.5 199.5t165.5 62.5q26 0 58 -3v-174q-2 0 -6 0.5t-6 0.5q-30 0 -45 -18t-15 -61z" />
    <glyph glyph-name="parenright" unicode=")" horiz-adv-x="351" 
d="M97 114v459q0 43 -15 61t-45 18q-2 0 -6 -0.5t-6 -0.5v174q32 3 58 3q118 0 165.5 -62.5t47.5 -199.5v-445q0 -137 -47.5 -199.5t-165.5 -62.5q-26 0 -58 3v174q2 0 6 -0.5t6 -0.5q30 0 45 18t15 61z" />
    <glyph glyph-name="asterisk" unicode="*" horiz-adv-x="474" 
d="M331 627q-1 -7 -1 -28q63 -20 94 -52l-122 -121q-32 31 -49 92q-18 3 -30 2q-21 -66 -50 -93l-120 120q33 35 89 48q3 10 3 28q-27 10 -37.5 14t-27.5 14t-30 24l123 122q32 -32 50 -93h29q17 57 50 92l121 -122q-32 -32 -92 -47z" />
    <glyph glyph-name="plus" unicode="+" horiz-adv-x="610" 
d="M531 445v-159h-141v-145h-171v145h-140v159h140v148h171v-148h141z" />
    <glyph glyph-name="comma" unicode="," horiz-adv-x="325" 
d="M168 -181h-153l63 307h192z" />
    <glyph glyph-name="hyphen" unicode="-" horiz-adv-x="348" 
d="M303 396v-160h-258v160h258z" />
    <glyph glyph-name="period" unicode="." horiz-adv-x="325" 
d="M257 193v-193h-189v193h189z" />
    <glyph glyph-name="slash" unicode="/" horiz-adv-x="444" 
d="M239 772h180l-214 -784h-180z" />
    <glyph glyph-name="zero" unicode="0" horiz-adv-x="626" 
d="M245 508v-254q0 -46 16 -66t52 -20t52 20t16 66v254q0 46 -16 66t-52 20t-52 -20t-16 -66zM313 774q140 0 204 -69.5t64 -207.5v-233q0 -137 -64 -206.5t-204 -69.5t-204 69.5t-64 206.5v233q0 138 64 207.5t204 69.5z" />
    <glyph glyph-name="one" unicode="1" horiz-adv-x="510" 
d="M40 170h137v404l-142 -56v184l168 60h174v-592h113v-170h-450v170z" />
    <glyph glyph-name="two" unicode="2" horiz-adv-x="558" 
d="M229 186v-16h288v-170h-491v133q0 69 17 121t43.5 82.5t59.5 53.5t65.5 38.5t59 31.5t43.5 40t17 56q0 29 -17.5 45t-49.5 16q-76 0 -76 -97h-168q0 124 61 188t194 64q126 0 187 -58t61 -148q0 -65 -22 -114t-54.5 -76t-70.5 -51t-70.5 -40t-54.5 -41.5t-22 -57.5z" />
    <glyph glyph-name="three" unicode="3" horiz-adv-x="573" 
d="M531 566q0 -123 -88 -165q46 -20 73 -64t27 -108q0 -115 -72.5 -178t-190.5 -63q-134 0 -197 61.5t-63 181.5h192q0 -77 69 -77q67 0 67 78q0 39 -20 55.5t-76 16.5h-68v161h74q86 0 86 76q0 66 -72 66t-72 -74h-169q0 126 63.5 183.5t186.5 57.5q110 0 180 -52.5
t70 -155.5z" />
    <glyph glyph-name="four" unicode="4" horiz-adv-x="607" 
d="M506 0h-189v157h-302v159l254 446h237v-444h71v-161h-71v-157zM193 318h124v235z" />
    <glyph glyph-name="five" unicode="5" horiz-adv-x="572" 
d="M497 592h-266v-101h41q140 0 206.5 -59.5t68.5 -184.5v-8q0 -126 -67 -188.5t-187 -62.5q-144 0 -203.5 68.5t-59.5 194.5h192q0 -55 15 -76t52 -21q65 0 65 83v6q0 44 -24 63.5t-81 19.5h-203v436h451v-170z" />
    <glyph glyph-name="six" unicode="6" horiz-adv-x="602" 
d="M567 273v-55q0 -110 -68 -170t-197 -60q-257 0 -257 246v301q0 123 69.5 181t191.5 58q131 0 189.5 -62t58.5 -164h-185q-4 68 -64 68q-32 0 -49 -18.5t-17 -65.5v-68q44 35 118 35q96 0 153 -55.5t57 -170.5zM239 270v-53q0 -41 16 -57t50 -16t50 16t16 57v53
q0 41 -16 57t-50 16t-50 -16t-16 -57z" />
    <glyph glyph-name="seven" unicode="7" horiz-adv-x="536" 
d="M268 0h-211l250 592h-292v170h496v-168z" />
    <glyph glyph-name="eight" unicode="8" horiz-adv-x="610" 
d="M305 774q125 0 192.5 -52t67.5 -157q0 -123 -80 -165q92 -47 92 -178q0 -234 -272 -234t-272 234q0 131 91 178q-79 41 -79 165q0 105 67.5 157t192.5 52zM305 152q42 0 57.5 18.5t15.5 59.5t-15.5 59.5t-57.5 18.5t-57.5 -18.5t-15.5 -59.5t15.5 -59.5t57.5 -18.5z
M374 542q0 37 -16 53t-53 16t-53 -16t-16 -53t16 -53t53 -16t53 16t16 53z" />
    <glyph glyph-name="nine" unicode="9" horiz-adv-x="602" 
d="M35 489v55q0 110 68 170t197 60q257 0 257 -246v-301q0 -123 -69.5 -181t-191.5 -58q-131 0 -189.5 62t-58.5 164h185q4 -68 64 -68q32 0 49 18.5t17 65.5v67q-43 -34 -118 -34q-96 0 -153 55.5t-57 170.5zM363 492v53q0 41 -16 57t-50 16t-50 -16t-16 -57v-53
q0 -41 16 -57t50 -16t50 16t16 57z" />
    <glyph glyph-name="colon" unicode=":" horiz-adv-x="325" 
d="M257 193v-193h-189v193h189zM257 611v-193h-189v193h189z" />
    <glyph glyph-name="semicolon" unicode=";" horiz-adv-x="325" 
d="M257 611v-193h-189v193h189zM168 -181h-153l63 307h192z" />
    <glyph glyph-name="less" unicode="&#x3c;" horiz-adv-x="610" 
d="M103 225v186l404 176v-178l-219 -88l219 -81v-190z" />
    <glyph glyph-name="equal" unicode="=" horiz-adv-x="610" 
d="M531 319v-159h-452v159h452zM531 555v-159h-452v159h452z" />
    <glyph glyph-name="greater" unicode="&#x3e;" horiz-adv-x="610" 
d="M507 412v-186l-404 -176v178l218 87l-218 82v190z" />
    <glyph glyph-name="question" unicode="?" horiz-adv-x="560" 
d="M348 271v-9h-181v10q0 56 12.5 93t30.5 51.5t40 26t40 19t30.5 29t12.5 56.5q0 72 -65 72q-75 0 -75 -97h-168q0 124 60 188t191 64q126 0 187.5 -59.5t61.5 -160.5q0 -58 -13 -98.5t-33 -58t-42.5 -31.5t-42.5 -22t-33 -26.5t-13 -46.5zM353 193v-193h-189v193h189z" />
    <glyph glyph-name="at" unicode="@" horiz-adv-x="1017" 
d="M555 562h143v-198q0 -48 10 -65t36 -17q27 0 38 24t11 88q0 255 -290 255q-73 0 -123 -12.5t-88 -43.5t-56 -88.5t-18 -143.5q0 -146 69.5 -210t217.5 -64q110 0 205 20l1 -130q-90 -22 -208 -22q-217 0 -332 94t-115 306q0 219 115 322.5t342 103.5q94 0 172.5 -22
t139.5 -66.5t95.5 -119.5t34.5 -174q0 -255 -194 -255q-111 0 -153 58q-45 -62 -142 -62q-82 0 -131.5 50t-49.5 142v48q0 90 47 141t112 51q67 0 104 -39zM444 375v-37q0 -32 12.5 -45.5t39.5 -13.5q50 0 50 59v37q0 59 -50 59q-52 0 -52 -59z" />
    <glyph glyph-name="A" unicode="A" horiz-adv-x="695" 
d="M228 762h239l218 -762h-210l-37 163h-192l-37 -163h-199zM342 585l-57 -249h113z" />
    <glyph glyph-name="B" unicode="B" horiz-adv-x="648" 
d="M613 243v-8q0 -122 -66.5 -178.5t-213.5 -56.5h-278v762h245q147 0 208 -46.5t62 -162.5v-7q0 -92 -60 -135q103 -45 103 -168zM415 231v6q0 38 -16 53t-54 15h-100v-150h102q38 0 53 17t15 59zM245 607v-151h68q38 0 53.5 18t15.5 60v6q0 38 -17 52.5t-57 14.5h-63z" />
    <glyph glyph-name="C" unicode="C" horiz-adv-x="664" 
d="M415 288h214v-24q0 -134 -73.5 -205t-216.5 -71q-142 0 -215.5 71t-73.5 205v233q0 135 73.5 206t215.5 71q143 0 216.5 -71t73.5 -206v-15h-214v19q0 86 -76 86q-40 0 -59.5 -23t-19.5 -79v-212q0 -54 19.5 -76t59.5 -22q76 0 76 86v27z" />
    <glyph glyph-name="D" unicode="D" horiz-adv-x="659" 
d="M55 0v762h250q304 0 304 -286v-192q0 -284 -302 -284h-252zM310 586h-64v-410h63q46 0 68.5 21.5t22.5 71.5v225q0 49 -22.5 70.5t-67.5 21.5z" />
    <glyph glyph-name="E" unicode="E" horiz-adv-x="585" 
d="M255 587v-120h232v-169h-232v-123h285v-175h-485v762h475v-175h-275z" />
    <glyph glyph-name="F" unicode="F" horiz-adv-x="551" 
d="M526 762v-175h-271v-140h211v-175h-211v-272h-200v762h471z" />
    <glyph glyph-name="G" unicode="G" horiz-adv-x="683" 
d="M345 420h298v-156q0 -276 -297 -276q-143 0 -219.5 71t-76.5 205v233q0 134 76.5 205.5t219.5 71.5q144 0 220.5 -69.5t76.5 -202.5v-9h-204v15q0 96 -93 96q-96 0 -96 -113v-226q0 -59 25.5 -83t78.5 -24q39 0 67 21.5t28 67.5v9h-104v164z" />
    <glyph glyph-name="H" unicode="H" horiz-adv-x="695" 
d="M640 762v-762h-198v301h-187v-301h-200v762h200v-286h187v286h198z" />
    <glyph glyph-name="I" unicode="I" horiz-adv-x="310" 
d="M255 762v-762h-200v762h200z" />
    <glyph glyph-name="J" unicode="J" horiz-adv-x="588" 
d="M5 269h185q0 -101 77 -101q71 0 71 94v500h200v-488q0 -156 -67 -221t-196 -65q-138 0 -204 67.5t-66 213.5z" />
    <glyph glyph-name="K" unicode="K" horiz-adv-x="701" 
d="M686 0h-235l-138 301h-58v-301h-200v762h200v-285h58l119 285h224l-185 -365z" />
    <glyph glyph-name="L" unicode="L" horiz-adv-x="546" 
d="M516 180v-180h-461v762h200v-582h261z" />
    <glyph glyph-name="M" unicode="M" horiz-adv-x="792" 
d="M55 762h226l122 -353l122 353h212v-762h-179v450l-88 -253h-148l-88 254v-451h-179v762z" />
    <glyph glyph-name="N" unicode="N" horiz-adv-x="692" 
d="M55 762h202l194 -435v435h186v-762h-200l-194 416v-416h-188v762z" />
    <glyph glyph-name="O" unicode="O" horiz-adv-x="684" 
d="M260 508v-254q0 -86 82 -86t82 86v254q0 86 -82 86t-82 -86zM342 774q143 0 217.5 -71t74.5 -206v-233q0 -134 -74.5 -205t-217.5 -71t-217.5 71t-74.5 205v233q0 135 74.5 206t217.5 71z" />
    <glyph glyph-name="P" unicode="P" horiz-adv-x="625" 
d="M55 0v762h265q145 0 212.5 -61t67.5 -185v-12q0 -123 -66.5 -184.5t-208.5 -61.5h-70v-258h-200zM255 593v-165h70q46 0 63 16.5t17 59.5v13q0 43 -17 59.5t-64 16.5h-69z" />
    <glyph glyph-name="Q" unicode="Q" horiz-adv-x="684" 
d="M342 774q143 0 217.5 -71t74.5 -206v-233q0 -161 -107 -231l108 -196h-223l-56 151h-14q-143 0 -217.5 71t-74.5 205v233q0 135 74.5 206t217.5 71zM260 508v-254q0 -86 82 -86t82 86v254q0 86 -82 86t-82 -86z" />
    <glyph glyph-name="R" unicode="R" horiz-adv-x="635" 
d="M55 0v762h257q145 0 212.5 -61t67.5 -185v-11q0 -142 -90 -199l128 -306h-222l-91 264h-67v-264h-195zM250 599v-170h67q46 0 63 17t17 60v15q0 43 -17.5 60.5t-63.5 17.5h-66z" />
    <glyph glyph-name="S" unicode="S" horiz-adv-x="608" 
d="M257 311q-39 9 -63.5 16.5t-58 25.5t-53 41t-33.5 62.5t-14 90.5q0 110 65.5 168.5t190.5 58.5q132 0 202 -56t81 -186h-199q-5 43 -21.5 60t-57.5 17q-39 0 -53 -13t-14 -42q0 -33 21.5 -49.5t76.5 -28.5q26 -6 38 -8.5t38.5 -10t40.5 -13.5t37 -17.5t36 -23.5t29 -30
t24 -38.5t14 -47.5t6 -58q0 -114 -66.5 -177.5t-221.5 -63.5q-78 0 -135 20t-88 56t-45 77.5t-14 90.5h198q2 -40 21 -59.5t72 -19.5q44 0 62.5 18t18.5 55q0 34 -27 50t-108 35z" />
    <glyph glyph-name="T" unicode="T" horiz-adv-x="619" 
d="M409 0h-200v587h-174v175h549v-175h-175v-587z" />
    <glyph glyph-name="U" unicode="U" horiz-adv-x="681" 
d="M434 762h197v-488q0 -139 -73.5 -212.5t-218.5 -73.5t-217 73t-72 213v488h198v-486q0 -58 23 -83t68 -25q48 0 71.5 25t23.5 84v485z" />
    <glyph glyph-name="V" unicode="V" horiz-adv-x="633" 
d="M443 0h-252l-186 762h219l97 -561l96 561h211z" />
    <glyph glyph-name="W" unicode="W" horiz-adv-x="950" 
d="M559 0l-85 507l-86 -507h-215l-158 762h213l64 -525l83 525h205l82 -522l65 522h208l-158 -762h-218z" />
    <glyph glyph-name="X" unicode="X" horiz-adv-x="663" 
d="M651 0h-226l-101 259l-91 -259h-223l198 393l-183 369h226l93 -237l85 237h224l-192 -377z" />
    <glyph glyph-name="Y" unicode="Y" horiz-adv-x="665" 
d="M232 0v312l-227 450h220l112 -295l113 295h210l-228 -452v-310h-200z" />
    <glyph glyph-name="Z" unicode="Z" horiz-adv-x="589" 
d="M559 599l-302 -424h294v-175h-531v162l302 425h-282v175h519v-163z" />
    <glyph glyph-name="bracketleft" unicode="[" horiz-adv-x="383" 
d="M55 -141v969h283v-177h-84v-615h84v-177h-283z" />
    <glyph glyph-name="backslash" unicode="\" horiz-adv-x="444" 
d="M25 772h180l214 -784h-180z" />
    <glyph glyph-name="bracketright" unicode="]" horiz-adv-x="383" 
d="M328 828v-969h-283v177h84v615h-84v177h283z" />
    <glyph glyph-name="asciicircum" unicode="^" horiz-adv-x="641" 
d="M428 221l-108 195l-107 -195h-178l192 335h187l192 -335h-178z" />
    <glyph glyph-name="underscore" unicode="_" horiz-adv-x="539" 
d="M519 -23v-155h-499v155h499z" />
    <glyph glyph-name="grave" unicode="`" horiz-adv-x="500" 
d="M365 660h-161l-114 133h196z" />
    <glyph glyph-name="a" unicode="a" horiz-adv-x="582" 
d="M366 0l-10 46q-42 -58 -140 -58q-80 0 -130.5 47.5t-50.5 129.5q0 97 58 144t186 47q21 0 73 -4v47q0 74 -61 74q-34 0 -49 -17.5t-15 -55.5h-175q0 121 61.5 172t186.5 51q113 0 175 -51t62 -170v-402h-171zM352 204v35q-19 3 -52 3q-74 0 -74 -56q0 -52 56 -52
q29 0 49.5 18.5t20.5 51.5z" />
    <glyph glyph-name="b" unicode="b" 
d="M50 772h194v-187q47 38 125 38q93 0 143.5 -63t50.5 -183v-153q0 -111 -57 -173.5t-137 -62.5q-83 0 -128 47l-8 -35h-183v772zM244 380v-150q0 -72 62 -72q32 0 47 17t15 56v149q0 41 -14 57t-48 16t-48 -16t-14 -57z" />
    <glyph glyph-name="c" unicode="c" horiz-adv-x="595" 
d="M372 242h188v-11q0 -122 -64 -182.5t-197 -60.5q-259 0 -259 246v143q0 246 260 246q131 0 195.5 -58.5t64.5 -179.5v-17h-188v15q0 40 -17 55t-52 15t-51.5 -16.5t-16.5 -56.5v-149q0 -40 16.5 -56.5t51.5 -16.5t52 15t17 55v14z" />
    <glyph glyph-name="d" unicode="d" horiz-adv-x="604" 
d="M234 -12q-93 0 -143.5 63t-50.5 183v153q0 112 59.5 174t148.5 62q70 0 112 -31v180h194v-772h-169l-10 42q-48 -54 -141 -54zM359 231v150q0 72 -62 72q-32 0 -47 -17t-15 -56v-149q0 -41 14 -57t48 -16t48 16t14 57z" />
    <glyph glyph-name="e" unicode="e" horiz-adv-x="587" 
d="M369 200h178q-5 -106 -62.5 -159t-186.5 -53q-131 0 -194.5 60.5t-63.5 188.5v150q0 109 65.5 172.5t192.5 63.5t190.5 -58.5t63.5 -180.5v-128h-321v-43q0 -79 66 -79q37 0 52.5 16.5t19.5 49.5zM300 480q-36 0 -52.5 -18.5t-16.5 -60.5v-23h138v26q0 76 -69 76z" />
    <glyph glyph-name="f" unicode="f" horiz-adv-x="413" 
d="M244 576v-5h142v-169h-142v-402h-194v545q0 130 61 188t190 58q56 0 92 -9v-150q-30 7 -61 7q-88 0 -88 -63z" />
    <glyph glyph-name="g" unicode="g" 
d="M359 20v51q-37 -33 -105 -33q-102 0 -158 63t-56 183v103q0 111 57 173.5t137 62.5q83 0 128 -47l8 35h183v-575q0 -123 -68 -181t-189 -58q-132 0 -188 54.5t-56 153.5h185q2 -35 16.5 -49.5t48.5 -14.5q28 0 42.5 17.5t14.5 61.5zM359 281v100q0 72 -62 72
q-32 0 -47 -17t-15 -56v-99q0 -41 14 -57t48 -16t48 16t14 57z" />
    <glyph glyph-name="h" unicode="h" 
d="M244 772v-188q46 39 130 39q181 0 181 -221v-402h-194v380q0 39 -13.5 56t-44.5 17q-30 0 -44.5 -17t-14.5 -58v-378h-194v772h194z" />
    <glyph glyph-name="i" unicode="i" horiz-adv-x="294" 
d="M244 611v-611h-194v611h194zM244 842v-172h-194v172h194z" />
    <glyph glyph-name="j" unicode="j" horiz-adv-x="294" 
d="M244 842v-172h-194v172h194zM-26 -192v163q8 -1 22 -1q31 0 42.5 15t11.5 62v564h194v-561q0 -136 -51 -190t-170 -54q-21 0 -49 2z" />
    <glyph glyph-name="k" unicode="k" horiz-adv-x="646" 
d="M626 611l-205 -279l215 -332h-234l-129 236h-30v-236h-193v772h194v-365h26l130 204h226z" />
    <glyph glyph-name="l" unicode="l" horiz-adv-x="329" 
d="M316 165v-174q-32 -3 -57 -3q-117 0 -163 62t-46 200v522h194v-529q0 -43 14 -61t44 -18q11 0 14 1z" />
    <glyph glyph-name="m" unicode="m" horiz-adv-x="911" 
d="M377 623q89 0 131 -65q54 65 161 65q102 0 149.5 -51t47.5 -170v-402h-194v380q0 39 -13.5 56t-44.5 17q-30 0 -44.5 -16.5t-14.5 -55.5v-381h-194v380q0 39 -13.5 56t-44.5 17q-30 0 -44.5 -16.5t-14.5 -55.5v-381h-194v611h168l10 -43q48 55 149 55z" />
    <glyph glyph-name="n" unicode="n" 
d="M555 402v-402h-194v380q0 39 -13.5 56t-44.5 17q-30 0 -44.5 -17t-14.5 -58v-378h-194v611h168l10 -43q48 55 146 55q181 0 181 -221z" />
    <glyph glyph-name="o" unicode="o" horiz-adv-x="594" 
d="M235 380v-149q0 -41 14 -57t48 -16t48 16t14 57v149q0 41 -14 57t-48 16t-48 -16t-14 -57zM297 623q257 0 257 -246v-143q0 -246 -257 -246t-257 246v143q0 246 257 246z" />
    <glyph glyph-name="p" unicode="p" 
d="M369 623q93 0 143.5 -63t50.5 -183v-153q0 -112 -59.5 -174t-148.5 -62q-71 0 -112 30v-211h-193v804h168l9 -42q51 54 142 54zM244 380v-150q0 -72 62 -72q32 0 47 17t15 56v149q0 41 -14 57t-48 16t-48 -16t-14 -57z" />
    <glyph glyph-name="q" unicode="q" 
d="M553 -193h-194v219q-47 -38 -125 -38q-93 0 -143.5 63t-50.5 183v153q0 111 57 173.5t137 62.5q83 0 128 -47l8 35h183v-804zM359 231v150q0 72 -62 72q-32 0 -47 -17t-15 -56v-149q0 -41 14 -57t48 -16t48 16t14 57z" />
    <glyph glyph-name="r" unicode="r" horiz-adv-x="416" 
d="M50 611h168l13 -58q21 31 58.5 49t79.5 18q9 0 27 -2v-201q-25 5 -47 5q-105 0 -105 -120v-302h-194v611z" />
    <glyph glyph-name="s" unicode="s" horiz-adv-x="566" 
d="M314 384q220 -28 220 -194q0 -99 -69 -150.5t-188 -51.5q-122 0 -183 56t-61 152h185q4 -66 72 -66q25 0 39.5 13t14.5 34q0 26 -13 39t-61 18q-116 13 -170 57t-54 138q0 95 67 144.5t177 49.5q235 0 235 -208h-178q0 66 -63 66q-25 0 -39 -12t-14 -32q0 -21 15.5 -33.5
t67.5 -19.5z" />
    <glyph glyph-name="t" unicode="t" horiz-adv-x="389" 
d="M307 164q23 0 36 3v-172q-30 -7 -85 -7q-118 0 -165.5 62.5t-47.5 199.5v459h199v-138h100v-169h-100v-159q0 -44 13.5 -61.5t49.5 -17.5z" />
    <glyph glyph-name="u" unicode="u" horiz-adv-x="599" 
d="M48 209v402h194v-380q0 -40 12.5 -56.5t43.5 -16.5q30 0 43.5 17t13.5 58v378h194v-611h-168l-10 43q-48 -55 -144 -55q-179 0 -179 221z" />
    <glyph glyph-name="v" unicode="v" horiz-adv-x="569" 
d="M5 611h212l69 -422l69 422h209l-157 -611h-244z" />
    <glyph glyph-name="w" unicode="w" horiz-adv-x="839" 
d="M335 611h184l70 -408l45 408h195l-135 -611h-210l-65 349l-65 -349h-209l-135 611h206l45 -408z" />
    <glyph glyph-name="x" unicode="x" horiz-adv-x="604" 
d="M587 0h-211l-77 190l-78 -190h-206l166 308l-152 303h210l71 -175l72 175h207l-161 -297z" />
    <glyph glyph-name="y" unicode="y" horiz-adv-x="576" 
d="M181 13l-179 598h215l81 -390l56 390h212l-125 -504q-44 -175 -113.5 -242.5t-188.5 -67.5q-54 0 -98 11v175q32 -6 54 -6q36 0 53 6.5t33 29.5z" />
    <glyph glyph-name="z" unicode="z" horiz-adv-x="534" 
d="M491 441l-218 -271h231v-170h-474v170l220 271h-210v170h451v-170z" />
    <glyph glyph-name="braceleft" unicode="{" horiz-adv-x="429" 
d="M45 256v174h12q40 0 53.5 17t13.5 62v57q0 139 43.5 200.5t159.5 61.5q25 0 57 -3v-174q-2 0 -6 0.5t-6 0.5q-29 0 -42 -18t-13 -61v-93q0 -56 -22 -91t-59 -46q81 -26 81 -137v-93q0 -43 13 -61t42 -18q2 0 6 0.5t6 0.5v-174q-32 -3 -57 -3q-116 0 -159.5 61.5
t-43.5 200.5v57q0 45 -13.5 62t-53.5 17h-12z" />
    <glyph glyph-name="bar" unicode="|" horiz-adv-x="310" 
d="M255 826v-949h-200v949h200z" />
    <glyph glyph-name="braceright" unicode="}" horiz-adv-x="429" 
d="M384 430v-174h-12q-40 0 -53.5 -17t-13.5 -62v-57q0 -139 -43.5 -200.5t-159.5 -61.5q-26 0 -57 3v174q2 0 6 -0.5t6 -0.5q29 0 42 18t13 61v93q0 55 22 90t58 47q-36 11 -58 46t-22 91v93q0 43 -13 61t-42 18q-2 0 -6 -0.5t-6 -0.5v174q32 3 57 3q116 0 159.5 -61.5
t43.5 -200.5v-57q0 -45 13.5 -62t53.5 -17h12z" />
    <glyph glyph-name="asciitilde" unicode="~" horiz-adv-x="610" 
d="M412 481h140q0 -89 -39 -143t-105 -54q-44 0 -76.5 15.5t-54.5 31t-41 15.5q-17 0 -27.5 -14t-10.5 -40h-140q0 89 39 143t105 54q44 0 76.5 -15.5t54.5 -31t41 -15.5q17 0 27.5 14t10.5 40z" />
    <glyph glyph-name="exclamdown" unicode="&#xa1;" horiz-adv-x="299" 
d="M240 -151h-181l2 500h176zM55 418v193h189v-193h-189z" />
    <glyph glyph-name="cent" unicode="&#xa2;" horiz-adv-x="595" 
d="M372 242h188v-11q0 -199 -170 -234v-117h-176v116q-174 36 -174 238v143q0 201 174 238v116h176v-116q170 -36 170 -230v-17h-188v15q0 40 -17 55t-52 15t-51.5 -16.5t-16.5 -56.5v-149q0 -40 16.5 -56.5t51.5 -16.5t52 15t17 55v14z" />
    <glyph glyph-name="sterling" unicode="&#xa3;" horiz-adv-x="610" 
d="M363 774q113 0 174.5 -58.5t61.5 -174.5v-17h-182v16q0 77 -56 77q-28 0 -42 -17.5t-14 -63.5v-92h187v-162h-187v-117h292v-165h-566v167h85v115h-80v162h80v85q0 245 247 245z" />
    <glyph glyph-name="currency" unicode="&#xa4;" horiz-adv-x="610" 
d="M1 182l89 82q-6 30 -6 66v7q0 35 6 65l-89 83l115 123l81 -77q46 17 108 17t108 -17l81 77l115 -123l-90 -83q7 -35 7 -65v-7q0 -31 -7 -66l90 -82l-115 -123l-82 76q-44 -16 -107 -16q-64 0 -108 16l-81 -76zM245 340v-13q0 -40 14 -55t46 -15t46 15t14 55v13
q0 40 -14 55t-46 15t-46 -15t-14 -55z" />
    <glyph glyph-name="yen" unicode="&#xa5;" horiz-adv-x="665" 
d="M60 432h117l-152 330h220l92 -293l93 293h210l-153 -330h118v-125h-173v-68h173v-125h-173v-114h-200v114h-172v125h172v68h-172v125z" />
    <glyph glyph-name="brokenbar" unicode="&#xa6;" horiz-adv-x="310" 
d="M55 277h200v-400h-200v400zM255 426h-200v400h200v-400z" />
    <glyph glyph-name="section" unicode="&#xa7;" horiz-adv-x="571" 
d="M544 428q0 -94 -80 -133q72 -50 72 -145q0 -99 -69 -150.5t-188 -51.5q-122 0 -183 56t-61 152h185q4 -66 72 -66q25 0 39.5 13t14.5 34q0 25 -14 38t-62 19q-116 13 -171 51.5t-55 118.5q0 44 23 76.5t58 43.5q-73 47 -73 151q0 95 67 144.5t177 49.5q235 0 235 -208
h-178q0 66 -63 66q-25 0 -39 -12t-14 -32q0 -21 16.5 -33.5t68.5 -19.5q222 -28 222 -162zM278 440h-5q-21 -1 -32.5 -13t-11.5 -30q0 -21 16.5 -33.5t68.5 -19.5l15 -2q25 11 25 41q0 25 -14 38t-62 19z" />
    <glyph glyph-name="dieresis" unicode="&#xa8;" horiz-adv-x="500" 
d="M221 819v-149h-151v149h151zM430 819v-149h-151v149h151z" />
    <glyph glyph-name="copyright" unicode="&#xa9;" horiz-adv-x="794" 
d="M430 301h119q0 -147 -159 -147t-159 149v86q0 149 160 149q158 0 158 -147h-119q0 23 -8.5 32t-28.5 9t-29.5 -9.5t-9.5 -33.5v-86q0 -24 9.5 -33.5t29.5 -9.5t28.5 8.5t8.5 32.5zM397 78q124 0 188 51t64 167v100q0 116 -64 167t-188 51t-188 -51t-64 -167v-100
q0 -116 64 -167t188 -51zM397 -23q-172 0 -267 80t-95 239v99q0 159 95 239.5t267 80.5t267 -80t95 -239v-99q0 -159 -95 -239.5t-267 -80.5z" />
    <glyph glyph-name="ordfeminine" unicode="&#xaa;" horiz-adv-x="453" 
d="M403 343h-125l-6 29q-32 -38 -96 -38q-55 0 -90.5 33t-35.5 90q0 68 40.5 101t129.5 33q22 0 48 -3v26q0 29 -7.5 40.5t-28.5 11.5q-23 0 -33 -11t-10 -37h-127q0 85 43 120.5t132 35.5q79 0 122.5 -35.5t43.5 -119.5v-276zM268 485v21q-14 2 -31 2q-46 0 -46 -36
q0 -32 34 -32q18 0 30.5 11.5t12.5 33.5zM403 301v-121h-345v121h345z" />
    <glyph glyph-name="guillemotleft" unicode="&#xab;" horiz-adv-x="646" 
d="M35 339l123 208h191l-122 -209l122 -208h-191zM286 339l123 208h192l-122 -209l122 -208h-192z" />
    <glyph glyph-name="logicalnot" unicode="&#xac;" horiz-adv-x="610" 
d="M531 485v-264h-171v105h-281v159h452z" />
    <glyph glyph-name="uni00AD" unicode="&#xad;" horiz-adv-x="348" 
d="M303 396v-160h-258v160h258z" />
    <glyph glyph-name="registered" unicode="&#xae;" horiz-adv-x="794" 
d="M397 -23q-172 0 -267 80t-95 239v99q0 159 95 239.5t267 80.5t267 -80t95 -239v-99q0 -159 -95 -239.5t-267 -80.5zM397 78q124 0 188 51t64 167v100q0 116 -64 167t-188 51t-188 -51t-64 -167v-100q0 -116 64 -167t188 -51zM262 172v348h148q133 0 133 -119v-4
q0 -69 -45 -97l58 -128h-126l-33 94h-29v-94h-106zM368 427v-68h29q21 0 29.5 7.5t8.5 24.5v4q0 18 -8.5 25t-29.5 7h-29z" />
    <glyph glyph-name="macron" unicode="&#xaf;" horiz-adv-x="500" 
d="M110 807h280v-128h-280v128z" />
    <glyph glyph-name="degree" unicode="&#xb0;" horiz-adv-x="398" 
d="M199 499q-75 0 -114.5 33.5t-39.5 97.5v21q0 64 39.5 98t114.5 34t114.5 -34t39.5 -98v-21q0 -64 -39.5 -97.5t-114.5 -33.5zM199 591q23 0 33 10t10 33v14q0 23 -10 33t-33 10t-33 -10t-10 -33v-14q0 -23 10 -33t33 -10z" />
    <glyph glyph-name="plusminus" unicode="&#xb1;" horiz-adv-x="610" 
d="M531 159v-159h-452v159h452zM531 495v-159h-141v-115h-171v115h-140v159h140v118h171v-118h141z" />
    <glyph glyph-name="twosuperior" unicode="&#xb2;" horiz-adv-x="365" 
d="M324 657q0 -38 -16.5 -67t-34 -41.5t-47.5 -28.5t-38 -22q-14 -11 -19 -19h155v-107h-286v57q0 49 17 83t41.5 51t49.5 29t42 26.5t17 34.5q0 11 -8 18.5t-21 7.5q-38 0 -38 -45h-104q0 140 151 140q66 0 102.5 -33t36.5 -84z" />
    <glyph glyph-name="threesuperior" unicode="&#xb3;" horiz-adv-x="365" 
d="M313 662q0 -57 -39 -81q45 -24 45 -86t-40.5 -95.5t-105.5 -33.5q-76 0 -109.5 31.5t-33.5 97.5h109q0 -34 32 -34q14 0 22.5 9t8.5 22q0 32 -42 32h-37v91h36q41 0 41 34q0 29 -30 29q-31 0 -31 -36h-102q0 132 138 132q61 0 99.5 -28.5t38.5 -83.5z" />
    <glyph glyph-name="acute" unicode="&#xb4;" horiz-adv-x="500" 
d="M296 660h-161l79 133h196z" />
    <glyph glyph-name="mu" unicode="&#xb5;" horiz-adv-x="599" 
d="M381 0l-6 26q-35 -38 -82 -38q-27 0 -51 11v-192h-194v804h194v-380q0 -40 12.5 -56.5t43.5 -16.5q30 0 43.5 17t13.5 58v378h194v-611h-168z" />
    <glyph glyph-name="paragraph" unicode="&#xb6;" horiz-adv-x="652" 
d="M213 -124v387l-17 3q-82 15 -116.5 70t-34.5 148q0 110 49 167t169 57h115v-832h-165zM597 708v-832h-165v832h165z" />
    <glyph glyph-name="periodcentered" unicode="&#xb7;" horiz-adv-x="325" 
d="M257 379v-193h-189v193h189z" />
    <glyph glyph-name="cedilla" unicode="&#xb8;" horiz-adv-x="500" 
d="M163 -95l17 95h133l-7 -37q46 -7 71.5 -36t25.5 -72q0 -124 -172 -124q-73 0 -134 26l19 106q45 -19 82 -19q46 0 46 28q0 17 -17.5 25t-63.5 8z" />
    <glyph glyph-name="onesuperior" unicode="&#xb9;" horiz-adv-x="365" 
d="M63 472h67v170l-70 -24v115l86 28h111v-289h54v-107h-248v107z" />
    <glyph glyph-name="ordmasculine" unicode="&#xba;" horiz-adv-x="482" 
d="M203 605v-74q0 -46 6 -59.5t32 -13.5q27 0 33.5 14t6.5 59v47q0 45 -7 59t-33 14q-21 0 -29.5 -10t-8.5 -36zM60 505v98q0 171 181 171t181 -171v-98q0 -171 -181 -171t-181 171zM432 301v-121h-382v121h382z" />
    <glyph glyph-name="guillemotright" unicode="&#xbb;" horiz-adv-x="646" 
d="M611 338l-123 -208h-191l122 209l-122 208h191zM360 338l-123 -208h-192l122 209l-122 208h192z" />
    <glyph glyph-name="onequarter" unicode="&#xbc;" horiz-adv-x="816" 
d="M584 762h126l-441 -762h-126zM726 0h-111v80h-170v94l135 222h146v-222h40v-94h-40v-80zM63 472h67v170l-70 -24v115l86 28h111v-289h54v-107h-248v107zM542 174h73v119z" />
    <glyph glyph-name="onehalf" unicode="&#xbd;" horiz-adv-x="816" 
d="M574 762h126l-441 -762h-126zM63 472h67v170l-70 -24v115l86 28h111v-289h54v-107h-248v107zM769 285q0 -38 -16.5 -67t-34 -41.5t-47.5 -28.5t-38 -22q-14 -11 -19 -19h155v-107h-286v57q0 49 17 83t41.5 51t49.5 29t42 26.5t17 34.5q0 11 -8 18.5t-21 7.5
q-38 0 -38 -45h-104q0 140 151 140q66 0 102.5 -33t36.5 -84z" />
    <glyph glyph-name="threequarters" unicode="&#xbe;" horiz-adv-x="816" 
d="M573 762h126l-441 -762h-126zM726 0h-111v80h-170v94l135 222h146v-222h40v-94h-40v-80zM313 662q0 -57 -39 -81q45 -24 45 -86t-40.5 -95.5t-105.5 -33.5q-76 0 -109.5 31.5t-33.5 97.5h109q0 -34 32 -34q14 0 22.5 9t8.5 22q0 32 -42 32h-37v91h36q41 0 41 34
q0 29 -30 29q-31 0 -31 -36h-102q0 132 138 132q61 0 99.5 -28.5t38.5 -83.5zM542 174h73v119z" />
    <glyph glyph-name="questiondown" unicode="&#xbf;" horiz-adv-x="560" 
d="M202 340v9h181v-10q0 -56 -12.5 -93t-30.5 -51.5t-40 -26t-40 -19t-30.5 -29t-12.5 -56.5q0 -72 65 -72q75 0 75 97h168q0 -124 -60 -188t-191 -64q-126 0 -187.5 59.5t-61.5 160.5q0 58 13 98.5t33 58t42.5 31.5t42.5 22t33 26.5t13 46.5zM197 418v193h189v-193h-189z
" />
    <glyph glyph-name="Agrave" unicode="&#xc0;" horiz-adv-x="695" 
d="M228 762h239l218 -762h-210l-37 163h-192l-37 -163h-199zM342 585l-57 -249h113zM458 835h-161l-114 133h196z" />
    <glyph glyph-name="Aacute" unicode="&#xc1;" horiz-adv-x="695" 
d="M228 762h239l218 -762h-210l-37 163h-192l-37 -163h-199zM342 585l-57 -249h113zM393 835h-161l79 133h196z" />
    <glyph glyph-name="Acircumflex" unicode="&#xc2;" horiz-adv-x="695" 
d="M228 762h239l218 -762h-210l-37 163h-192l-37 -163h-199zM342 585l-57 -249h113zM391 835l-44 45l-44 -45h-171l149 146h132l149 -146h-171z" />
    <glyph glyph-name="Atilde" unicode="&#xc3;" horiz-adv-x="695" 
d="M228 762h239l218 -762h-210l-37 163h-192l-37 -163h-199zM342 585l-57 -249h113zM433 998h114q0 -79 -31.5 -124t-85.5 -45q-46 0 -82 23q-6 3 -15 9.5t-14 9.5t-13 5.5t-15 2.5q-30 0 -30 -44h-114q0 79 31 124.5t85 45.5q46 0 91 -28q36 -22 49 -22t21.5 11.5t8.5 31.5
z" />
    <glyph glyph-name="Adieresis" unicode="&#xc4;" horiz-adv-x="695" 
d="M228 762h239l218 -762h-210l-37 163h-192l-37 -163h-199zM342 585l-57 -249h113zM314 994v-149h-151v149h151zM523 994v-149h-151v149h151z" />
    <glyph glyph-name="Aring" unicode="&#xc5;" horiz-adv-x="695" 
d="M228 762h239l218 -762h-210l-37 163h-192l-37 -163h-199zM342 585l-57 -249h113zM497 959q0 -63 -38 -102t-112 -39t-112 39t-38 102t38 102t112 39t112 -39t38 -102zM397 959q0 54 -50 54t-50 -54t50 -54t50 54z" />
    <glyph glyph-name="AE" unicode="&#xc6;" horiz-adv-x="948" 
d="M306 762h587v-175h-275v-120h232v-169h-232v-123h285v-175h-485v163h-149l-57 -163h-207zM330 339h88v251z" />
    <glyph glyph-name="Ccedilla" unicode="&#xc7;" horiz-adv-x="664" 
d="M415 288h214v-24q0 -134 -73.5 -205t-216.5 -71q-142 0 -215.5 71t-73.5 205v233q0 135 73.5 206t215.5 71q143 0 216.5 -71t73.5 -206v-15h-214v19q0 86 -76 86q-40 0 -59.5 -23t-19.5 -79v-212q0 -54 19.5 -76t59.5 -22q76 0 76 86v27zM252 -95l17 95h133l-7 -37
q46 -7 71.5 -36t25.5 -72q0 -124 -172 -124q-73 0 -134 26l19 106q45 -19 82 -19q46 0 46 28q0 17 -17.5 25t-63.5 8z" />
    <glyph glyph-name="Egrave" unicode="&#xc8;" horiz-adv-x="585" 
d="M255 587v-120h232v-169h-232v-123h285v-175h-485v762h475v-175h-275zM407 835h-161l-114 133h196z" />
    <glyph glyph-name="Eacute" unicode="&#xc9;" horiz-adv-x="585" 
d="M255 587v-120h232v-169h-232v-123h285v-175h-485v762h475v-175h-275zM342 835h-161l79 133h196z" />
    <glyph glyph-name="Ecircumflex" unicode="&#xca;" horiz-adv-x="585" 
d="M255 587v-120h232v-169h-232v-123h285v-175h-485v762h475v-175h-275zM340 835l-44 45l-44 -45h-171l149 146h132l149 -146h-171z" />
    <glyph glyph-name="Edieresis" unicode="&#xcb;" horiz-adv-x="585" 
d="M255 587v-120h232v-169h-232v-123h285v-175h-485v762h475v-175h-275zM267 994v-149h-151v149h151zM476 994v-149h-151v149h151z" />
    <glyph glyph-name="Igrave" unicode="&#xcc;" horiz-adv-x="310" 
d="M255 762v-762h-200v762h200zM266 835h-161l-114 133h196z" />
    <glyph glyph-name="Iacute" unicode="&#xcd;" horiz-adv-x="310" 
d="M255 762v-762h-200v762h200zM201 835h-161l79 133h196z" />
    <glyph glyph-name="Icircumflex" unicode="&#xce;" horiz-adv-x="310" 
d="M255 762v-762h-200v762h200zM199 835l-44 45l-44 -45h-171l149 146h132l149 -146h-171z" />
    <glyph glyph-name="Idieresis" unicode="&#xcf;" horiz-adv-x="310" 
d="M255 762v-762h-200v762h200zM126 994v-149h-151v149h151zM335 994v-149h-151v149h151z" />
    <glyph glyph-name="Eth" unicode="&#xd0;" horiz-adv-x="680" 
d="M76 0v301h-61v160h61v301h250q304 0 304 -286v-192q0 -284 -302 -284h-252zM331 586h-64v-125h72v-160h-72v-125h63q46 0 68.5 21.5t22.5 71.5v225q0 49 -22.5 70.5t-67.5 21.5z" />
    <glyph glyph-name="Ntilde" unicode="&#xd1;" horiz-adv-x="692" 
d="M55 762h202l194 -435v435h186v-762h-200l-194 416v-416h-188v762zM436 998h114q0 -79 -31.5 -124t-85.5 -45q-46 0 -82 23q-6 3 -15 9.5t-14 9.5t-13 5.5t-15 2.5q-30 0 -30 -44h-114q0 79 31 124.5t85 45.5q46 0 91 -28q36 -22 49 -22t21.5 11.5t8.5 31.5z" />
    <glyph glyph-name="Ograve" unicode="&#xd2;" horiz-adv-x="684" 
d="M260 508v-254q0 -86 82 -86t82 86v254q0 86 -82 86t-82 -86zM342 774q143 0 217.5 -71t74.5 -206v-233q0 -134 -74.5 -205t-217.5 -71t-217.5 71t-74.5 205v233q0 135 74.5 206t217.5 71zM453 835h-161l-114 133h196z" />
    <glyph glyph-name="Oacute" unicode="&#xd3;" horiz-adv-x="684" 
d="M260 508v-254q0 -86 82 -86t82 86v254q0 86 -82 86t-82 -86zM342 774q143 0 217.5 -71t74.5 -206v-233q0 -134 -74.5 -205t-217.5 -71t-217.5 71t-74.5 205v233q0 135 74.5 206t217.5 71zM388 835h-161l79 133h196z" />
    <glyph glyph-name="Ocircumflex" unicode="&#xd4;" horiz-adv-x="684" 
d="M260 508v-254q0 -86 82 -86t82 86v254q0 86 -82 86t-82 -86zM342 774q143 0 217.5 -71t74.5 -206v-233q0 -134 -74.5 -205t-217.5 -71t-217.5 71t-74.5 205v233q0 135 74.5 206t217.5 71zM386 835l-44 45l-44 -45h-171l149 146h132l149 -146h-171z" />
    <glyph glyph-name="Otilde" unicode="&#xd5;" horiz-adv-x="684" 
d="M260 508v-254q0 -86 82 -86t82 86v254q0 86 -82 86t-82 -86zM342 774q143 0 217.5 -71t74.5 -206v-233q0 -134 -74.5 -205t-217.5 -71t-217.5 71t-74.5 205v233q0 135 74.5 206t217.5 71zM428 998h114q0 -79 -31.5 -124t-85.5 -45q-46 0 -82 23q-6 3 -15 9.5t-14 9.5
t-13 5.5t-15 2.5q-30 0 -30 -44h-114q0 79 31 124.5t85 45.5q46 0 91 -28q36 -22 49 -22t21.5 11.5t8.5 31.5z" />
    <glyph glyph-name="Odieresis" unicode="&#xd6;" horiz-adv-x="684" 
d="M260 508v-254q0 -86 82 -86t82 86v254q0 86 -82 86t-82 -86zM342 774q143 0 217.5 -71t74.5 -206v-233q0 -134 -74.5 -205t-217.5 -71t-217.5 71t-74.5 205v233q0 135 74.5 206t217.5 71zM313 994v-149h-151v149h151zM522 994v-149h-151v149h151z" />
    <glyph glyph-name="multiply" unicode="&#xd7;" horiz-adv-x="610" 
d="M194 559l111 -111l111 112l118 -108l-116 -117l117 -115l-126 -118l-112 111l-110 -112l-118 108l115 116l-116 116z" />
    <glyph glyph-name="Oslash" unicode="&#xd8;" horiz-adv-x="678" 
d="M339 774q94 0 158 -32l34 56h138l-82 -136q41 -65 41 -165v-233q0 -134 -73.5 -205t-215.5 -71q-92 0 -159 31l-33 -55h-138l81 135q-40 64 -40 165v233q0 135 73.5 206t215.5 71zM249 518v-180l152 253q-22 19 -62 19q-90 0 -90 -92zM339 152q90 0 90 92v179l-152 -253
q21 -18 62 -18z" />
    <glyph glyph-name="Ugrave" unicode="&#xd9;" horiz-adv-x="681" 
d="M434 762h197v-488q0 -139 -73.5 -212.5t-218.5 -73.5t-217 73t-72 213v488h198v-486q0 -58 23 -83t68 -25q48 0 71.5 25t23.5 84v485zM451 835h-161l-114 133h196z" />
    <glyph glyph-name="Uacute" unicode="&#xda;" horiz-adv-x="681" 
d="M434 762h197v-488q0 -139 -73.5 -212.5t-218.5 -73.5t-217 73t-72 213v488h198v-486q0 -58 23 -83t68 -25q48 0 71.5 25t23.5 84v485zM386 835h-161l79 133h196z" />
    <glyph glyph-name="Ucircumflex" unicode="&#xdb;" horiz-adv-x="681" 
d="M434 762h197v-488q0 -139 -73.5 -212.5t-218.5 -73.5t-217 73t-72 213v488h198v-486q0 -58 23 -83t68 -25q48 0 71.5 25t23.5 84v485zM384 835l-44 45l-44 -45h-171l149 146h132l149 -146h-171z" />
    <glyph glyph-name="Udieresis" unicode="&#xdc;" horiz-adv-x="681" 
d="M434 762h197v-488q0 -139 -73.5 -212.5t-218.5 -73.5t-217 73t-72 213v488h198v-486q0 -58 23 -83t68 -25q48 0 71.5 25t23.5 84v485zM311 994v-149h-151v149h151zM520 994v-149h-151v149h151z" />
    <glyph glyph-name="Yacute" unicode="&#xdd;" horiz-adv-x="665" 
d="M232 0v312l-227 450h220l112 -295l113 295h210l-228 -452v-310h-200zM378 835h-161l79 133h196z" />
    <glyph glyph-name="Thorn" unicode="&#xde;" horiz-adv-x="625" 
d="M255 762v-129h65q145 0 212.5 -61t67.5 -185v-12q0 -123 -66.5 -184.5t-208.5 -61.5h-70v-129h-200v762h200zM324 464h-69v-165h70q46 0 63 16.5t17 59.5v13q0 43 -17 59.5t-64 16.5z" />
    <glyph glyph-name="germandbls" unicode="&#xdf;" horiz-adv-x="630" 
d="M559 556q0 -106 -70 -152q106 -45 106 -175q0 -115 -63 -172t-200 -57h-52v166h42q42 0 60 17.5t18 56.5q0 37 -21 52.5t-67 15.5h-32v157h17q86 0 86 78q0 33 -19 50.5t-53 17.5q-35 0 -53.5 -20t-18.5 -56v-535h-189v533q0 124 71 182.5t192 58.5q113 0 179.5 -56.5
t66.5 -161.5z" />
    <glyph glyph-name="agrave" unicode="&#xe0;" horiz-adv-x="582" 
d="M366 0l-10 46q-42 -58 -140 -58q-80 0 -130.5 47.5t-50.5 129.5q0 97 58 144t186 47q21 0 73 -4v47q0 74 -61 74q-34 0 -49 -17.5t-15 -55.5h-175q0 121 61.5 172t186.5 51q113 0 175 -51t62 -170v-402h-171zM352 204v35q-19 3 -52 3q-74 0 -74 -56q0 -52 56 -52
q29 0 49.5 18.5t20.5 51.5zM410 680h-161l-114 133h196z" />
    <glyph glyph-name="aacute" unicode="&#xe1;" horiz-adv-x="582" 
d="M366 0l-10 46q-42 -58 -140 -58q-80 0 -130.5 47.5t-50.5 129.5q0 97 58 144t186 47q21 0 73 -4v47q0 74 -61 74q-34 0 -49 -17.5t-15 -55.5h-175q0 121 61.5 172t186.5 51q113 0 175 -51t62 -170v-402h-171zM352 204v35q-19 3 -52 3q-74 0 -74 -56q0 -52 56 -52
q29 0 49.5 18.5t20.5 51.5zM345 680h-161l79 133h196z" />
    <glyph glyph-name="acircumflex" unicode="&#xe2;" horiz-adv-x="582" 
d="M366 0l-10 46q-42 -58 -140 -58q-80 0 -130.5 47.5t-50.5 129.5q0 97 58 144t186 47q21 0 73 -4v47q0 74 -61 74q-34 0 -49 -17.5t-15 -55.5h-175q0 121 61.5 172t186.5 51q113 0 175 -51t62 -170v-402h-171zM352 204v35q-19 3 -52 3q-74 0 -74 -56q0 -52 56 -52
q29 0 49.5 18.5t20.5 51.5zM343 680l-44 45l-44 -45h-171l149 146h132l149 -146h-171z" />
    <glyph glyph-name="atilde" unicode="&#xe3;" horiz-adv-x="582" 
d="M366 0l-10 46q-42 -58 -140 -58q-80 0 -130.5 47.5t-50.5 129.5q0 97 58 144t186 47q21 0 73 -4v47q0 74 -61 74q-34 0 -49 -17.5t-15 -55.5h-175q0 121 61.5 172t186.5 51q113 0 175 -51t62 -170v-402h-171zM352 204v35q-19 3 -52 3q-74 0 -74 -56q0 -52 56 -52
q29 0 49.5 18.5t20.5 51.5zM385 843h114q0 -79 -31.5 -124t-85.5 -45q-46 0 -82 23q-6 3 -15 9.5t-14 9.5t-13 5.5t-15 2.5q-30 0 -30 -44h-114q0 79 31 124.5t85 45.5q46 0 91 -28q36 -22 49 -22t21.5 11.5t8.5 31.5z" />
    <glyph glyph-name="adieresis" unicode="&#xe4;" horiz-adv-x="582" 
d="M366 0l-10 46q-42 -58 -140 -58q-80 0 -130.5 47.5t-50.5 129.5q0 97 58 144t186 47q21 0 73 -4v47q0 74 -61 74q-34 0 -49 -17.5t-15 -55.5h-175q0 121 61.5 172t186.5 51q113 0 175 -51t62 -170v-402h-171zM352 204v35q-19 3 -52 3q-74 0 -74 -56q0 -52 56 -52
q29 0 49.5 18.5t20.5 51.5zM270 839v-149h-151v149h151zM479 839v-149h-151v149h151z" />
    <glyph glyph-name="aring" unicode="&#xe5;" horiz-adv-x="582" 
d="M366 0l-10 46q-42 -58 -140 -58q-80 0 -130.5 47.5t-50.5 129.5q0 97 58 144t186 47q21 0 73 -4v47q0 74 -61 74q-34 0 -49 -17.5t-15 -55.5h-175q0 121 61.5 172t186.5 51q113 0 175 -51t62 -170v-402h-171zM352 204v35q-19 3 -52 3q-74 0 -74 -56q0 -52 56 -52
q29 0 49.5 18.5t20.5 51.5zM449 804q0 -63 -38 -102t-112 -39t-112 39t-38 102t38 102t112 39t112 -39t38 -102zM349 804q0 54 -50 54t-50 -54t50 -54t50 54z" />
    <glyph glyph-name="ae" unicode="&#xe6;" horiz-adv-x="893" 
d="M279 356q21 0 73 -4v47q0 74 -61 74q-34 0 -49 -17.5t-15 -55.5h-175q0 119 57.5 171t166.5 52q124 0 176 -64q57 64 172 64q234 0 234 -239v-128h-321v-43q0 -79 66 -79q37 0 52.5 16.5t19.5 49.5h178q-5 -106 -62.5 -159t-186.5 -53q-146 0 -208 74q-23 -36 -67.5 -55
t-95.5 -19q-92 0 -145 47t-53 130q0 97 58 144t186 47zM606 480q-36 0 -52.5 -18.5t-16.5 -60.5v-23h138v26q0 76 -69 76zM352 204v35q-19 3 -51 3q-72 0 -72 -56q0 -52 54 -52q29 0 49 18.5t20 51.5z" />
    <glyph glyph-name="ccedilla" unicode="&#xe7;" horiz-adv-x="595" 
d="M372 242h188v-11q0 -122 -64 -182.5t-197 -60.5q-259 0 -259 246v143q0 246 260 246q131 0 195.5 -58.5t64.5 -179.5v-17h-188v15q0 40 -17 55t-52 15t-51.5 -16.5t-16.5 -56.5v-149q0 -40 16.5 -56.5t51.5 -16.5t52 15t17 55v14zM213 -95l17 95h133l-7 -37
q46 -7 71.5 -36t25.5 -72q0 -124 -172 -124q-73 0 -134 26l19 106q45 -19 82 -19q46 0 46 28q0 17 -17.5 25t-63.5 8z" />
    <glyph glyph-name="egrave" unicode="&#xe8;" horiz-adv-x="587" 
d="M369 200h178q-5 -106 -62.5 -159t-186.5 -53q-131 0 -194.5 60.5t-63.5 188.5v150q0 109 65.5 172.5t192.5 63.5t190.5 -58.5t63.5 -180.5v-128h-321v-43q0 -79 66 -79q37 0 52.5 16.5t19.5 49.5zM300 480q-36 0 -52.5 -18.5t-16.5 -60.5v-23h138v26q0 76 -69 76z
M407 680h-161l-114 133h196z" />
    <glyph glyph-name="eacute" unicode="&#xe9;" horiz-adv-x="587" 
d="M369 200h178q-5 -106 -62.5 -159t-186.5 -53q-131 0 -194.5 60.5t-63.5 188.5v150q0 109 65.5 172.5t192.5 63.5t190.5 -58.5t63.5 -180.5v-128h-321v-43q0 -79 66 -79q37 0 52.5 16.5t19.5 49.5zM300 480q-36 0 -52.5 -18.5t-16.5 -60.5v-23h138v26q0 76 -69 76z
M342 680h-161l79 133h196z" />
    <glyph glyph-name="ecircumflex" unicode="&#xea;" horiz-adv-x="587" 
d="M369 200h178q-5 -106 -62.5 -159t-186.5 -53q-131 0 -194.5 60.5t-63.5 188.5v150q0 109 65.5 172.5t192.5 63.5t190.5 -58.5t63.5 -180.5v-128h-321v-43q0 -79 66 -79q37 0 52.5 16.5t19.5 49.5zM300 480q-36 0 -52.5 -18.5t-16.5 -60.5v-23h138v26q0 76 -69 76z
M340 680l-44 45l-44 -45h-171l149 146h132l149 -146h-171z" />
    <glyph glyph-name="edieresis" unicode="&#xeb;" horiz-adv-x="587" 
d="M369 200h178q-5 -106 -62.5 -159t-186.5 -53q-131 0 -194.5 60.5t-63.5 188.5v150q0 109 65.5 172.5t192.5 63.5t190.5 -58.5t63.5 -180.5v-128h-321v-43q0 -79 66 -79q37 0 52.5 16.5t19.5 49.5zM300 480q-36 0 -52.5 -18.5t-16.5 -60.5v-23h138v26q0 76 -69 76z
M267 839v-149h-151v149h151zM476 839v-149h-151v149h151z" />
    <glyph glyph-name="igrave" unicode="&#xec;" horiz-adv-x="294" 
d="M244 611v-611h-194v611h194zM258 680h-161l-114 133h196z" />
    <glyph glyph-name="iacute" unicode="&#xed;" horiz-adv-x="294" 
d="M244 611v-611h-194v611h194zM193 680h-161l79 133h196z" />
    <glyph glyph-name="icircumflex" unicode="&#xee;" horiz-adv-x="294" 
d="M244 611v-611h-194v611h194zM191 680l-44 45l-44 -45h-171l149 146h132l149 -146h-171z" />
    <glyph glyph-name="idieresis" unicode="&#xef;" horiz-adv-x="294" 
d="M244 611v-611h-194v611h194zM118 839v-149h-151v149h151zM327 839v-149h-151v149h151z" />
    <glyph glyph-name="eth" unicode="&#xf0;" 
d="M553 363v-129q0 -125 -63 -185.5t-193 -60.5q-257 0 -257 246v46q0 112 59.5 174t148.5 62q64 0 108 -34q-17 89 -102 142l-105 -92l-55 55l82 72q-37 13 -96 23l66 133q85 -12 158 -44l80 71l56 -57l-62 -54q172 -118 175 -368zM359 231v54q0 72 -62 72q-32 0 -47 -17
t-15 -56v-53q0 -41 14 -57t48 -16t48 16t14 57z" />
    <glyph glyph-name="ntilde" unicode="&#xf1;" 
d="M555 402v-402h-194v380q0 39 -13.5 56t-44.5 17q-30 0 -44.5 -17t-14.5 -58v-378h-194v611h168l10 -43q48 55 146 55q181 0 181 -221zM393 843h114q0 -79 -31.5 -124t-85.5 -45q-46 0 -82 23q-6 3 -15 9.5t-14 9.5t-13 5.5t-15 2.5q-30 0 -30 -44h-114q0 79 31 124.5
t85 45.5q46 0 91 -28q36 -22 49 -22t21.5 11.5t8.5 31.5z" />
    <glyph glyph-name="ograve" unicode="&#xf2;" horiz-adv-x="594" 
d="M235 380v-149q0 -41 14 -57t48 -16t48 16t14 57v149q0 41 -14 57t-48 16t-48 -16t-14 -57zM297 623q257 0 257 -246v-143q0 -246 -257 -246t-257 246v143q0 246 257 246zM408 680h-161l-114 133h196z" />
    <glyph glyph-name="oacute" unicode="&#xf3;" horiz-adv-x="594" 
d="M235 380v-149q0 -41 14 -57t48 -16t48 16t14 57v149q0 41 -14 57t-48 16t-48 -16t-14 -57zM297 623q257 0 257 -246v-143q0 -246 -257 -246t-257 246v143q0 246 257 246zM343 680h-161l79 133h196z" />
    <glyph glyph-name="ocircumflex" unicode="&#xf4;" horiz-adv-x="594" 
d="M235 380v-149q0 -41 14 -57t48 -16t48 16t14 57v149q0 41 -14 57t-48 16t-48 -16t-14 -57zM297 623q257 0 257 -246v-143q0 -246 -257 -246t-257 246v143q0 246 257 246zM341 680l-44 45l-44 -45h-171l149 146h132l149 -146h-171z" />
    <glyph glyph-name="otilde" unicode="&#xf5;" horiz-adv-x="594" 
d="M235 380v-149q0 -41 14 -57t48 -16t48 16t14 57v149q0 41 -14 57t-48 16t-48 -16t-14 -57zM297 623q257 0 257 -246v-143q0 -246 -257 -246t-257 246v143q0 246 257 246zM383 843h114q0 -79 -31.5 -124t-85.5 -45q-46 0 -82 23q-6 3 -15 9.5t-14 9.5t-13 5.5t-15 2.5
q-30 0 -30 -44h-114q0 79 31 124.5t85 45.5q46 0 91 -28q36 -22 49 -22t21.5 11.5t8.5 31.5z" />
    <glyph glyph-name="odieresis" unicode="&#xf6;" horiz-adv-x="594" 
d="M235 380v-149q0 -41 14 -57t48 -16t48 16t14 57v149q0 41 -14 57t-48 16t-48 -16t-14 -57zM297 623q257 0 257 -246v-143q0 -246 -257 -246t-257 246v143q0 246 257 246zM268 839v-149h-151v149h151zM477 839v-149h-151v149h151z" />
    <glyph glyph-name="divide" unicode="&#xf7;" horiz-adv-x="610" 
d="M384 635v-140h-158v140h158zM521 445v-159h-432v159h432zM384 236v-140h-158v140h158z" />
    <glyph glyph-name="oslash" unicode="&#xf8;" horiz-adv-x="594" 
d="M297 623q71 0 123 -20l24 40h132l-64 -107q42 -60 42 -159v-143q0 -246 -257 -246q-70 0 -121 18l-25 -42h-132l65 108q-44 59 -44 162v143q0 246 257 246zM225 392v-111l113 188q-13 8 -41 8q-39 0 -55.5 -18.5t-16.5 -66.5zM297 134q39 0 55.5 18.5t16.5 66.5v106
l-111 -185q15 -6 39 -6z" />
    <glyph glyph-name="ugrave" unicode="&#xf9;" horiz-adv-x="599" 
d="M48 209v402h194v-380q0 -40 12.5 -56.5t43.5 -16.5q30 0 43.5 17t13.5 58v378h194v-611h-168l-10 43q-48 -55 -144 -55q-179 0 -179 221zM409 680h-161l-114 133h196z" />
    <glyph glyph-name="uacute" unicode="&#xfa;" horiz-adv-x="599" 
d="M48 209v402h194v-380q0 -40 12.5 -56.5t43.5 -16.5q30 0 43.5 17t13.5 58v378h194v-611h-168l-10 43q-48 -55 -144 -55q-179 0 -179 221zM344 680h-161l79 133h196z" />
    <glyph glyph-name="ucircumflex" unicode="&#xfb;" horiz-adv-x="599" 
d="M48 209v402h194v-380q0 -40 12.5 -56.5t43.5 -16.5q30 0 43.5 17t13.5 58v378h194v-611h-168l-10 43q-48 -55 -144 -55q-179 0 -179 221zM342 680l-44 45l-44 -45h-171l149 146h132l149 -146h-171z" />
    <glyph glyph-name="udieresis" unicode="&#xfc;" horiz-adv-x="599" 
d="M48 209v402h194v-380q0 -40 12.5 -56.5t43.5 -16.5q30 0 43.5 17t13.5 58v378h194v-611h-168l-10 43q-48 -55 -144 -55q-179 0 -179 221zM269 839v-149h-151v149h151zM478 839v-149h-151v149h151z" />
    <glyph glyph-name="yacute" unicode="&#xfd;" horiz-adv-x="576" 
d="M181 13l-179 598h215l81 -390l56 390h212l-125 -504q-44 -175 -113.5 -242.5t-188.5 -67.5q-54 0 -98 11v175q32 -6 54 -6q36 0 53 6.5t33 29.5zM325 680h-161l79 133h196z" />
    <glyph glyph-name="thorn" unicode="&#xfe;" 
d="M369 623q93 0 143.5 -63t50.5 -183v-153q0 -112 -59.5 -174t-148.5 -62q-71 0 -112 30v-211h-193v965h193v-188q47 39 126 39zM244 380v-150q0 -72 62 -72q32 0 47 17t15 56v149q0 41 -14 57t-48 16t-48 -16t-14 -57z" />
    <glyph glyph-name="ydieresis" unicode="&#xff;" horiz-adv-x="576" 
d="M181 13l-179 598h215l81 -390l56 390h212l-125 -504q-44 -175 -113.5 -242.5t-188.5 -67.5q-54 0 -98 11v175q32 -6 54 -6q36 0 53 6.5t33 29.5zM250 839v-149h-151v149h151zM459 839v-149h-151v149h151z" />
    <glyph glyph-name="Amacron" unicode="&#x100;" horiz-adv-x="695" 
d="M228 762h239l218 -762h-210l-37 163h-192l-37 -163h-199zM342 585l-57 -249h113zM203 982h280v-128h-280v128z" />
    <glyph glyph-name="amacron" unicode="&#x101;" horiz-adv-x="582" 
d="M366 0l-10 46q-42 -58 -140 -58q-80 0 -130.5 47.5t-50.5 129.5q0 97 58 144t186 47q21 0 73 -4v47q0 74 -61 74q-34 0 -49 -17.5t-15 -55.5h-175q0 121 61.5 172t186.5 51q113 0 175 -51t62 -170v-402h-171zM352 204v35q-19 3 -52 3q-74 0 -74 -56q0 -52 56 -52
q29 0 49.5 18.5t20.5 51.5zM155 827h280v-128h-280v128z" />
    <glyph glyph-name="Abreve" unicode="&#x102;" horiz-adv-x="695" 
d="M228 762h239l218 -762h-210l-37 163h-192l-37 -163h-199zM342 585l-57 -249h113zM347 834q-187 0 -187 163h130q0 -69 57 -69t57 69h130q0 -163 -187 -163z" />
    <glyph glyph-name="abreve" unicode="&#x103;" horiz-adv-x="582" 
d="M366 0l-10 46q-42 -58 -140 -58q-80 0 -130.5 47.5t-50.5 129.5q0 97 58 144t186 47q21 0 73 -4v47q0 74 -61 74q-34 0 -49 -17.5t-15 -55.5h-175q0 121 61.5 172t186.5 51q113 0 175 -51t62 -170v-402h-171zM352 204v35q-19 3 -52 3q-74 0 -74 -56q0 -52 56 -52
q29 0 49.5 18.5t20.5 51.5zM299 679q-187 0 -187 163h130q0 -69 57 -69t57 69h130q0 -163 -187 -163z" />
    <glyph glyph-name="Aogonek" unicode="&#x104;" horiz-adv-x="695" 
d="M228 762h239l218 -762h-210l-37 163h-192l-37 -163h-199zM342 585l-57 -249h113zM685 -94l4 -107q-38 -11 -103 -11q-67 0 -103 21.5t-36 73.5q0 48 35 82.5t77 48.5l126 -14q-82 -40 -82 -71q0 -28 38 -28q17 0 44 5z" />
    <glyph glyph-name="aogonek" unicode="&#x105;" horiz-adv-x="582" 
d="M366 0l-10 46q-42 -58 -140 -58q-80 0 -130.5 47.5t-50.5 129.5q0 97 58 144t186 47q21 0 73 -4v47q0 74 -61 74q-34 0 -49 -17.5t-15 -55.5h-175q0 121 61.5 172t186.5 51q113 0 175 -51t62 -170v-402h-171zM352 204v35q-19 3 -52 3q-74 0 -74 -56q0 -52 56 -52
q29 0 49.5 18.5t20.5 51.5zM537 -94l4 -107q-38 -11 -103 -11q-67 0 -103 21.5t-36 73.5q0 48 35 82.5t77 48.5l126 -14q-82 -40 -82 -71q0 -28 38 -28q17 0 44 5z" />
    <glyph glyph-name="Cacute" unicode="&#x106;" horiz-adv-x="664" 
d="M415 288h214v-24q0 -134 -73.5 -205t-216.5 -71q-142 0 -215.5 71t-73.5 205v233q0 135 73.5 206t215.5 71q143 0 216.5 -71t73.5 -206v-15h-214v19q0 86 -76 86q-40 0 -59.5 -23t-19.5 -79v-212q0 -54 19.5 -76t59.5 -22q76 0 76 86v27zM385 835h-161l79 133h196z" />
    <glyph glyph-name="cacute" unicode="&#x107;" horiz-adv-x="595" 
d="M372 242h188v-11q0 -122 -64 -182.5t-197 -60.5q-259 0 -259 246v143q0 246 260 246q131 0 195.5 -58.5t64.5 -179.5v-17h-188v15q0 40 -17 55t-52 15t-51.5 -16.5t-16.5 -56.5v-149q0 -40 16.5 -56.5t51.5 -16.5t52 15t17 55v14zM346 680h-161l79 133h196z" />
    <glyph glyph-name="Ccircumflex" unicode="&#x108;" horiz-adv-x="664" 
d="M415 288h214v-24q0 -134 -73.5 -205t-216.5 -71q-142 0 -215.5 71t-73.5 205v233q0 135 73.5 206t215.5 71q143 0 216.5 -71t73.5 -206v-15h-214v19q0 86 -76 86q-40 0 -59.5 -23t-19.5 -79v-212q0 -54 19.5 -76t59.5 -22q76 0 76 86v27zM383 835l-44 45l-44 -45h-171
l149 146h132l149 -146h-171z" />
    <glyph glyph-name="ccircumflex" unicode="&#x109;" horiz-adv-x="595" 
d="M372 242h188v-11q0 -122 -64 -182.5t-197 -60.5q-259 0 -259 246v143q0 246 260 246q131 0 195.5 -58.5t64.5 -179.5v-17h-188v15q0 40 -17 55t-52 15t-51.5 -16.5t-16.5 -56.5v-149q0 -40 16.5 -56.5t51.5 -16.5t52 15t17 55v14zM344 680l-44 45l-44 -45h-171l149 146
h132l149 -146h-171z" />
    <glyph glyph-name="Cdotaccent" unicode="&#x10a;" horiz-adv-x="664" 
d="M415 288h214v-24q0 -134 -73.5 -205t-216.5 -71q-142 0 -215.5 71t-73.5 205v233q0 135 73.5 206t215.5 71q143 0 216.5 -71t73.5 -206v-15h-214v19q0 86 -76 86q-40 0 -59.5 -23t-19.5 -79v-212q0 -54 19.5 -76t59.5 -22q76 0 76 86v27zM436 1017v-172h-194v172h194z
" />
    <glyph glyph-name="cdotaccent" unicode="&#x10b;" horiz-adv-x="595" 
d="M372 242h188v-11q0 -122 -64 -182.5t-197 -60.5q-259 0 -259 246v143q0 246 260 246q131 0 195.5 -58.5t64.5 -179.5v-17h-188v15q0 40 -17 55t-52 15t-51.5 -16.5t-16.5 -56.5v-149q0 -40 16.5 -56.5t51.5 -16.5t52 15t17 55v14zM397 862v-172h-194v172h194z" />
    <glyph glyph-name="Ccaron" unicode="&#x10c;" horiz-adv-x="664" 
d="M415 288h214v-24q0 -134 -73.5 -205t-216.5 -71q-142 0 -215.5 71t-73.5 205v233q0 135 73.5 206t215.5 71q143 0 216.5 -71t73.5 -206v-15h-214v19q0 86 -76 86q-40 0 -59.5 -23t-19.5 -79v-212q0 -54 19.5 -76t59.5 -22q76 0 76 86v27zM124 981h171l44 -46l44 46h171
l-149 -146h-132z" />
    <glyph glyph-name="ccaron" unicode="&#x10d;" horiz-adv-x="595" 
d="M372 242h188v-11q0 -122 -64 -182.5t-197 -60.5q-259 0 -259 246v143q0 246 260 246q131 0 195.5 -58.5t64.5 -179.5v-17h-188v15q0 40 -17 55t-52 15t-51.5 -16.5t-16.5 -56.5v-149q0 -40 16.5 -56.5t51.5 -16.5t52 15t17 55v14zM85 826h171l44 -46l44 46h171l-149 -146
h-132z" />
    <glyph glyph-name="Dcaron" unicode="&#x10e;" horiz-adv-x="659" 
d="M55 0v762h250q304 0 304 -286v-192q0 -284 -302 -284h-252zM310 586h-64v-410h63q46 0 68.5 21.5t22.5 71.5v225q0 49 -22.5 70.5t-67.5 21.5zM57 981h171l44 -46l44 46h171l-149 -146h-132z" />
    <glyph glyph-name="dcaron" unicode="&#x10f;" horiz-adv-x="629" 
d="M603 772h192l-63 -207h-137zM234 -12q-93 0 -143.5 63t-50.5 183v153q0 112 59.5 174t148.5 62q70 0 112 -31v180h194v-772h-169l-10 42q-48 -54 -141 -54zM359 231v150q0 72 -62 72q-32 0 -47 -17t-15 -56v-149q0 -41 14 -57t48 -16t48 16t14 57z" />
    <glyph glyph-name="Dcroat" unicode="&#x110;" horiz-adv-x="680" 
d="M76 0v301h-61v160h61v301h250q304 0 304 -286v-192q0 -284 -302 -284h-252zM331 586h-64v-125h72v-160h-72v-125h63q46 0 68.5 21.5t22.5 71.5v225q0 49 -22.5 70.5t-67.5 21.5z" />
    <glyph glyph-name="dcroat" unicode="&#x111;" horiz-adv-x="629" 
d="M614 596h-60v-596h-169l-10 42q-48 -54 -141 -54t-143.5 63t-50.5 183v83q0 112 59.5 174t148.5 62q70 0 112 -31v74h-112v110h112v66h194v-66h60v-110zM359 231v80q0 72 -62 72q-32 0 -47 -17t-15 -56v-79q0 -41 14 -57t48 -16t48 16t14 57z" />
    <glyph glyph-name="Emacron" unicode="&#x112;" horiz-adv-x="585" 
d="M255 587v-120h232v-169h-232v-123h285v-175h-485v762h475v-175h-275zM156 982h280v-128h-280v128z" />
    <glyph glyph-name="emacron" unicode="&#x113;" horiz-adv-x="587" 
d="M369 200h178q-5 -106 -62.5 -159t-186.5 -53q-131 0 -194.5 60.5t-63.5 188.5v150q0 109 65.5 172.5t192.5 63.5t190.5 -58.5t63.5 -180.5v-128h-321v-43q0 -79 66 -79q37 0 52.5 16.5t19.5 49.5zM300 480q-36 0 -52.5 -18.5t-16.5 -60.5v-23h138v26q0 76 -69 76z
M156 827h280v-128h-280v128z" />
    <glyph glyph-name="Ebreve" unicode="&#x114;" horiz-adv-x="585" 
d="M255 587v-120h232v-169h-232v-123h285v-175h-485v762h475v-175h-275zM296 834q-187 0 -187 163h130q0 -69 57 -69t57 69h130q0 -163 -187 -163z" />
    <glyph glyph-name="ebreve" unicode="&#x115;" horiz-adv-x="587" 
d="M369 200h178q-5 -106 -62.5 -159t-186.5 -53q-131 0 -194.5 60.5t-63.5 188.5v150q0 109 65.5 172.5t192.5 63.5t190.5 -58.5t63.5 -180.5v-128h-321v-43q0 -79 66 -79q37 0 52.5 16.5t19.5 49.5zM300 480q-36 0 -52.5 -18.5t-16.5 -60.5v-23h138v26q0 76 -69 76z
M296 679q-187 0 -187 163h130q0 -69 57 -69t57 69h130q0 -163 -187 -163z" />
    <glyph glyph-name="Edotaccent" unicode="&#x116;" horiz-adv-x="585" 
d="M255 587v-120h232v-169h-232v-123h285v-175h-485v762h475v-175h-275zM393 1017v-172h-194v172h194z" />
    <glyph glyph-name="edotaccent" unicode="&#x117;" horiz-adv-x="587" 
d="M369 200h178q-5 -106 -62.5 -159t-186.5 -53q-131 0 -194.5 60.5t-63.5 188.5v150q0 109 65.5 172.5t192.5 63.5t190.5 -58.5t63.5 -180.5v-128h-321v-43q0 -79 66 -79q37 0 52.5 16.5t19.5 49.5zM300 480q-36 0 -52.5 -18.5t-16.5 -60.5v-23h138v26q0 76 -69 76z
M393 862v-172h-194v172h194z" />
    <glyph glyph-name="Eogonek" unicode="&#x118;" horiz-adv-x="585" 
d="M255 587v-120h232v-169h-232v-123h285v-175h-485v762h475v-175h-275zM540 -94l4 -107q-38 -11 -103 -11q-67 0 -103 21.5t-36 73.5q0 48 35 82.5t77 48.5l126 -14q-82 -40 -82 -71q0 -28 38 -28q16 0 44 5z" />
    <glyph glyph-name="eogonek" unicode="&#x119;" horiz-adv-x="587" 
d="M369 200h178q-5 -106 -62.5 -159t-186.5 -53q-131 0 -194.5 60.5t-63.5 188.5v150q0 109 65.5 172.5t192.5 63.5t190.5 -58.5t63.5 -180.5v-128h-321v-43q0 -79 66 -79q37 0 52.5 16.5t19.5 49.5zM300 480q-36 0 -52.5 -18.5t-16.5 -60.5v-23h138v26q0 76 -69 76z
M403 -94l4 -107q-38 -11 -103 -11q-67 0 -103 21.5t-36 73.5q0 48 35 82.5t77 48.5l126 -14q-82 -40 -82 -71q0 -28 38 -28q17 0 44 5z" />
    <glyph glyph-name="Ecaron" unicode="&#x11a;" horiz-adv-x="585" 
d="M255 587v-120h232v-169h-232v-123h285v-175h-485v762h475v-175h-275zM81 981h171l44 -46l44 46h171l-149 -146h-132z" />
    <glyph glyph-name="ecaron" unicode="&#x11b;" horiz-adv-x="587" 
d="M369 200h178q-5 -106 -62.5 -159t-186.5 -53q-131 0 -194.5 60.5t-63.5 188.5v150q0 109 65.5 172.5t192.5 63.5t190.5 -58.5t63.5 -180.5v-128h-321v-43q0 -79 66 -79q37 0 52.5 16.5t19.5 49.5zM300 480q-36 0 -52.5 -18.5t-16.5 -60.5v-23h138v26q0 76 -69 76zM81 826
h171l44 -46l44 46h171l-149 -146h-132z" />
    <glyph glyph-name="Gcircumflex" unicode="&#x11c;" horiz-adv-x="683" 
d="M345 420h298v-156q0 -276 -297 -276q-143 0 -219.5 71t-76.5 205v233q0 134 76.5 205.5t219.5 71.5q144 0 220.5 -69.5t76.5 -202.5v-9h-204v15q0 96 -93 96q-96 0 -96 -113v-226q0 -59 25.5 -83t78.5 -24q39 0 67 21.5t28 67.5v9h-104v164zM390 835l-44 45l-44 -45h-171
l149 146h132l149 -146h-171z" />
    <glyph glyph-name="gcircumflex" unicode="&#x11d;" 
d="M359 20v51q-37 -33 -105 -33q-102 0 -158 63t-56 183v103q0 111 57 173.5t137 62.5q83 0 128 -47l8 35h183v-575q0 -123 -68 -181t-189 -58q-132 0 -188 54.5t-56 153.5h185q2 -35 16.5 -49.5t48.5 -14.5q28 0 42.5 17.5t14.5 61.5zM359 281v100q0 72 -62 72
q-32 0 -47 -17t-15 -56v-99q0 -41 14 -57t48 -16t48 16t14 57zM340 680l-44 45l-44 -45h-171l149 146h132l149 -146h-171z" />
    <glyph glyph-name="Gbreve" unicode="&#x11e;" horiz-adv-x="683" 
d="M345 420h298v-156q0 -276 -297 -276q-143 0 -219.5 71t-76.5 205v233q0 134 76.5 205.5t219.5 71.5q144 0 220.5 -69.5t76.5 -202.5v-9h-204v15q0 96 -93 96q-96 0 -96 -113v-226q0 -59 25.5 -83t78.5 -24q39 0 67 21.5t28 67.5v9h-104v164zM346 834q-187 0 -187 163h130
q0 -69 57 -69t57 69h130q0 -163 -187 -163z" />
    <glyph glyph-name="gbreve" unicode="&#x11f;" 
d="M359 20v51q-37 -33 -105 -33q-102 0 -158 63t-56 183v103q0 111 57 173.5t137 62.5q83 0 128 -47l8 35h183v-575q0 -123 -68 -181t-189 -58q-132 0 -188 54.5t-56 153.5h185q2 -35 16.5 -49.5t48.5 -14.5q28 0 42.5 17.5t14.5 61.5zM359 281v100q0 72 -62 72
q-32 0 -47 -17t-15 -56v-99q0 -41 14 -57t48 -16t48 16t14 57zM296 679q-187 0 -187 163h130q0 -69 57 -69t57 69h130q0 -163 -187 -163z" />
    <glyph glyph-name="Gdotaccent" unicode="&#x120;" horiz-adv-x="683" 
d="M345 420h298v-156q0 -276 -297 -276q-143 0 -219.5 71t-76.5 205v233q0 134 76.5 205.5t219.5 71.5q144 0 220.5 -69.5t76.5 -202.5v-9h-204v15q0 96 -93 96q-96 0 -96 -113v-226q0 -59 25.5 -83t78.5 -24q39 0 67 21.5t28 67.5v9h-104v164zM443 1017v-172h-194v172h194z
" />
    <glyph glyph-name="gdotaccent" unicode="&#x121;" 
d="M359 20v51q-37 -33 -105 -33q-102 0 -158 63t-56 183v103q0 111 57 173.5t137 62.5q83 0 128 -47l8 35h183v-575q0 -123 -68 -181t-189 -58q-132 0 -188 54.5t-56 153.5h185q2 -35 16.5 -49.5t48.5 -14.5q28 0 42.5 17.5t14.5 61.5zM359 281v100q0 72 -62 72
q-32 0 -47 -17t-15 -56v-99q0 -41 14 -57t48 -16t48 16t14 57zM393 862v-172h-194v172h194z" />
    <glyph glyph-name="Gcommaaccent" unicode="&#x122;" horiz-adv-x="683" 
d="M345 420h298v-156q0 -276 -297 -276q-143 0 -219.5 71t-76.5 205v233q0 134 76.5 205.5t219.5 71.5q144 0 220.5 -69.5t76.5 -202.5v-9h-204v15q0 96 -93 96q-96 0 -96 -113v-226q0 -59 25.5 -83t78.5 -24q39 0 67 21.5t28 67.5v9h-104v164zM395 -225h-166l29 145h205z
" />
    <glyph glyph-name="gcommaaccent" unicode="&#x123;" 
d="M359 20v51q-37 -33 -105 -33q-102 0 -158 63t-56 183v103q0 111 57 173.5t137 62.5q83 0 128 -47l8 35h183v-575q0 -123 -68 -181t-189 -58q-132 0 -188 54.5t-56 153.5h185q2 -35 16.5 -49.5t48.5 -14.5q28 0 42.5 17.5t14.5 61.5zM359 281v100q0 72 -62 72
q-32 0 -47 -17t-15 -56v-99q0 -41 14 -57t48 -16t48 16t14 57zM251 810h166l-29 -145h-205z" />
    <glyph glyph-name="Hcircumflex" unicode="&#x124;" horiz-adv-x="695" 
d="M640 762v-762h-198v301h-187v-301h-200v762h200v-286h187v286h198zM391 835l-44 45l-44 -45h-171l149 146h132l149 -146h-171z" />
    <glyph glyph-name="hcircumflex" unicode="&#x125;" horiz-adv-x="606" 
d="M244 772v-188q46 39 130 39q181 0 181 -221v-402h-194v380q0 39 -13.5 56t-44.5 17q-30 0 -44.5 -17t-14.5 -58v-378h-194v772h194zM191 835l-44 45l-44 -45h-171l149 146h132l149 -146h-171z" />
    <glyph glyph-name="Hbar" unicode="&#x126;" horiz-adv-x="761" 
d="M673 762v-92h73v-110h-73v-560h-198v301h-187v-301h-200v560h-73v110h73v92h200v-92h187v92h198zM288 476h187v84h-187v-84z" />
    <glyph glyph-name="hbar" unicode="&#x127;" horiz-adv-x="618" 
d="M370 596h-111v-76q46 39 130 39q181 0 181 -221v-338h-194v316q0 39 -13.5 56t-44.5 17q-30 0 -44.5 -17t-14.5 -58v-314h-194v596h-60v110h60v66h194v-66h111v-110z" />
    <glyph glyph-name="Itilde" unicode="&#x128;" horiz-adv-x="310" 
d="M255 762v-762h-200v762h200zM241 998h114q0 -79 -31.5 -124t-85.5 -45q-46 0 -82 23q-6 3 -15 9.5t-14 9.5t-13 5.5t-15 2.5q-30 0 -30 -44h-114q0 79 31 124.5t85 45.5q46 0 91 -28q36 -22 49 -22t21.5 11.5t8.5 31.5z" />
    <glyph glyph-name="itilde" unicode="&#x129;" horiz-adv-x="294" 
d="M244 611v-611h-194v611h194zM233 843h114q0 -79 -31.5 -124t-85.5 -45q-46 0 -82 23q-6 3 -15 9.5t-14 9.5t-13 5.5t-15 2.5q-30 0 -30 -44h-114q0 79 31 124.5t85 45.5q46 0 91 -28q36 -22 49 -22t21.5 11.5t8.5 31.5z" />
    <glyph glyph-name="Imacron" unicode="&#x12a;" horiz-adv-x="310" 
d="M255 762v-762h-200v762h200zM15 982h280v-128h-280v128z" />
    <glyph glyph-name="imacron" unicode="&#x12b;" horiz-adv-x="294" 
d="M244 611v-611h-194v611h194zM7 827h280v-128h-280v128z" />
    <glyph glyph-name="Ibreve" unicode="&#x12c;" horiz-adv-x="310" 
d="M255 762v-762h-200v762h200zM155 834q-187 0 -187 163h130q0 -69 57 -69t57 69h130q0 -163 -187 -163z" />
    <glyph glyph-name="ibreve" unicode="&#x12d;" horiz-adv-x="294" 
d="M244 611v-611h-194v611h194zM147 679q-187 0 -187 163h130q0 -69 57 -69t57 69h130q0 -163 -187 -163z" />
    <glyph glyph-name="Iogonek" unicode="&#x12e;" horiz-adv-x="310" 
d="M255 762v-762h-200v762h200zM255 -94l4 -107q-38 -11 -103 -11q-67 0 -103 21.5t-36 73.5q0 48 35 82.5t77 48.5l126 -14q-82 -40 -82 -71q0 -28 38 -28q17 0 44 5z" />
    <glyph glyph-name="iogonek" unicode="&#x12f;" horiz-adv-x="294" 
d="M244 611v-611h-194v611h194zM244 842v-172h-194v172h194zM244 -94l4 -107q-38 -11 -103 -11q-67 0 -103 21.5t-36 73.5q0 48 35 82.5t77 48.5l126 -14q-82 -40 -82 -71q0 -28 38 -28q16 0 44 5z" />
    <glyph glyph-name="Idotaccent" unicode="&#x130;" horiz-adv-x="310" 
d="M255 762v-762h-200v762h200zM252 1017v-172h-194v172h194z" />
    <glyph glyph-name="dotlessi" unicode="&#x131;" horiz-adv-x="294" 
d="M244 611v-611h-194v611h194z" />
    <glyph glyph-name="IJ" unicode="&#x132;" horiz-adv-x="898" 
d="M255 762v-762h-200v762h200zM315 269h185q0 -101 77 -101q71 0 71 94v500h200v-488q0 -156 -67 -221t-196 -65q-138 0 -204 67.5t-66 213.5z" />
    <glyph glyph-name="ij" unicode="&#x133;" horiz-adv-x="588" 
d="M244 611v-611h-194v611h194zM244 842v-172h-194v172h194zM538 842v-172h-194v172h194zM268 -192v163q8 -1 22 -1q31 0 42.5 15t11.5 62v564h194v-561q0 -136 -51 -190t-170 -54q-21 0 -49 2z" />
    <glyph glyph-name="Jcircumflex" unicode="&#x134;" horiz-adv-x="588" 
d="M5 269h185q0 -101 77 -101q71 0 71 94v500h200v-488q0 -156 -67 -221t-196 -65q-138 0 -204 67.5t-66 213.5zM481 835l-44 45l-44 -45h-171l149 146h132l149 -146h-171z" />
    <glyph glyph-name="jcircumflex" unicode="&#x135;" horiz-adv-x="294" 
d="M-26 -192v163q8 -1 22 -1q31 0 42.5 15t11.5 62v564h194v-561q0 -136 -51 -190t-170 -54q-15 0 -49 2zM191 680l-44 45l-44 -45h-171l149 146h132l149 -146h-171z" />
    <glyph glyph-name="Kcommaaccent" unicode="&#x136;" horiz-adv-x="701" 
d="M686 0h-235l-138 301h-58v-301h-200v762h200v-285h58l119 285h224l-185 -365zM390 -225h-166l29 145h205z" />
    <glyph glyph-name="kcommaaccent" unicode="&#x137;" horiz-adv-x="646" 
d="M626 611l-205 -279l215 -332h-234l-129 236h-30v-236h-193v772h194v-365h26l130 204h226zM350 -225h-166l29 145h205z" />
    <glyph glyph-name="kgreenlandic" unicode="&#x138;" horiz-adv-x="642" 
d="M631 0h-229l-129 236h-29v-236h-194v611h195v-204h25l130 204h221l-205 -278z" />
    <glyph glyph-name="Lacute" unicode="&#x139;" horiz-adv-x="546" 
d="M516 180v-180h-461v762h200v-582h261zM198 835h-161l79 133h196z" />
    <glyph glyph-name="lacute" unicode="&#x13a;" horiz-adv-x="329" 
d="M316 165v-174q-32 -3 -57 -3q-117 0 -163 62t-46 200v522h194v-529q0 -43 14 -61t44 -18q11 0 14 1zM193 835h-161l79 133h196z" />
    <glyph glyph-name="Lcommaaccent" unicode="&#x13b;" horiz-adv-x="546" 
d="M516 180v-180h-461v762h200v-582h261zM315 -225h-166l29 145h205z" />
    <glyph glyph-name="lcommaaccent" unicode="&#x13c;" horiz-adv-x="329" 
d="M316 165v-174q-32 -3 -57 -3q-117 0 -163 62t-46 200v522h194v-529q0 -43 14 -61t44 -18q11 0 14 1zM235 -225h-166l29 145h205z" />
    <glyph glyph-name="Lcaron" unicode="&#x13d;" horiz-adv-x="546" 
d="M343 772h192l-63 -207h-137zM516 180v-180h-461v762h200v-582h261z" />
    <glyph glyph-name="lcaron" unicode="&#x13e;" horiz-adv-x="500" 
d="M303 772h192l-63 -207h-137zM316 165v-174q-32 -3 -57 -3q-117 0 -163 62t-46 200v522h194v-529q0 -43 14 -61t44 -18q11 0 14 1z" />
    <glyph glyph-name="Ldot" unicode="&#x13f;" horiz-adv-x="546" 
d="M516 180v-180h-461v762h200v-582h261zM477 462v-157h-154v157h154z" />
    <glyph glyph-name="ldot" unicode="&#x140;" horiz-adv-x="482" 
d="M316 165v-174q-32 -3 -57 -3q-117 0 -163 62t-46 200v522h194v-529q0 -43 14 -61t44 -18q11 0 14 1zM457 482v-157h-154v157h154z" />
    <glyph glyph-name="Lslash" unicode="&#x141;" horiz-adv-x="576" 
d="M546 180v-180h-461v245l-102 -51v160l102 51v357h200v-256l175 89v-160l-175 -89v-166h261z" />
    <glyph glyph-name="lslash" unicode="&#x142;" horiz-adv-x="359" 
d="M316 165v-174q-32 -3 -57 -3q-117 0 -163 62t-46 200v9l-60 -24v150l60 24v363h194v-283l96 39v-150l-96 -39v-96q0 -43 15 -61t45 -18q9 0 12 1z" />
    <glyph glyph-name="Nacute" unicode="&#x143;" horiz-adv-x="692" 
d="M55 762h202l194 -435v435h186v-762h-200l-194 416v-416h-188v762zM396 835h-161l79 133h196z" />
    <glyph glyph-name="nacute" unicode="&#x144;" 
d="M555 402v-402h-194v380q0 39 -13.5 56t-44.5 17q-30 0 -44.5 -17t-14.5 -58v-378h-194v611h168l10 -43q48 55 146 55q181 0 181 -221zM353 680h-161l79 133h196z" />
    <glyph glyph-name="Ncommaaccent" unicode="&#x145;" horiz-adv-x="692" 
d="M55 762h202l194 -435v435h186v-762h-200l-194 416v-416h-188v762zM367 -225h-166l29 145h205z" />
    <glyph glyph-name="ncommaaccent" unicode="&#x146;" 
d="M555 402v-402h-194v380q0 39 -13.5 56t-44.5 17q-30 0 -44.5 -17t-14.5 -58v-378h-194v611h168l10 -43q48 55 146 55q181 0 181 -221zM337 -225h-166l29 145h205z" />
    <glyph glyph-name="Ncaron" unicode="&#x147;" horiz-adv-x="692" 
d="M55 762h202l194 -435v435h186v-762h-200l-194 416v-416h-188v762zM135 981h171l44 -46l44 46h171l-149 -146h-132z" />
    <glyph glyph-name="ncaron" unicode="&#x148;" 
d="M555 402v-402h-194v380q0 39 -13.5 56t-44.5 17q-30 0 -44.5 -17t-14.5 -58v-378h-194v611h168l10 -43q48 55 146 55q181 0 181 -221zM92 826h171l44 -46l44 46h171l-149 -146h-132z" />
    <glyph glyph-name="napostrophe" unicode="&#x149;" horiz-adv-x="718" 
d="M670 402v-402h-194v380q0 39 -13.5 56t-44.5 17q-30 0 -44.5 -17t-14.5 -58v-378h-194v611h168l10 -43q48 55 146 55q181 0 181 -221zM-18 771h192l-68 -207h-167z" />
    <glyph glyph-name="Eng" unicode="&#x14a;" horiz-adv-x="682" 
d="M346 -191v162q8 -1 22 -1q31 0 42.5 15t11.5 62v23l-185 354v-424h-192v762h206l185 -376v376h191v-712q0 -135 -55 -189.5t-177 -54.5q-23 0 -49 3z" />
    <glyph glyph-name="eng" unicode="&#x14b;" 
d="M284 -192v163q8 -1 22 -1q32 0 43.5 15t11.5 62v333q0 39 -13.5 56t-44.5 17q-30 0 -44.5 -17t-14.5 -58v-378h-194v611h168l10 -43q48 55 146 55q181 0 181 -221v-352q0 -136 -51 -190t-171 -54q-15 0 -49 2z" />
    <glyph glyph-name="Omacron" unicode="&#x14c;" horiz-adv-x="684" 
d="M260 508v-254q0 -86 82 -86t82 86v254q0 86 -82 86t-82 -86zM342 774q143 0 217.5 -71t74.5 -206v-233q0 -134 -74.5 -205t-217.5 -71t-217.5 71t-74.5 205v233q0 135 74.5 206t217.5 71zM202 982h280v-128h-280v128z" />
    <glyph glyph-name="omacron" unicode="&#x14d;" horiz-adv-x="594" 
d="M235 380v-149q0 -41 14 -57t48 -16t48 16t14 57v149q0 41 -14 57t-48 16t-48 -16t-14 -57zM297 623q257 0 257 -246v-143q0 -246 -257 -246t-257 246v143q0 246 257 246zM157 827h280v-128h-280v128z" />
    <glyph glyph-name="Obreve" unicode="&#x14e;" horiz-adv-x="684" 
d="M260 508v-254q0 -86 82 -86t82 86v254q0 86 -82 86t-82 -86zM342 774q143 0 217.5 -71t74.5 -206v-233q0 -134 -74.5 -205t-217.5 -71t-217.5 71t-74.5 205v233q0 135 74.5 206t217.5 71zM342 834q-187 0 -187 163h130q0 -69 57 -69t57 69h130q0 -163 -187 -163z" />
    <glyph glyph-name="obreve" unicode="&#x14f;" horiz-adv-x="594" 
d="M235 380v-149q0 -41 14 -57t48 -16t48 16t14 57v149q0 41 -14 57t-48 16t-48 -16t-14 -57zM297 623q257 0 257 -246v-143q0 -246 -257 -246t-257 246v143q0 246 257 246zM297 679q-187 0 -187 163h130q0 -69 57 -69t57 69h130q0 -163 -187 -163z" />
    <glyph glyph-name="Ohungarumlaut" unicode="&#x150;" horiz-adv-x="684" 
d="M260 508v-254q0 -86 82 -86t82 86v254q0 86 -82 86t-82 -86zM342 774q143 0 217.5 -71t74.5 -206v-233q0 -134 -74.5 -205t-217.5 -71t-217.5 71t-74.5 205v233q0 135 74.5 206t217.5 71zM283 834h-160l64 133h185zM504 834h-160l64 133h185z" />
    <glyph glyph-name="ohungarumlaut" unicode="&#x151;" horiz-adv-x="594" 
d="M235 380v-149q0 -41 14 -57t48 -16t48 16t14 57v149q0 41 -14 57t-48 16t-48 -16t-14 -57zM297 623q257 0 257 -246v-143q0 -246 -257 -246t-257 246v143q0 246 257 246zM238 679h-160l64 133h185zM459 679h-160l64 133h185z" />
    <glyph glyph-name="OE" unicode="&#x152;" horiz-adv-x="933" 
d="M338 762h540v-175h-265v-120h222v-169h-222v-123h275v-175h-549q-142 0 -215.5 71t-73.5 205v209q0 134 73 205t215 72zM260 496v-230q0 -86 79 -86h74v402h-74q-79 0 -79 -86z" />
    <glyph glyph-name="oe" unicode="&#x153;" horiz-adv-x="910" 
d="M283 623q120 0 177 -74q56 74 179 74q236 0 236 -239v-128h-321v-43q0 -79 66 -79q37 0 52.5 16.5t19.5 49.5h178q-5 -105 -58.5 -158.5t-166.5 -53.5q-133 0 -198 67q-57 -67 -174 -67q-111 0 -172 63t-61 183v143q0 121 61.5 183.5t181.5 62.5zM235 380v-149
q0 -41 14 -57t48 -16t48 16t14 57v149q0 41 -14 57t-48 16t-48 -16t-14 -57zM623 480q-36 0 -52.5 -18.5t-16.5 -60.5v-23h138v26q0 76 -69 76z" />
    <glyph glyph-name="Racute" unicode="&#x154;" horiz-adv-x="635" 
d="M55 0v762h257q145 0 212.5 -61t67.5 -185v-11q0 -142 -90 -199l128 -306h-222l-91 264h-67v-264h-195zM250 599v-170h67q46 0 63 17t17 60v15q0 43 -17.5 60.5t-63.5 17.5h-66zM351 835h-161l79 133h196z" />
    <glyph glyph-name="racute" unicode="&#x155;" horiz-adv-x="416" 
d="M50 611h168l13 -58q21 31 58.5 49t79.5 18q9 0 27 -2v-201q-25 5 -47 5q-105 0 -105 -120v-302h-194v611zM274 680h-161l79 133h196z" />
    <glyph glyph-name="Rcommaaccent" unicode="&#x156;" horiz-adv-x="635" 
d="M55 0v762h257q145 0 212.5 -61t67.5 -185v-11q0 -142 -90 -199l128 -306h-222l-91 264h-67v-264h-195zM250 599v-170h67q46 0 63 17t17 60v15q0 43 -17.5 60.5t-63.5 17.5h-66zM352 -225h-166l29 145h205z" />
    <glyph glyph-name="rcommaaccent" unicode="&#x157;" horiz-adv-x="416" 
d="M50 611h168l13 -58q21 31 58.5 49t79.5 18q9 0 27 -2v-201q-25 5 -47 5q-105 0 -105 -120v-302h-194v611zM195 -225h-166l29 145h205z" />
    <glyph glyph-name="Rcaron" unicode="&#x158;" horiz-adv-x="635" 
d="M55 0v762h257q145 0 212.5 -61t67.5 -185v-11q0 -142 -90 -199l128 -306h-222l-91 264h-67v-264h-195zM250 599v-170h67q46 0 63 17t17 60v15q0 43 -17.5 60.5t-63.5 17.5h-66zM90 981h171l44 -46l44 46h171l-149 -146h-132z" />
    <glyph glyph-name="rcaron" unicode="&#x159;" horiz-adv-x="416" 
d="M50 611h168l13 -58q21 31 58.5 49t79.5 18q9 0 27 -2v-201q-25 5 -47 5q-105 0 -105 -120v-302h-194v611zM13 826h171l44 -46l44 46h171l-149 -146h-132z" />
    <glyph glyph-name="Sacute" unicode="&#x15a;" horiz-adv-x="608" 
d="M257 311q-39 9 -63.5 16.5t-58 25.5t-53 41t-33.5 62.5t-14 90.5q0 110 65.5 168.5t190.5 58.5q132 0 202 -56t81 -186h-199q-5 43 -21.5 60t-57.5 17q-39 0 -53 -13t-14 -42q0 -33 21.5 -49.5t76.5 -28.5q26 -6 38 -8.5t38.5 -10t40.5 -13.5t37 -17.5t36 -23.5t29 -30
t24 -38.5t14 -47.5t6 -58q0 -114 -66.5 -177.5t-221.5 -63.5q-78 0 -135 20t-88 56t-45 77.5t-14 90.5h198q2 -40 21 -59.5t72 -19.5q44 0 62.5 18t18.5 55q0 34 -27 50t-108 35zM351 835h-161l79 133h196z" />
    <glyph glyph-name="sacute" unicode="&#x15b;" horiz-adv-x="566" 
d="M314 384q220 -28 220 -194q0 -99 -69 -150.5t-188 -51.5q-122 0 -183 56t-61 152h185q4 -66 72 -66q25 0 39.5 13t14.5 34q0 26 -13 39t-61 18q-116 13 -170 57t-54 138q0 95 67 144.5t177 49.5q235 0 235 -208h-178q0 66 -63 66q-25 0 -39 -12t-14 -32q0 -21 15.5 -33.5
t67.5 -19.5zM341 680h-161l79 133h196z" />
    <glyph glyph-name="Scircumflex" unicode="&#x15c;" horiz-adv-x="608" 
d="M257 311q-39 9 -63.5 16.5t-58 25.5t-53 41t-33.5 62.5t-14 90.5q0 110 65.5 168.5t190.5 58.5q132 0 202 -56t81 -186h-199q-5 43 -21.5 60t-57.5 17q-39 0 -53 -13t-14 -42q0 -33 21.5 -49.5t76.5 -28.5q26 -6 38 -8.5t38.5 -10t40.5 -13.5t37 -17.5t36 -23.5t29 -30
t24 -38.5t14 -47.5t6 -58q0 -114 -66.5 -177.5t-221.5 -63.5q-78 0 -135 20t-88 56t-45 77.5t-14 90.5h198q2 -40 21 -59.5t72 -19.5q44 0 62.5 18t18.5 55q0 34 -27 50t-108 35zM349 835l-44 45l-44 -45h-171l149 146h132l149 -146h-171z" />
    <glyph glyph-name="scircumflex" unicode="&#x15d;" horiz-adv-x="566" 
d="M314 384q220 -28 220 -194q0 -99 -69 -150.5t-188 -51.5q-122 0 -183 56t-61 152h185q4 -66 72 -66q25 0 39.5 13t14.5 34q0 26 -13 39t-61 18q-116 13 -170 57t-54 138q0 95 67 144.5t177 49.5q235 0 235 -208h-178q0 66 -63 66q-25 0 -39 -12t-14 -32q0 -21 15.5 -33.5
t67.5 -19.5zM339 680l-44 45l-44 -45h-171l149 146h132l149 -146h-171z" />
    <glyph glyph-name="Scedilla" unicode="&#x15e;" horiz-adv-x="608" 
d="M257 311q-39 9 -63.5 16.5t-58 25.5t-53 41t-33.5 62.5t-14 90.5q0 110 65.5 168.5t190.5 58.5q132 0 202 -56t81 -186h-199q-5 43 -21.5 60t-57.5 17q-39 0 -53 -13t-14 -42q0 -33 21.5 -49.5t76.5 -28.5q26 -6 38 -8.5t38.5 -10t40.5 -13.5t37 -17.5t36 -23.5t29 -30
t24 -38.5t14 -47.5t6 -58q0 -114 -66.5 -177.5t-221.5 -63.5q-78 0 -135 20t-88 56t-45 77.5t-14 90.5h198q2 -40 21 -59.5t72 -19.5q44 0 62.5 18t18.5 55q0 34 -27 50t-108 35zM218 -95l17 95h133l-7 -37q46 -7 71.5 -36t25.5 -72q0 -124 -172 -124q-73 0 -134 26l19 106
q45 -19 82 -19q46 0 46 28q0 17 -17.5 25t-63.5 8z" />
    <glyph glyph-name="scedilla" unicode="&#x15f;" horiz-adv-x="566" 
d="M314 384q220 -28 220 -194q0 -99 -69 -150.5t-188 -51.5q-122 0 -183 56t-61 152h185q4 -66 72 -66q25 0 39.5 13t14.5 34q0 26 -13 39t-61 18q-116 13 -170 57t-54 138q0 95 67 144.5t177 49.5q235 0 235 -208h-178q0 66 -63 66q-25 0 -39 -12t-14 -32q0 -21 15.5 -33.5
t67.5 -19.5zM197 -95l17 95h133l-7 -37q46 -7 71.5 -36t25.5 -72q0 -124 -172 -124q-73 0 -134 26l19 106q45 -19 82 -19q46 0 46 28q0 17 -17.5 25t-63.5 8z" />
    <glyph glyph-name="Scaron" unicode="&#x160;" horiz-adv-x="608" 
d="M257 311q-39 9 -63.5 16.5t-58 25.5t-53 41t-33.5 62.5t-14 90.5q0 110 65.5 168.5t190.5 58.5q132 0 202 -56t81 -186h-199q-5 43 -21.5 60t-57.5 17q-39 0 -53 -13t-14 -42q0 -33 21.5 -49.5t76.5 -28.5q26 -6 38 -8.5t38.5 -10t40.5 -13.5t37 -17.5t36 -23.5t29 -30
t24 -38.5t14 -47.5t6 -58q0 -114 -66.5 -177.5t-221.5 -63.5q-78 0 -135 20t-88 56t-45 77.5t-14 90.5h198q2 -40 21 -59.5t72 -19.5q44 0 62.5 18t18.5 55q0 34 -27 50t-108 35zM90 981h171l44 -46l44 46h171l-149 -146h-132z" />
    <glyph glyph-name="scaron" unicode="&#x161;" horiz-adv-x="566" 
d="M314 384q220 -28 220 -194q0 -99 -69 -150.5t-188 -51.5q-122 0 -183 56t-61 152h185q4 -66 72 -66q25 0 39.5 13t14.5 34q0 26 -13 39t-61 18q-116 13 -170 57t-54 138q0 95 67 144.5t177 49.5q235 0 235 -208h-178q0 66 -63 66q-25 0 -39 -12t-14 -32q0 -21 15.5 -33.5
t67.5 -19.5zM80 826h171l44 -46l44 46h171l-149 -146h-132z" />
    <glyph glyph-name="uni0162" unicode="&#x162;" horiz-adv-x="619" 
d="M409 0h-200v587h-174v175h549v-175h-175v-587zM335 -225h-166l29 145h205z" />
    <glyph glyph-name="uni0163" unicode="&#x163;" horiz-adv-x="379" 
d="M307 164q23 0 36 3v-172q-30 -7 -85 -7q-118 0 -165.5 62.5t-47.5 199.5v459h199v-138h100v-169h-100v-159q0 -44 13.5 -61.5t49.5 -17.5zM255 -225h-166l29 145h205z" />
    <glyph glyph-name="Tcaron" unicode="&#x164;" horiz-adv-x="619" 
d="M409 0h-200v587h-174v175h549v-175h-175v-587zM94 981h171l44 -46l44 46h171l-149 -146h-132z" />
    <glyph glyph-name="tcaron" unicode="&#x165;" horiz-adv-x="379" 
d="M303 772h162l-45 -149h-127zM307 164q23 0 36 3v-172q-30 -7 -85 -7q-118 0 -165.5 62.5t-47.5 199.5v459h199v-138h100v-169h-100v-159q0 -44 13.5 -61.5t49.5 -17.5z" />
    <glyph glyph-name="Tbar" unicode="&#x166;" horiz-adv-x="619" 
d="M409 0h-200v281h-132v160h132v146h-174v175h549v-175h-175v-146h132v-160h-132v-281z" />
    <glyph glyph-name="tbar" unicode="&#x167;" horiz-adv-x="379" 
d="M307 164q23 0 36 3v-172q-30 -7 -85 -7q-116 0 -164.5 59.5t-48.5 175.5v25h-45v123h45v338h199v-138h100v-137h-100v-63h101v-123h-101v-21q0 -33 14 -48t49 -15z" />
    <glyph glyph-name="Utilde" unicode="&#x168;" horiz-adv-x="681" 
d="M434 762h197v-488q0 -139 -73.5 -212.5t-218.5 -73.5t-217 73t-72 213v488h198v-486q0 -58 23 -83t68 -25q48 0 71.5 25t23.5 84v485zM426 998h114q0 -79 -31.5 -124t-85.5 -45q-46 0 -82 23q-6 3 -15 9.5t-14 9.5t-13 5.5t-15 2.5q-30 0 -30 -44h-114q0 79 31 124.5
t85 45.5q46 0 91 -28q36 -22 49 -22t21.5 11.5t8.5 31.5z" />
    <glyph glyph-name="utilde" unicode="&#x169;" horiz-adv-x="599" 
d="M48 209v402h194v-380q0 -40 12.5 -56.5t43.5 -16.5q30 0 43.5 17t13.5 58v378h194v-611h-168l-10 43q-48 -55 -144 -55q-179 0 -179 221zM384 843h114q0 -79 -31.5 -124t-85.5 -45q-46 0 -82 23q-6 3 -15 9.5t-14 9.5t-13 5.5t-15 2.5q-30 0 -30 -44h-114q0 79 31 124.5
t85 45.5q46 0 91 -28q36 -22 49 -22t21.5 11.5t8.5 31.5z" />
    <glyph glyph-name="Umacron" unicode="&#x16a;" horiz-adv-x="681" 
d="M434 762h197v-488q0 -139 -73.5 -212.5t-218.5 -73.5t-217 73t-72 213v488h198v-486q0 -58 23 -83t68 -25q48 0 71.5 25t23.5 84v485zM200 982h280v-128h-280v128z" />
    <glyph glyph-name="umacron" unicode="&#x16b;" horiz-adv-x="599" 
d="M48 209v402h194v-380q0 -40 12.5 -56.5t43.5 -16.5q30 0 43.5 17t13.5 58v378h194v-611h-168l-10 43q-48 -55 -144 -55q-179 0 -179 221zM158 827h280v-128h-280v128z" />
    <glyph glyph-name="Ubreve" unicode="&#x16c;" horiz-adv-x="681" 
d="M434 762h197v-488q0 -139 -73.5 -212.5t-218.5 -73.5t-217 73t-72 213v488h198v-486q0 -58 23 -83t68 -25q48 0 71.5 25t23.5 84v485zM340 834q-187 0 -187 163h130q0 -69 57 -69t57 69h130q0 -163 -187 -163z" />
    <glyph glyph-name="ubreve" unicode="&#x16d;" horiz-adv-x="599" 
d="M48 209v402h194v-380q0 -40 12.5 -56.5t43.5 -16.5q30 0 43.5 17t13.5 58v378h194v-611h-168l-10 43q-48 -55 -144 -55q-179 0 -179 221zM298 679q-187 0 -187 163h130q0 -69 57 -69t57 69h130q0 -163 -187 -163z" />
    <glyph glyph-name="Uring" unicode="&#x16e;" horiz-adv-x="681" 
d="M434 762h197v-488q0 -139 -73.5 -212.5t-218.5 -73.5t-217 73t-72 213v488h198v-486q0 -58 23 -83t68 -25q48 0 71.5 25t23.5 84v485zM490 959q0 -63 -38 -102t-112 -39t-112 39t-38 102t38 102t112 39t112 -39t38 -102zM390 959q0 54 -50 54t-50 -54t50 -54t50 54z" />
    <glyph glyph-name="uring" unicode="&#x16f;" horiz-adv-x="599" 
d="M48 209v402h194v-380q0 -40 12.5 -56.5t43.5 -16.5q30 0 43.5 17t13.5 58v378h194v-611h-168l-10 43q-48 -55 -144 -55q-179 0 -179 221zM448 804q0 -63 -38 -102t-112 -39t-112 39t-38 102t38 102t112 39t112 -39t38 -102zM348 804q0 54 -50 54t-50 -54t50 -54t50 54z
" />
    <glyph glyph-name="Uhungarumlaut" unicode="&#x170;" horiz-adv-x="681" 
d="M434 762h197v-488q0 -139 -73.5 -212.5t-218.5 -73.5t-217 73t-72 213v488h198v-486q0 -58 23 -83t68 -25q48 0 71.5 25t23.5 84v485zM281 834h-160l64 133h185zM502 834h-160l64 133h185z" />
    <glyph glyph-name="uhungarumlaut" unicode="&#x171;" horiz-adv-x="599" 
d="M48 209v402h194v-380q0 -40 12.5 -56.5t43.5 -16.5q30 0 43.5 17t13.5 58v378h194v-611h-168l-10 43q-48 -55 -144 -55q-179 0 -179 221zM239 679h-160l64 133h185zM460 679h-160l64 133h185z" />
    <glyph glyph-name="Uogonek" unicode="&#x172;" horiz-adv-x="681" 
d="M434 762h197v-488q0 -139 -73.5 -212.5t-218.5 -73.5t-217 73t-72 213v488h198v-486q0 -58 23 -83t68 -25q48 0 71.5 25t23.5 84v485zM444 -94l4 -107q-38 -11 -103 -11q-67 0 -103 21.5t-36 73.5q0 48 35 82.5t77 48.5l126 -14q-82 -40 -82 -71q0 -28 38 -28q16 0 44 5z
" />
    <glyph glyph-name="uogonek" unicode="&#x173;" horiz-adv-x="599" 
d="M48 209v402h194v-380q0 -40 12.5 -56.5t43.5 -16.5q30 0 43.5 17t13.5 58v378h194v-611h-168l-10 43q-48 -55 -144 -55q-179 0 -179 221zM549 -94l4 -107q-38 -11 -103 -11q-67 0 -103 21.5t-36 73.5q0 48 35 82.5t77 48.5l126 -14q-82 -40 -82 -71q0 -28 38 -28
q17 0 44 5z" />
    <glyph glyph-name="Wcircumflex" unicode="&#x174;" horiz-adv-x="950" 
d="M559 0l-85 507l-86 -507h-215l-158 762h213l64 -525l83 525h205l82 -522l65 522h208l-158 -762h-218zM519 835l-44 45l-44 -45h-171l149 146h132l149 -146h-171z" />
    <glyph glyph-name="wcircumflex" unicode="&#x175;" horiz-adv-x="839" 
d="M335 611h184l70 -408l45 408h195l-135 -611h-210l-65 349l-65 -349h-209l-135 611h206l45 -408zM463 680l-44 45l-44 -45h-171l149 146h132l149 -146h-171z" />
    <glyph glyph-name="Ycircumflex" unicode="&#x176;" horiz-adv-x="665" 
d="M232 0v312l-227 450h220l112 -295l113 295h210l-228 -452v-310h-200zM376 835l-44 45l-44 -45h-171l149 146h132l149 -146h-171z" />
    <glyph glyph-name="ycircumflex" unicode="&#x177;" horiz-adv-x="576" 
d="M181 13l-179 598h215l81 -390l56 390h212l-125 -504q-44 -175 -113.5 -242.5t-188.5 -67.5q-54 0 -98 11v175q32 -6 54 -6q36 0 53 6.5t33 29.5zM323 680l-44 45l-44 -45h-171l149 146h132l149 -146h-171z" />
    <glyph glyph-name="Ydieresis" unicode="&#x178;" horiz-adv-x="665" 
d="M232 0v312l-227 450h220l112 -295l113 295h210l-228 -452v-310h-200zM303 994v-149h-151v149h151zM512 994v-149h-151v149h151z" />
    <glyph glyph-name="Zacute" unicode="&#x179;" horiz-adv-x="589" 
d="M559 599l-302 -424h294v-175h-531v162l302 425h-282v175h519v-163zM334 835h-161l79 133h196z" />
    <glyph glyph-name="zacute" unicode="&#x17a;" horiz-adv-x="534" 
d="M491 441l-218 -271h231v-170h-474v170l220 271h-210v170h451v-170zM306 680h-161l79 133h196z" />
    <glyph glyph-name="Zdotaccent" unicode="&#x17b;" horiz-adv-x="589" 
d="M559 599l-302 -424h294v-175h-531v162l302 425h-282v175h519v-163zM385 1017v-172h-194v172h194z" />
    <glyph glyph-name="zdotaccent" unicode="&#x17c;" horiz-adv-x="534" 
d="M491 441l-218 -271h231v-170h-474v170l220 271h-210v170h451v-170zM357 862v-172h-194v172h194z" />
    <glyph glyph-name="Zcaron" unicode="&#x17d;" horiz-adv-x="589" 
d="M559 599l-302 -424h294v-175h-531v162l302 425h-282v175h519v-163zM73 981h171l44 -46l44 46h171l-149 -146h-132z" />
    <glyph glyph-name="zcaron" unicode="&#x17e;" horiz-adv-x="534" 
d="M491 441l-218 -271h231v-170h-474v170l220 271h-210v170h451v-170zM45 826h171l44 -46l44 46h171l-149 -146h-132z" />
    <glyph glyph-name="longs" unicode="&#x17f;" horiz-adv-x="413" 
d="M249 576v-576h-199v545q0 130 61 188t190 58q56 0 92 -9v-150q-30 7 -61 7q-83 0 -83 -63z" />
    <glyph glyph-name="florin" unicode="&#x192;" horiz-adv-x="413" 
d="M-26 -192v163q8 -1 22 -1q31 0 42.5 15t11.5 62v498q0 130 61 188t190 58q56 0 92 -9v-150q-30 7 -61 7q-88 0 -88 -63v-5h142v-169h-142v-352q0 -136 -51 -190t-170 -54q-15 0 -49 2z" />
    <glyph glyph-name="aringacute" unicode="&#x1fb;" horiz-adv-x="582" 
d="M366 0l-10 46q-42 -58 -140 -58q-80 0 -130.5 47.5t-50.5 129.5q0 97 58 144t186 47q21 0 73 -4v47q0 74 -61 74q-34 0 -49 -17.5t-15 -55.5h-175q0 121 61.5 172t186.5 51q113 0 175 -51t62 -170v-402h-171zM352 204v35q-19 3 -52 3q-74 0 -74 -56q0 -52 56 -52
q29 0 49.5 18.5t20.5 51.5zM449 784q0 -63 -38 -102t-112 -39t-112 39t-38 102t38 102t112 39t112 -39t38 -102zM349 784q0 54 -50 54t-50 -54t50 -54t50 54zM396 952h-161l79 133h196z" />
    <glyph glyph-name="oslashacute" unicode="&#x1ff;" horiz-adv-x="594" 
d="M297 623q71 0 123 -20l24 40h132l-64 -107q42 -60 42 -159v-143q0 -246 -257 -246q-70 0 -121 18l-25 -42h-132l65 108q-44 59 -44 162v143q0 246 257 246zM225 392v-111l113 188q-13 8 -41 8q-39 0 -55.5 -18.5t-16.5 -66.5zM297 134q39 0 55.5 18.5t16.5 66.5v106
l-111 -185q15 -6 39 -6zM356 660h-161l79 133h196z" />
    <glyph glyph-name="Scommaaccent" unicode="&#x218;" horiz-adv-x="608" 
d="M257 311q-39 9 -63.5 16.5t-58 25.5t-53 41t-33.5 62.5t-14 90.5q0 110 65.5 168.5t190.5 58.5q132 0 202 -56t81 -186h-199q-5 43 -21.5 60t-57.5 17q-39 0 -53 -13t-14 -42q0 -33 21.5 -49.5t76.5 -28.5q26 -6 38 -8.5t38.5 -10t40.5 -13.5t37 -17.5t36 -23.5t29 -30
t24 -38.5t14 -47.5t6 -58q0 -114 -66.5 -177.5t-221.5 -63.5q-78 0 -135 20t-88 56t-45 77.5t-14 90.5h198q2 -40 21 -59.5t72 -19.5q44 0 62.5 18t18.5 55q0 34 -27 50t-108 35zM338 -225h-166l29 145h205z" />
    <glyph glyph-name="scommaaccent" unicode="&#x219;" horiz-adv-x="566" 
d="M314 384q220 -28 220 -194q0 -99 -69 -150.5t-188 -51.5q-122 0 -183 56t-61 152h185q4 -66 72 -66q25 0 39.5 13t14.5 34q0 26 -13 39t-61 18q-116 13 -170 57t-54 138q0 95 67 144.5t177 49.5q235 0 235 -208h-178q0 66 -63 66q-25 0 -39 -12t-14 -32q0 -21 15.5 -33.5
t67.5 -19.5zM329 -225h-166l29 145h205z" />
    <glyph glyph-name="uni021A" unicode="&#x21a;" horiz-adv-x="619" 
d="M409 0h-200v587h-174v175h549v-175h-175v-587zM355 -225h-166l29 145h205z" />
    <glyph glyph-name="uni021B" unicode="&#x21b;" horiz-adv-x="379" 
d="M307 164q23 0 36 3v-172q-30 -7 -85 -7q-118 0 -165.5 62.5t-47.5 199.5v459h199v-138h100v-169h-100v-159q0 -44 13.5 -61.5t49.5 -17.5zM259 -225h-166l29 145h205z" />
    <glyph glyph-name="dotlessj" unicode="&#x237;" horiz-adv-x="294" 
d="M-26 -192v163q8 -1 22 -1q31 0 42.5 15t11.5 62v564h194v-561q0 -136 -51 -190t-170 -54q-15 0 -49 2z" />
    <glyph glyph-name="circumflex" unicode="&#x2c6;" horiz-adv-x="500" 
d="M294 660l-44 45l-44 -45h-171l149 146h132l149 -146h-171z" />
    <glyph glyph-name="caron" unicode="&#x2c7;" horiz-adv-x="500" 
d="M35 806h171l44 -46l44 46h171l-149 -146h-132z" />
    <glyph glyph-name="breve" unicode="&#x2d8;" horiz-adv-x="500" 
d="M250 659q-187 0 -187 163h130q0 -69 57 -69t57 69h130q0 -163 -187 -163z" />
    <glyph glyph-name="dotaccent" unicode="&#x2d9;" horiz-adv-x="294" 
d="M244 842v-172h-194v172h194z" />
    <glyph glyph-name="ring" unicode="&#x2da;" horiz-adv-x="500" 
d="M400 784q0 -63 -38 -102t-112 -39t-112 39t-38 102t38 102t112 39t112 -39t38 -102zM300 784q0 54 -50 54t-50 -54t50 -54t50 54z" />
    <glyph glyph-name="ogonek" unicode="&#x2db;" horiz-adv-x="500" 
d="M364 -94l4 -107q-38 -11 -103 -11q-67 0 -103 21.5t-36 73.5q0 48 35 82.5t77 48.5l126 -14q-82 -40 -82 -71q0 -28 38 -28q16 0 44 5z" />
    <glyph glyph-name="tilde" unicode="&#x2dc;" horiz-adv-x="500" 
d="M336 823h114q0 -79 -31.5 -124t-85.5 -45q-46 0 -82 23q-6 3 -15 9.5t-14 9.5t-13 5.5t-15 2.5q-30 0 -30 -44h-114q0 79 31 124.5t85 45.5q46 0 91 -28q36 -22 49 -22t21.5 11.5t8.5 31.5z" />
    <glyph glyph-name="hungarumlaut" unicode="&#x2dd;" horiz-adv-x="500" 
d="M190 660h-160l64 133h185zM411 660h-160l64 133h185z" />
    <glyph glyph-name="Wgrave" unicode="&#x1e80;" horiz-adv-x="950" 
d="M559 0l-85 507l-86 -507h-215l-158 762h213l64 -525l83 525h205l82 -522l65 522h208l-158 -762h-218zM586 835h-161l-114 133h196z" />
    <glyph glyph-name="wgrave" unicode="&#x1e81;" horiz-adv-x="839" 
d="M335 611h184l70 -408l45 408h195l-135 -611h-210l-65 349l-65 -349h-209l-135 611h206l45 -408zM530 680h-161l-114 133h196z" />
    <glyph glyph-name="Wacute" unicode="&#x1e82;" horiz-adv-x="950" 
d="M559 0l-85 507l-86 -507h-215l-158 762h213l64 -525l83 525h205l82 -522l65 522h208l-158 -762h-218zM521 835h-161l79 133h196z" />
    <glyph glyph-name="wacute" unicode="&#x1e83;" horiz-adv-x="839" 
d="M335 611h184l70 -408l45 408h195l-135 -611h-210l-65 349l-65 -349h-209l-135 611h206l45 -408zM465 680h-161l79 133h196z" />
    <glyph glyph-name="Wdieresis" unicode="&#x1e84;" horiz-adv-x="950" 
d="M559 0l-85 507l-86 -507h-215l-158 762h213l64 -525l83 525h205l82 -522l65 522h208l-158 -762h-218zM446 994v-149h-151v149h151zM655 994v-149h-151v149h151z" />
    <glyph glyph-name="wdieresis" unicode="&#x1e85;" horiz-adv-x="839" 
d="M335 611h184l70 -408l45 408h195l-135 -611h-210l-65 349l-65 -349h-209l-135 611h206l45 -408zM390 839v-149h-151v149h151zM599 839v-149h-151v149h151z" />
    <glyph glyph-name="Ygrave" unicode="&#x1ef2;" horiz-adv-x="665" 
d="M232 0v312l-227 450h220l112 -295l113 295h210l-228 -452v-310h-200zM443 835h-161l-114 133h196z" />
    <glyph glyph-name="ygrave" unicode="&#x1ef3;" horiz-adv-x="576" 
d="M181 13l-179 598h215l81 -390l56 390h212l-125 -504q-44 -175 -113.5 -242.5t-188.5 -67.5q-54 0 -98 11v175q32 -6 54 -6q36 0 53 6.5t33 29.5zM390 680h-161l-114 133h196z" />
    <glyph glyph-name="endash" unicode="&#x2013;" horiz-adv-x="588" 
d="M498 396v-160h-408v160h408z" />
    <glyph glyph-name="emdash" unicode="&#x2014;" horiz-adv-x="911" 
d="M865 396v-160h-815v160h815z" />
    <glyph glyph-name="quoteleft" unicode="&#x2018;" horiz-adv-x="295" 
d="M217 565h-192l67 207h168z" />
    <glyph glyph-name="quoteright" unicode="&#x2019;" horiz-adv-x="295" 
d="M78 771h192l-68 -207h-167z" />
    <glyph glyph-name="quotesinglbase" unicode="&#x201a;" horiz-adv-x="295" 
d="M78 66h192l-68 -207h-167z" />
    <glyph glyph-name="quotedblleft" unicode="&#x201c;" horiz-adv-x="545" 
d="M217 565h-192l67 207h168zM467 565h-192l67 207h168z" />
    <glyph glyph-name="quotedblright" unicode="&#x201d;" horiz-adv-x="545" 
d="M78 771h192l-68 -207h-167zM328 771h192l-68 -207h-167z" />
    <glyph glyph-name="quotedblbase" unicode="&#x201e;" horiz-adv-x="545" 
d="M78 66h192l-68 -207h-167zM328 66h192l-68 -207h-167z" />
    <glyph glyph-name="dagger" unicode="&#x2020;" horiz-adv-x="620" 
d="M550 584v-170h-140v-537h-200v537h-140v170h140v242h200v-242h140z" />
    <glyph glyph-name="daggerdbl" unicode="&#x2021;" horiz-adv-x="602" 
d="M550 263v-170h-140v-216h-200v216h-140v170h140v191h-140v170h140v202h200v-202h140v-170h-140v-191h140z" />
    <glyph glyph-name="bullet" unicode="&#x2022;" horiz-adv-x="371" 
d="M296 442v-226h-221v226h221z" />
    <glyph glyph-name="ellipsis" unicode="&#x2026;" horiz-adv-x="1000" 
d="M932 193v-193h-189v193h189zM594 193v-193h-189v193h189zM257 193v-193h-189v193h189z" />
    <glyph glyph-name="perthousand" unicode="&#x2030;" horiz-adv-x="1225" 
d="M230 554v71q0 26 -5 34.5t-21 8.5q-15 0 -20 -8.5t-5 -34.5v-71q0 -26 5 -35t20 -9q16 0 21 9t5 35zM45 553v79q0 43 13.5 73.5t37.5 46.5t50.5 23t57.5 7q32 0 58.5 -7t50.5 -23t37.5 -46.5t13.5 -73.5v-79q0 -85 -45.5 -120.5t-114.5 -35.5q-68 0 -113.5 35.5
t-45.5 120.5zM635 208v-71q0 -26 5 -34.5t21 -8.5q15 0 20 8.5t5 34.5v71q0 26 -5 35t-20 9q-16 0 -21 -9t-5 -35zM820 209v-79q0 -43 -13.5 -73.5t-37.5 -46.5t-50.5 -23t-57.5 -7q-32 0 -58.5 7t-50.5 23t-37.5 46.5t-13.5 73.5v79q0 85 45.5 120.5t114.5 35.5
q68 0 113.5 -35.5t45.5 -120.5zM550 762h146l-381 -762h-146zM995 208v-71q0 -26 5 -34.5t21 -8.5q15 0 20 8.5t5 34.5v71q0 26 -5 35t-20 9q-16 0 -21 -9t-5 -35zM1180 209v-79q0 -43 -13.5 -73.5t-37.5 -46.5t-50.5 -23t-57.5 -7q-32 0 -58.5 7t-50.5 23t-37.5 46.5
t-13.5 73.5v79q0 85 45.5 120.5t114.5 35.5q68 0 113.5 -35.5t45.5 -120.5z" />
    <glyph glyph-name="guilsinglleft" unicode="&#x2039;" horiz-adv-x="395" 
d="M35 339l123 208h192l-122 -209l122 -208h-192z" />
    <glyph glyph-name="guilsinglright" unicode="&#x203a;" horiz-adv-x="395" 
d="M360 338l-123 -208h-192l122 209l-122 208h192z" />
    <glyph glyph-name="fraction" unicode="&#x2044;" horiz-adv-x="127" 
d="M221 762h126l-441 -762h-126z" />
    <glyph glyph-name="Euro" unicode="&#x20ac;" horiz-adv-x="702" 
d="M652 529h-192q0 90 -68 90q-36 0 -53.5 -27t-17.5 -91v-14h183v-86h-183v-40h183v-86h-183v-19q0 -62 17.5 -87.5t53.5 -25.5q33 0 50.5 19.5t17.5 70.5h192q0 -126 -64 -185.5t-190 -59.5q-132 0 -198.5 70t-66.5 205v12h-83v86h83v40h-83v86h83v10q0 136 66.5 206.5
t198.5 70.5q122 0 188 -57t66 -188z" />
    <glyph glyph-name="trademark" unicode="&#x2122;" horiz-adv-x="886" 
d="M406 763h161l56 -192l57 192h151v-429h-125v213l-35 -116h-106l-33 111v-208h-126v429zM371 763v-128h-95v-301h-147v301h-94v128h336z" />
    <glyph glyph-name="minus" unicode="&#x2212;" horiz-adv-x="610" 
d="M521 445v-159h-432v159h432z" />
    <glyph glyph-name="approxequal" unicode="&#x2248;" horiz-adv-x="614" 
d="M412 591h140q0 -89 -39 -143t-105 -54q-44 0 -76.5 15.5t-54.5 31t-41 15.5q-17 0 -27.5 -14t-10.5 -40h-140q0 89 39 143t105 54q44 0 76.5 -15.5t54.5 -31t41 -15.5q17 0 27.5 14t10.5 40zM416 341h140q0 -89 -39 -143t-105 -54q-44 0 -76.5 15.5t-54.5 31t-41 15.5
q-17 0 -27.5 -14t-10.5 -40h-140q0 89 39 143t105 54q44 0 76.5 -15.5t54.5 -31t41 -15.5q17 0 27.5 14t10.5 40z" />
    <glyph glyph-name="notequal" unicode="&#x2260;" horiz-adv-x="610" 
d="M531 319v-159h-253l-51 -101h-145l51 101h-54v159h134l39 77h-173v159h253l51 101h145l-51 -101h54v-159h-134l-39 -77h173z" />
    <glyph glyph-name="lessequal" unicode="&#x2264;" horiz-adv-x="610" 
d="M521 159v-159h-432v159h432zM103 395v186l404 176v-178l-219 -88l219 -81v-190z" />
    <glyph glyph-name="greaterequal" unicode="&#x2265;" horiz-adv-x="610" 
d="M521 159v-159h-432v159h432zM507 581v-186l-404 -176v178l218 87l-218 82v190z" />
    <glyph glyph-name="commaaccent" unicode="&#xf6c3;" horiz-adv-x="500" 
d="M335 -225h-166l29 145h205z" />
    <glyph glyph-name="a.alt" 
d="M234 -12q-93 0 -143.5 63t-50.5 183v153q0 111 57 173.5t137 62.5q83 0 128 -47l8 35h183v-611h-168l-10 42q-48 -54 -141 -54zM359 231v150q0 72 -62 72q-32 0 -47 -17t-15 -56v-149q0 -41 14 -57t48 -16t48 16t14 57z" />
    <glyph glyph-name="aacute.alt" 
d="M234 -12q-93 0 -143.5 63t-50.5 183v153q0 111 57 173.5t137 62.5q83 0 128 -47l8 35h183v-611h-168l-10 42q-48 -54 -141 -54zM359 231v150q0 72 -62 72q-32 0 -47 -17t-15 -56v-149q0 -41 14 -57t48 -16t48 16t14 57zM342 680h-161l79 133h196z" />
    <glyph glyph-name="abreve.alt" 
d="M234 -12q-93 0 -143.5 63t-50.5 183v153q0 111 57 173.5t137 62.5q83 0 128 -47l8 35h183v-611h-168l-10 42q-48 -54 -141 -54zM359 231v150q0 72 -62 72q-32 0 -47 -17t-15 -56v-149q0 -41 14 -57t48 -16t48 16t14 57zM296 679q-187 0 -187 163h130q0 -69 57 -69t57 69
h130q0 -163 -187 -163z" />
    <glyph glyph-name="acircumflex.alt" 
d="M234 -12q-93 0 -143.5 63t-50.5 183v153q0 111 57 173.5t137 62.5q83 0 128 -47l8 35h183v-611h-168l-10 42q-48 -54 -141 -54zM359 231v150q0 72 -62 72q-32 0 -47 -17t-15 -56v-149q0 -41 14 -57t48 -16t48 16t14 57zM340 680l-44 45l-44 -45h-171l149 146h132
l149 -146h-171z" />
    <glyph glyph-name="adieresis.alt" 
d="M234 -12q-93 0 -143.5 63t-50.5 183v153q0 111 57 173.5t137 62.5q83 0 128 -47l8 35h183v-611h-168l-10 42q-48 -54 -141 -54zM359 231v150q0 72 -62 72q-32 0 -47 -17t-15 -56v-149q0 -41 14 -57t48 -16t48 16t14 57zM267 839v-149h-151v149h151zM476 839v-149h-151
v149h151z" />
    <glyph glyph-name="agrave.alt" 
d="M234 -12q-93 0 -143.5 63t-50.5 183v153q0 111 57 173.5t137 62.5q83 0 128 -47l8 35h183v-611h-168l-10 42q-48 -54 -141 -54zM359 231v150q0 72 -62 72q-32 0 -47 -17t-15 -56v-149q0 -41 14 -57t48 -16t48 16t14 57zM407 680h-161l-114 133h196z" />
    <glyph glyph-name="amacron.alt" 
d="M234 -12q-93 0 -143.5 63t-50.5 183v153q0 111 57 173.5t137 62.5q83 0 128 -47l8 35h183v-611h-168l-10 42q-48 -54 -141 -54zM359 231v150q0 72 -62 72q-32 0 -47 -17t-15 -56v-149q0 -41 14 -57t48 -16t48 16t14 57zM156 827h280v-128h-280v128z" />
    <glyph glyph-name="aogonek.alt" 
d="M234 -12q-93 0 -143.5 63t-50.5 183v153q0 111 57 173.5t137 62.5q83 0 128 -47l8 35h183v-611h-168l-10 42q-48 -54 -141 -54zM359 231v150q0 72 -62 72q-32 0 -47 -17t-15 -56v-149q0 -41 14 -57t48 -16t48 16t14 57zM553 -94l4 -107q-38 -11 -103 -11q-67 0 -103 21.5
t-36 73.5q0 48 35 82.5t77 48.5l126 -14q-82 -40 -82 -71q0 -28 38 -28q17 0 44 5z" />
    <glyph glyph-name="aring.alt" 
d="M234 -12q-93 0 -143.5 63t-50.5 183v153q0 111 57 173.5t137 62.5q83 0 128 -47l8 35h183v-611h-168l-10 42q-48 -54 -141 -54zM359 231v150q0 72 -62 72q-32 0 -47 -17t-15 -56v-149q0 -41 14 -57t48 -16t48 16t14 57zM446 804q0 -63 -38 -102t-112 -39t-112 39t-38 102
t38 102t112 39t112 -39t38 -102zM346 804q0 54 -50 54t-50 -54t50 -54t50 54z" />
    <glyph glyph-name="aringacute.alt" 
d="M446 784q0 -63 -38 -102t-112 -39t-112 39t-38 102t38 102t112 39t112 -39t38 -102zM346 784q0 54 -50 54t-50 -54t50 -54t50 54zM396 952h-161l79 133h196zM234 -12q-93 0 -143.5 63t-50.5 183v153q0 111 57 173.5t137 62.5q83 0 128 -47l8 35h183v-611h-168l-10 42
q-48 -54 -141 -54zM359 231v150q0 72 -62 72q-32 0 -47 -17t-15 -56v-149q0 -41 14 -57t48 -16t48 16t14 57z" />
    <glyph glyph-name="atilde.alt" 
d="M234 -12q-93 0 -143.5 63t-50.5 183v153q0 111 57 173.5t137 62.5q83 0 128 -47l8 35h183v-611h-168l-10 42q-48 -54 -141 -54zM359 231v150q0 72 -62 72q-32 0 -47 -17t-15 -56v-149q0 -41 14 -57t48 -16t48 16t14 57zM382 843h114q0 -79 -31.5 -124t-85.5 -45
q-46 0 -82 23q-6 3 -15 9.5t-14 9.5t-13 5.5t-15 2.5q-30 0 -30 -44h-114q0 79 31 124.5t85 45.5q46 0 91 -28q36 -22 49 -22t21.5 11.5t8.5 31.5z" />
    <glyph glyph-name="g.alt" horiz-adv-x="604" 
d="M548 335q0 -121 -60 -164q71 -54 71 -158v-8q0 -103 -69.5 -155.5t-187.5 -52.5q-132 0 -188 54.5t-56 153.5h185q2 -35 16.5 -49.5t48.5 -14.5q57 0 57 61v9q0 44 -28 80q-14 -2 -45 -2q-257 0 -257 246v52q0 118 56 177t138 59q83 0 128 -47l8 35h183v-276zM230 380
v-48q0 -41 14 -57t48 -16t48 16t14 57v49q0 72 -62 72q-32 0 -47 -17t-15 -56z" />
    <glyph glyph-name="gbreve.alt" horiz-adv-x="604" 
d="M548 335q0 -121 -60 -164q71 -54 71 -158v-8q0 -103 -69.5 -155.5t-187.5 -52.5q-132 0 -188 54.5t-56 153.5h185q2 -35 16.5 -49.5t48.5 -14.5q57 0 57 61v9q0 44 -28 80q-14 -2 -45 -2q-257 0 -257 246v52q0 118 56 177t138 59q83 0 128 -47l8 35h183v-276zM230 380
v-48q0 -41 14 -57t48 -16t48 16t14 57v49q0 72 -62 72q-32 0 -47 -17t-15 -56zM297 679q-187 0 -187 163h130q0 -69 57 -69t57 69h130q0 -163 -187 -163z" />
    <glyph glyph-name="gcircumflex.alt" horiz-adv-x="604" 
d="M548 335q0 -121 -60 -164q71 -54 71 -158v-8q0 -103 -69.5 -155.5t-187.5 -52.5q-132 0 -188 54.5t-56 153.5h185q2 -35 16.5 -49.5t48.5 -14.5q57 0 57 61v9q0 44 -28 80q-14 -2 -45 -2q-257 0 -257 246v52q0 118 56 177t138 59q83 0 128 -47l8 35h183v-276zM230 380
v-48q0 -41 14 -57t48 -16t48 16t14 57v49q0 72 -62 72q-32 0 -47 -17t-15 -56zM341 680l-44 45l-44 -45h-171l149 146h132l149 -146h-171z" />
    <glyph glyph-name="gcommaaccent.alt" horiz-adv-x="604" 
d="M548 335q0 -121 -60 -164q71 -54 71 -158v-8q0 -103 -69.5 -155.5t-187.5 -52.5q-132 0 -188 54.5t-56 153.5h185q2 -35 16.5 -49.5t48.5 -14.5q57 0 57 61v9q0 44 -28 80q-14 -2 -45 -2q-257 0 -257 246v52q0 118 56 177t138 59q83 0 128 -47l8 35h183v-276zM230 380
v-48q0 -41 14 -57t48 -16t48 16t14 57v49q0 72 -62 72q-32 0 -47 -17t-15 -56zM262 810h166l-29 -145h-205z" />
    <glyph glyph-name="gdotaccent.alt" horiz-adv-x="604" 
d="M548 335q0 -121 -60 -164q71 -54 71 -158v-8q0 -103 -69.5 -155.5t-187.5 -52.5q-132 0 -188 54.5t-56 153.5h185q2 -35 16.5 -49.5t48.5 -14.5q57 0 57 61v9q0 44 -28 80q-14 -2 -45 -2q-257 0 -257 246v52q0 118 56 177t138 59q83 0 128 -47l8 35h183v-276zM230 380
v-48q0 -41 14 -57t48 -16t48 16t14 57v49q0 72 -62 72q-32 0 -47 -17t-15 -56zM394 862v-172h-194v172h194z" />
    <glyph glyph-name="y.alt" 
d="M359 611h194v-575q0 -123 -68 -181t-189 -58q-132 0 -188 54.5t-56 153.5h185q2 -35 16.5 -49.5t48.5 -14.5q28 0 42.5 17.5t14.5 61.5v51q-37 -33 -105 -33q-102 0 -158 63t-56 183v327h195v-330q0 -41 14 -57t48 -16t48 16t14 57v330z" />
    <glyph glyph-name="yacute.alt" 
d="M359 611h194v-575q0 -123 -68 -181t-189 -58q-132 0 -188 54.5t-56 153.5h185q2 -35 16.5 -49.5t48.5 -14.5q28 0 42.5 17.5t14.5 61.5v51q-37 -33 -105 -33q-102 0 -158 63t-56 183v327h195v-330q0 -41 14 -57t48 -16t48 16t14 57v330zM342 680h-161l79 133h196z" />
    <glyph glyph-name="ycircumflex.alt" 
d="M359 611h194v-575q0 -123 -68 -181t-189 -58q-132 0 -188 54.5t-56 153.5h185q2 -35 16.5 -49.5t48.5 -14.5q28 0 42.5 17.5t14.5 61.5v51q-37 -33 -105 -33q-102 0 -158 63t-56 183v327h195v-330q0 -41 14 -57t48 -16t48 16t14 57v330zM340 680l-44 45l-44 -45h-171
l149 146h132l149 -146h-171z" />
    <glyph glyph-name="ydieresis.alt" 
d="M359 611h194v-575q0 -123 -68 -181t-189 -58q-132 0 -188 54.5t-56 153.5h185q2 -35 16.5 -49.5t48.5 -14.5q28 0 42.5 17.5t14.5 61.5v51q-37 -33 -105 -33q-102 0 -158 63t-56 183v327h195v-330q0 -41 14 -57t48 -16t48 16t14 57v330zM267 839v-149h-151v149h151z
M476 839v-149h-151v149h151z" />
    <glyph glyph-name="ygrave.alt" 
d="M359 611h194v-575q0 -123 -68 -181t-189 -58q-132 0 -188 54.5t-56 153.5h185q2 -35 16.5 -49.5t48.5 -14.5q28 0 42.5 17.5t14.5 61.5v51q-37 -33 -105 -33q-102 0 -158 63t-56 183v327h195v-330q0 -41 14 -57t48 -16t48 16t14 57v330zM407 680h-161l-114 133h196z" />
    </font>
</defs>
</svg>
